<?xml version="1.0" encoding="iso-8859-1"?>
<!-- Generator: Adobe Illustrator 18.1.1, SVG Export Plug-In . SVG Version: 6.00 Build 0)  -->
<svg xmlns="http://www.w3.org/2000/svg" xmlns:xlink="http://www.w3.org/1999/xlink" version="1.1" id="Capa_1" x="0px" y="0px" viewBox="0 0 556.922 556.922" style="enable-background:new 0 0 556.922 556.922;" xml:space="preserve" width="512px" height="512px">
<g>
	<g>
		<path d="M63.648,506.736h220.32v50.186H29.376c-4.488,0-8.16-1.531-11.016-4.59    c-2.856-3.062-4.284-6.834-4.284-11.322V149.94v-29.988v-1.836h0.612c0-0.816,0.408-1.632,1.224-2.448L130.968,2.448V0.612h3.672    C135.048,0.204,135.456,0,135.864,0h29.376l1.224,0.612H391.68c4.485,0,8.16,1.428,11.016,4.284    c2.856,2.856,4.284,6.528,4.284,11.016v170.136h-49.572V50.184h-186.66v99.756c0,4.08-1.836,6.12-5.508,6.12H63.648V506.736z     M534.889,353.125H429.624V247.248c0-5.304-2.649-7.956-7.956-7.956h-74.052c-5.304,0-7.956,2.652-7.956,7.956v105.877H233.784    c-5.304,0-7.956,2.648-7.956,7.955v74.053c0,5.303,2.652,7.955,7.956,7.955H339.66v105.877c0,5.303,2.652,7.955,7.956,7.955    h74.052c5.307,0,7.956-2.652,7.956-7.955V443.088H534.89c5.304,0,7.956-2.652,7.956-7.955V361.08    C542.845,355.775,540.192,353.125,534.889,353.125z" fill="#FFFFFF"/>
	</g>
</g>
<g>
</g>
<g>
</g>
<g>
</g>
<g>
</g>
<g>
</g>
<g>
</g>
<g>
</g>
<g>
</g>
<g>
</g>
<g>
</g>
<g>
</g>
<g>
</g>
<g>
</g>
<g>
</g>
<g>
</g>
</svg>
