<?xml version="1.0" encoding="iso-8859-1"?>
<!-- Generator: Adobe Illustrator 18.1.1, SVG Export Plug-In . SVG Version: 6.00 Build 0)  -->
<svg xmlns="http://www.w3.org/2000/svg" xmlns:xlink="http://www.w3.org/1999/xlink" version="1.1" id="Capa_1" x="0px" y="0px" viewBox="0 0 51.714 51.714" style="enable-background:new 0 0 51.714 51.714;" xml:space="preserve" width="512px" height="512px">
<g>
	<path d="M41.387,25.858c5.417-4.781,8.714-9.718,6.861-12.929c-0.604-1.045-2.055-2.29-5.549-2.29   c-2.486,0-5.625,0.638-9.074,1.784C32.194,5.333,29.566,0,25.856,0c-3.709,0-6.337,5.333-7.769,12.423   c-3.449-1.146-6.588-1.784-9.073-1.784c-3.494,0-4.946,1.246-5.55,2.291c-1.854,3.212,1.448,8.151,6.869,12.934   c-1.229,1.093-2.353,2.189-3.323,3.271c-3.628,4.05-4.855,7.388-3.548,9.651c0.604,1.045,2.057,2.29,5.551,2.29   c2.486,0,5.626-0.638,9.075-1.784c1.431,7.09,4.059,12.422,7.768,12.422c3.71,0,6.337-5.332,7.768-12.421   c3.449,1.146,6.588,1.784,9.075,1.784c0.001,0,0.002,0,0.002,0c3.493,0,4.945-1.245,5.549-2.29   C50.104,35.577,46.805,30.64,41.387,25.858z M42.7,12.28c1.496,0,3.427,0.255,4.126,1.469c1.149,1.99-1.36,6.284-6.715,11.018   c-1.666-1.381-3.491-2.736-5.402-4.021c-0.157-2.302-0.418-4.565-0.783-6.702C37.28,12.911,40.318,12.28,42.7,12.28z M29.55,32.254   c-1.231,0.711-2.466,1.373-3.695,1.993c-1.228-0.62-2.463-1.282-3.693-1.992c-1.258-0.726-2.44-1.466-3.577-2.211   c-0.075-1.349-0.117-2.744-0.117-4.187c0-1.444,0.042-2.841,0.117-4.19c1.154-0.754,2.343-1.495,3.578-2.208   c1.23-0.71,2.465-1.372,3.693-1.992c1.228,0.62,2.464,1.282,3.695,1.993c1.258,0.726,2.44,1.466,3.577,2.211   c0.075,1.348,0.117,2.744,0.117,4.186s-0.042,2.838-0.117,4.186C31.99,30.788,30.808,31.528,29.55,32.254z M32.984,32.094   c-0.152,1.778-0.367,3.454-0.632,5.018c-1.51-0.565-3.07-1.222-4.655-1.965c0.891-0.468,1.784-0.956,2.673-1.469   C31.25,33.17,32.122,32.64,32.984,32.094z M24.013,35.146c-1.585,0.743-3.144,1.401-4.654,1.965   c-0.265-1.563-0.48-3.239-0.631-5.017c0.862,0.545,1.734,1.076,2.614,1.584C22.23,34.191,23.122,34.679,24.013,35.146z    M16.891,28.9c-1.461-1.019-2.806-2.04-4.025-3.049c1.244-1.027,2.595-2.043,4.025-3.039c-0.041,1.015-0.064,2.033-0.064,3.045   S16.85,27.885,16.891,28.9z M18.728,19.623c0.152-1.779,0.367-3.456,0.632-5.02c1.51,0.564,3.07,1.222,4.655,1.965   c-0.892,0.468-1.784,0.956-2.674,1.469C20.448,18.553,19.581,19.085,18.728,19.623z M27.697,16.568   c1.585-0.743,3.145-1.401,4.655-1.965c0.265,1.564,0.48,3.24,0.632,5.018c-0.861-0.545-1.734-1.075-2.613-1.583   C29.482,17.524,28.589,17.036,27.697,16.568z M34.821,22.815c1.457,1.016,2.799,2.035,4.016,3.042   c-1.217,1.007-2.559,2.025-4.016,3.042c0.041-1.014,0.064-2.03,0.064-3.042S34.862,23.829,34.821,22.815z M25.856,1.641   c2.301,0,4.774,4.313,6.196,11.332c-2.002,0.735-4.086,1.625-6.196,2.659c-2.11-1.033-4.194-1.924-6.196-2.659   C21.082,5.954,23.555,1.641,25.856,1.641z M4.885,13.75c0.701-1.215,2.632-1.47,4.128-1.47c2.381,0,5.419,0.631,8.773,1.764   c-0.364,2.135-0.626,4.395-0.783,6.694c-1.949,1.306-3.764,2.659-5.405,4.027C6.245,20.033,3.736,15.74,4.885,13.75z M9.014,39.434   c-0.001,0-0.002,0-0.002,0c-1.496,0-3.426-0.255-4.128-1.47c-0.878-1.521,0.374-4.412,3.35-7.734   c0.973-1.086,2.111-2.189,3.359-3.288c1.668,1.384,3.496,2.741,5.41,4.028c0.157,2.302,0.419,4.564,0.783,6.701   C14.432,38.804,11.395,39.435,9.014,39.434z M25.856,50.073c-2.301,0-4.774-4.312-6.196-11.331   c2.002-0.735,4.085-1.625,6.195-2.658c2.11,1.034,4.194,1.924,6.196,2.659C30.63,45.761,28.156,50.073,25.856,50.073z    M46.827,37.965c-0.701,1.215-2.631,1.47-4.128,1.47c0,0,0,0-0.001,0c-2.382,0-5.419-0.631-8.772-1.764   c0.365-2.137,0.626-4.399,0.783-6.701c1.912-1.284,3.737-2.64,5.403-4.022C45.467,31.682,47.976,35.975,46.827,37.965z    M25.855,21.753c-2.263,0-4.104,1.841-4.104,4.104c0,2.262,1.841,4.104,4.104,4.104c2.264,0,4.105-1.841,4.104-4.104   C29.959,23.594,28.119,21.753,25.855,21.753z M25.855,28.32c-1.357,0-2.462-1.105-2.462-2.463s1.105-2.462,2.462-2.462   c1.358,0,2.463,1.104,2.463,2.462C28.318,27.216,27.213,28.32,25.855,28.32z" fill="#FFFFFF"/>
</g>
<g>
</g>
<g>
</g>
<g>
</g>
<g>
</g>
<g>
</g>
<g>
</g>
<g>
</g>
<g>
</g>
<g>
</g>
<g>
</g>
<g>
</g>
<g>
</g>
<g>
</g>
<g>
</g>
<g>
</g>
</svg>
