<?xml version="1.0" encoding="iso-8859-1"?>
<!-- Generator: Adobe Illustrator 16.0.0, SVG Export Plug-In . SVG Version: 6.00 Build 0)  -->
<!DOCTYPE svg PUBLIC "-//W3C//DTD SVG 1.1//EN" "http://www.w3.org/Graphics/SVG/1.1/DTD/svg11.dtd">
<svg xmlns="http://www.w3.org/2000/svg" xmlns:xlink="http://www.w3.org/1999/xlink" version="1.1" id="Capa_1" x="0px" y="0px" width="512px" height="512px" viewBox="0 0 108.002 108.002" style="enable-background:new 0 0 108.002 108.002;" xml:space="preserve">
<g>
	<g>
		<path d="M73.896,79.579c0-10.299-8.379-18.678-18.678-18.678c-10.301,0-18.679,8.379-18.679,18.678    c0,10.301,8.378,18.678,18.679,18.678C65.518,98.257,73.896,89.878,73.896,79.579z" fill="#FFFFFF"/>
		<path d="M18.677,9.745C8.377,9.745,0,18.122,0,28.422S8.377,47.1,18.677,47.1s18.678-8.378,18.678-18.678    S28.977,9.745,18.677,9.745z" fill="#FFFFFF"/>
		<path d="M108.002,28.422c0-10.3-8.378-18.677-18.678-18.677s-18.678,8.377-18.678,18.677S79.024,47.1,89.324,47.1    S108.002,38.719,108.002,28.422z" fill="#FFFFFF"/>
	</g>
</g>
<g>
</g>
<g>
</g>
<g>
</g>
<g>
</g>
<g>
</g>
<g>
</g>
<g>
</g>
<g>
</g>
<g>
</g>
<g>
</g>
<g>
</g>
<g>
</g>
<g>
</g>
<g>
</g>
<g>
</g>
</svg>
