<?xml version="1.0" encoding="iso-8859-1"?>
<!-- Generator: Adobe Illustrator 18.0.0, SVG Export Plug-In . SVG Version: 6.00 Build 0)  -->
<!DOCTYPE svg PUBLIC "-//W3C//DTD SVG 1.1//EN" "http://www.w3.org/Graphics/SVG/1.1/DTD/svg11.dtd">
<svg xmlns="http://www.w3.org/2000/svg" xmlns:xlink="http://www.w3.org/1999/xlink" version="1.1" id="Capa_1" x="0px" y="0px" viewBox="0 0 198 198" style="enable-background:new 0 0 198 198;" xml:space="preserve" width="512px" height="512px">
<path d="M192.384,99.825c-9.361-22.131-28.78-38.577-51.252-46.075c5.413-0.686,10.891-0.927,16.379-0.688  c9.065,0.395,17.464,2.395,25.745,5.045c5.602,1.793,9.756-5.12,5.588-9.271c-6.584-6.556-14.508-11.75-23.228-15.286  c-22.268-9.029-47.629-6.927-68.82,3.66c3.342-4.313,7.046-8.356,11.095-12.067c6.689-6.13,14.043-10.656,21.772-14.637  c5.229-2.694,3.278-10.519-2.604-10.507c-9.292,0.02-18.568,1.95-27.234,5.616C77.695,14.977,61.248,34.396,53.75,56.868  c-0.686-5.413-0.927-10.891-0.687-16.379c0.395-9.065,2.395-17.464,5.045-25.745c1.793-5.602-5.12-9.756-9.271-5.588  c-6.556,6.584-11.75,14.508-15.286,23.228c-9.029,22.268-6.927,47.629,3.66,68.82c-4.313-3.342-8.356-7.046-12.067-11.095  c-6.13-6.689-10.656-14.042-14.637-21.772C7.813,63.107-0.012,65.059,0,70.941c0.02,9.292,1.95,18.568,5.616,27.234  c9.361,22.131,28.78,38.577,51.251,46.075c-5.413,0.686-10.891,0.927-16.378,0.687c-9.065-0.395-17.464-2.395-25.745-5.045  c-5.602-1.793-9.756,5.12-5.588,9.271c6.584,6.556,14.508,11.75,23.228,15.286c22.268,9.029,47.629,6.927,68.82-3.66  c-3.342,4.313-7.046,8.356-11.095,12.067c-6.689,6.13-14.042,10.656-21.772,14.637c-5.229,2.694-3.278,10.519,2.604,10.507  c9.292-0.02,18.568-1.95,27.234-5.616c22.131-9.361,38.577-28.781,46.075-51.252c0.686,5.413,0.927,10.891,0.687,16.379  c-0.395,9.065-2.395,17.464-5.045,25.745c-1.793,5.602,5.12,9.756,9.271,5.588c6.556-6.584,11.75-14.509,15.286-23.228  c9.029-22.268,6.927-47.629-3.66-68.82c4.313,3.342,8.356,7.046,12.067,11.095c6.13,6.689,10.656,14.042,14.637,21.772  c2.694,5.229,10.519,3.278,10.507-2.604C197.98,117.767,196.05,108.491,192.384,99.825z M99,122.917  c-13.209,0-23.917-10.708-23.917-23.917S85.791,75.083,99,75.083S122.917,85.791,122.917,99S112.209,122.917,99,122.917z" fill="#FFFFFF"/>
<g>
</g>
<g>
</g>
<g>
</g>
<g>
</g>
<g>
</g>
<g>
</g>
<g>
</g>
<g>
</g>
<g>
</g>
<g>
</g>
<g>
</g>
<g>
</g>
<g>
</g>
<g>
</g>
<g>
</g>
</svg>
