<?xml version="1.0" encoding="iso-8859-1"?>
<!-- Generator: Adobe Illustrator 19.0.0, SVG Export Plug-In . SVG Version: 6.00 Build 0)  -->
<svg xmlns="http://www.w3.org/2000/svg" xmlns:xlink="http://www.w3.org/1999/xlink" version="1.1" id="Layer_1" x="0px" y="0px" viewBox="0 0 512 512" style="enable-background:new 0 0 512 512;" xml:space="preserve" width="512px" height="512px">
<g>
	<g>
		<path d="M448,64c-3.2-35.2-33.6-64-72-64c-40,0-72,32-72,72v35.2L107.2,304H72c-40,0-72,32-72,72c0,36.8,28.8,68.8,64,72    c3.2,35.2,33.6,64,72,64c40,0,72-32,72-70.4v-35.2L404.8,208H440c40,0,72-32,72-72C512,99.2,483.2,67.2,448,64z M440,176h-41.6    c-4.8,0-8,1.6-11.2,4.8L180.8,387.2c-3.2,3.2-4.8,6.4-4.8,11.2V440c0,20.8-17.6,38.4-40,38.4c-22.4,0-40-16-40-38.4v-8    c0-9.6-6.4-16-16-16h-8c-22.4,0-40-17.6-40-40c0-22.4,17.6-40,40-40h41.6c4.8,0,8-1.6,11.2-4.8l206.4-206.4    c3.2-3.2,4.8-6.4,4.8-11.2V72c0-22.4,17.6-40,40-40c22.4,0,40,17.6,40,40v8c0,9.6,6.4,16,16,16h8c22.4,0,40,17.6,40,40    C480,158.4,462.4,176,440,176z" fill="#FFFFFF"/>
	</g>
</g>
<g>
</g>
<g>
</g>
<g>
</g>
<g>
</g>
<g>
</g>
<g>
</g>
<g>
</g>
<g>
</g>
<g>
</g>
<g>
</g>
<g>
</g>
<g>
</g>
<g>
</g>
<g>
</g>
<g>
</g>
</svg>
