<?xml version="1.0" encoding="iso-8859-1"?>
<!-- Generator: Adobe Illustrator 18.0.0, SVG Export Plug-In . SVG Version: 6.00 Build 0)  -->
<!DOCTYPE svg PUBLIC "-//W3C//DTD SVG 1.1//EN" "http://www.w3.org/Graphics/SVG/1.1/DTD/svg11.dtd">
<svg xmlns="http://www.w3.org/2000/svg" xmlns:xlink="http://www.w3.org/1999/xlink" version="1.1" id="Capa_1" x="0px" y="0px" viewBox="0 0 62.972 62.972" style="enable-background:new 0 0 62.972 62.972;" xml:space="preserve" width="512px" height="512px">
<path d="M28.634,22.313H12.526c-0.894,0-1.62-0.725-1.62-1.62v-9.522c0-0.894,0.725-1.62,1.62-1.62h16.108  c0.894,0,1.62,0.725,1.62,1.62v9.522C30.253,21.588,29.528,22.313,28.634,22.313z M52.066,20.694v-9.522  c0-0.894-0.725-1.62-1.619-1.62H34.339c-0.895,0-1.62,0.725-1.62,1.62v9.522c0,0.894,0.725,1.62,1.62,1.62h16.108  C51.341,22.313,52.066,21.588,52.066,20.694z M19.347,36.247v-9.522c0-0.895-0.725-1.62-1.62-1.62H1.619  C0.725,25.105,0,25.831,0,26.725v9.522c0,0.895,0.725,1.62,1.619,1.62h16.108C18.622,37.867,19.347,37.141,19.347,36.247z   M41.16,36.247v-9.522c0-0.895-0.725-1.62-1.62-1.62H23.432c-0.894,0-1.619,0.725-1.619,1.62v9.522c0,0.895,0.725,1.62,1.619,1.62  H39.54C40.434,37.867,41.16,37.141,41.16,36.247z M62.972,36.247v-9.522c0-0.895-0.725-1.62-1.619-1.62H45.245  c-0.895,0-1.62,0.725-1.62,1.62v9.522c0,0.895,0.725,1.62,1.62,1.62h16.108C62.247,37.867,62.972,37.141,62.972,36.247z   M30.253,51.8v-9.522c0-0.894-0.725-1.62-1.62-1.62H12.526c-0.894,0-1.62,0.725-1.62,1.62V51.8c0,0.894,0.725,1.619,1.62,1.619  h16.108C29.528,53.42,30.253,52.695,30.253,51.8z M52.066,51.8v-9.522c0-0.894-0.725-1.62-1.619-1.62H34.339  c-0.895,0-1.62,0.725-1.62,1.62V51.8c0,0.894,0.725,1.619,1.62,1.619h16.108C51.341,53.42,52.066,52.695,52.066,51.8z" fill="#FFFFFF"/>
<g>
</g>
<g>
</g>
<g>
</g>
<g>
</g>
<g>
</g>
<g>
</g>
<g>
</g>
<g>
</g>
<g>
</g>
<g>
</g>
<g>
</g>
<g>
</g>
<g>
</g>
<g>
</g>
<g>
</g>
</svg>
