<?xml version="1.0" encoding="iso-8859-1"?>
<!-- Generator: Adobe Illustrator 18.1.1, SVG Export Plug-In . SVG Version: 6.00 Build 0)  -->
<svg xmlns="http://www.w3.org/2000/svg" xmlns:xlink="http://www.w3.org/1999/xlink" version="1.1" id="Capa_1" x="0px" y="0px" viewBox="0 0 470.333 470.333" style="enable-background:new 0 0 470.333 470.333;" xml:space="preserve" width="512px" height="512px">
<g>
	<g>
		<path d="M333.483,0h-194.65c-9.35,0-17,7.65-17,17v73.667H48.167c-9.35,0-17,7.65-17,17v345.667c0,9.35,7.65,17,17,17h286.167    c9.35,0,17-7.65,17-17v-76.5h70.833c9.35,0,17-7.65,17-17V106.25c0-4.533-1.7-8.783-4.817-11.9L345.667,5.1    C342.55,1.7,338.017,0,333.483,0z M317.333,436.333H65.167V124.667h56.667v235.167c0,9.35,7.65,17,17,17h178.5V436.333z     M155.833,342.833V34h147.333v96.333c0,9.35,7.65,17,17,17h85v195.5H155.833z M405.167,113.333h-68V44.767L405.167,113.333    L405.167,113.333z" fill="#FFFFFF"/>
	</g>
</g>
<g>
</g>
<g>
</g>
<g>
</g>
<g>
</g>
<g>
</g>
<g>
</g>
<g>
</g>
<g>
</g>
<g>
</g>
<g>
</g>
<g>
</g>
<g>
</g>
<g>
</g>
<g>
</g>
<g>
</g>
</svg>
