<?xml version="1.0" encoding="iso-8859-1"?>
<!-- Generator: Adobe Illustrator 16.0.0, SVG Export Plug-In . SVG Version: 6.00 Build 0)  -->
<!DOCTYPE svg PUBLIC "-//W3C//DTD SVG 1.1//EN" "http://www.w3.org/Graphics/SVG/1.1/DTD/svg11.dtd">
<svg xmlns="http://www.w3.org/2000/svg" xmlns:xlink="http://www.w3.org/1999/xlink" version="1.1" id="Capa_1" x="0px" y="0px" width="512px" height="512px" viewBox="0 0 47 47" style="enable-background:new 0 0 47 47;" xml:space="preserve">
<g>
	<g id="Layer_1_166_">
		<path d="M44.463,8.783L24.402,0.187c-0.577-0.249-1.229-0.249-1.806,0L2.537,8.783c-0.844,0.361-1.39,1.19-1.39,2.107v25.219    c0,0.917,0.546,1.747,1.39,2.107l20.061,8.597C22.887,46.938,23.193,47,23.5,47s0.613-0.062,0.903-0.188l20.061-8.597    c0.845-0.36,1.391-1.19,1.391-2.107V10.891C45.854,9.974,45.307,9.145,44.463,8.783z M27.852,20.117l13.416-5.75v16.866    L27.852,20.117z M5.731,14.367l13.416,5.75L5.731,31.232V14.367z M21.208,24.365v16.864l-13.417-5.75L21.208,24.365z M23.5,4.787    l14.241,6.104L23.5,16.994L9.258,10.89L23.5,4.787z M25.791,24.365l13.418,11.114l-13.418,5.75V24.365z" fill="#FFFFFF"/>
	</g>
</g>
<g>
</g>
<g>
</g>
<g>
</g>
<g>
</g>
<g>
</g>
<g>
</g>
<g>
</g>
<g>
</g>
<g>
</g>
<g>
</g>
<g>
</g>
<g>
</g>
<g>
</g>
<g>
</g>
<g>
</g>
</svg>
