<?xml version="1.0" encoding="iso-8859-1"?>
<!-- Generator: Adobe Illustrator 16.0.0, SVG Export Plug-In . SVG Version: 6.00 Build 0)  -->
<!DOCTYPE svg PUBLIC "-//W3C//DTD SVG 1.1//EN" "http://www.w3.org/Graphics/SVG/1.1/DTD/svg11.dtd">
<svg xmlns="http://www.w3.org/2000/svg" xmlns:xlink="http://www.w3.org/1999/xlink" version="1.1" id="Capa_1" x="0px" y="0px" width="512px" height="512px" viewBox="0 0 72.41 72.41" style="enable-background:new 0 0 72.41 72.41;" xml:space="preserve">
<g>
	<g>
		<path d="M57.024,31.059l-4.069,4.07c-0.071-5.597-0.728-10.841-1.861-15.478c0.34,0.074,0.7,0.141,1.033,0.219    c0.091,0.026,0.183,0.035,0.273,0.035c0.531,0,1.009-0.354,1.134-0.89c0.153-0.63-0.23-1.259-0.855-1.411    c-0.739-0.18-1.508-0.332-2.271-0.483C47.364,6.783,41.898,0,35.519,0c-6.448,0-11.958,6.917-14.98,17.418    c-1.074,0.245-2.128,0.508-3.145,0.803c-0.62,0.18-0.979,0.825-0.801,1.446c0.147,0.512,0.62,0.844,1.122,0.844    c0.107,0,0.22-0.015,0.325-0.05c0.589-0.166,1.212-0.311,1.817-0.462c-1.147,4.854-1.803,10.333-1.803,16.206    c0,20.302,7.669,36.205,17.465,36.205c5.403,0,10.399-4.952,13.693-13.581c0.232-0.607-0.068-1.277-0.671-1.508    s-1.282,0.065-1.51,0.673c-2.932,7.674-7.129,12.08-11.515,12.08c-8.199,0-15.127-15.511-15.127-33.869    c0-6.068,0.767-11.812,2.079-16.796c0.754-0.147,1.504-0.312,2.28-0.439c0.633-0.103,1.066-0.708,0.959-1.341    c-0.105-0.638-0.722-1.072-1.338-0.963c-0.401,0.066-0.78,0.155-1.172,0.229C25.965,8.171,30.497,2.34,35.516,2.34    c4.97,0,9.464,5.723,12.236,14.307c-0.698-0.112-1.387-0.236-2.094-0.328c-0.635-0.09-1.223,0.37-1.31,1.012    c-0.082,0.642,0.369,1.224,1.013,1.308c1.059,0.138,2.094,0.301,3.12,0.484c1.241,4.623,1.998,9.903,2.122,15.507l-3.555-3.562    c-0.453-0.455-1.197-0.455-1.651,0c-0.454,0.454-0.454,1.196,0,1.651l6.634,6.643l6.645-6.643c0.454-0.455,0.454-1.195,0-1.651    C58.218,30.608,57.479,30.604,57.024,31.059z" fill="#FFFFFF"/>
		<path d="M41.349,43.066c-0.456-0.451-1.197-0.451-1.651,0L33.054,49.7l6.644,6.646c0.229,0.229,0.531,0.343,0.828,0.343    c0.301,0,0.598-0.116,0.825-0.343c0.452-0.456,0.452-1.199,0-1.651l-4.069-4.069c0.988-0.014,1.985-0.024,2.952-0.073    c0.639-0.038,1.134-0.584,1.104-1.227c-0.031-0.644-0.583-1.15-1.227-1.104c-0.758,0.039-1.542,0.044-2.313,0.055l3.559-3.554    C41.803,44.265,41.803,43.522,41.349,43.066z" fill="#FFFFFF"/>
		<path d="M12.218,21.292c-0.283-0.589-0.979-0.828-1.556-0.557c-2.44,1.157-4.518,2.479-6.171,3.92    c-0.486,0.424-0.535,1.16-0.112,1.646c0.234,0.265,0.553,0.403,0.88,0.403c0.274,0,0.546-0.096,0.769-0.288    c1.491-1.306,3.384-2.504,5.629-3.564C12.247,22.571,12.499,21.873,12.218,21.292z" fill="#FFFFFF"/>
		<path d="M2.333,33.185c0-0.546,0.067-1.105,0.21-1.649c0.16-0.629-0.217-1.262-0.838-1.42c-0.633-0.154-1.264,0.219-1.42,0.841    C0.096,31.688,0,32.442,0,33.183c-0.002,1.844,0.565,3.647,1.691,5.372c0.224,0.342,0.598,0.534,0.976,0.534    c0.219,0,0.439-0.06,0.635-0.192c0.54-0.347,0.693-1.076,0.341-1.61C2.772,35.945,2.331,34.567,2.333,33.185z" fill="#FFFFFF"/>
		<path d="M58.642,21.932c2.29,0.922,4.305,1.971,5.972,3.12c0.203,0.145,0.438,0.21,0.662,0.21c0.369,0,0.731-0.177,0.958-0.506    c0.369-0.533,0.239-1.259-0.297-1.624c-1.807-1.249-3.974-2.385-6.424-3.364c-0.602-0.24-1.277,0.049-1.515,0.646    C57.761,21.011,58.053,21.691,58.642,21.932z" fill="#FFFFFF"/>
		<path d="M14.414,44.704c-2.289-0.876-4.326-1.884-6.047-2.997c-0.535-0.34-1.264-0.196-1.611,0.347    c-0.348,0.538-0.196,1.264,0.343,1.615c1.857,1.202,4.039,2.283,6.484,3.216c0.138,0.049,0.274,0.078,0.417,0.078    c0.469,0,0.912-0.287,1.09-0.753C15.323,45.607,15.022,44.933,14.414,44.704z" fill="#FFFFFF"/>
		<path d="M71.135,28.504c-0.316-0.566-1.024-0.762-1.595-0.446c-0.559,0.314-0.762,1.023-0.444,1.587    c0.646,1.159,0.977,2.353,0.977,3.543c0,0.75-0.135,1.509-0.388,2.242c-0.215,0.614,0.106,1.275,0.718,1.49    c0.128,0.048,0.256,0.063,0.389,0.063c0.483,0,0.931-0.301,1.099-0.782c0.343-0.99,0.521-2,0.521-3.016    C72.408,31.587,71.977,30.02,71.135,28.504z" fill="#FFFFFF"/>
		<path d="M38.529,18.098c0.632,0,1.143-0.498,1.168-1.125c0.021-0.647-0.485-1.19-1.125-1.21c-0.786-0.028-1.573-0.038-2.367-0.038    c-1.726,0.049-3.203,0.049-4.756,0.145c-0.642,0.044-1.13,0.595-1.092,1.239c0.04,0.618,0.548,1.095,1.166,1.095    c0.023,0,0.049,0,0.072-0.002c1.475-0.091,2.976-0.145,4.506-0.145c0.811,0.009,1.606,0.014,2.387,0.04    C38.5,18.098,38.518,18.098,38.529,18.098z" fill="#FFFFFF"/>
		<path d="M65.854,40.394c-1.556,1.259-3.485,2.411-5.744,3.424c-0.588,0.265-0.849,0.956-0.588,1.544    c0.195,0.434,0.625,0.689,1.067,0.689c0.157,0,0.326-0.032,0.479-0.104c2.437-1.095,4.54-2.354,6.257-3.738    c0.502-0.406,0.577-1.141,0.172-1.643C67.1,40.064,66.358,39.985,65.854,40.394z" fill="#FFFFFF"/>
		<path d="M53.678,46.096c-2.107,0.584-4.375,1.059-6.72,1.417c-0.634,0.098-1.077,0.695-0.977,1.332    c0.087,0.577,0.584,0.99,1.149,0.99c0.06,0,0.119-0.005,0.181-0.014c2.434-0.374,4.788-0.869,6.987-1.474    c0.62-0.172,0.987-0.819,0.816-1.438C54.946,46.292,54.316,45.937,53.678,46.096z" fill="#FFFFFF"/>
	</g>
</g>
<g>
</g>
<g>
</g>
<g>
</g>
<g>
</g>
<g>
</g>
<g>
</g>
<g>
</g>
<g>
</g>
<g>
</g>
<g>
</g>
<g>
</g>
<g>
</g>
<g>
</g>
<g>
</g>
<g>
</g>
</svg>
