<?xml version="1.0" encoding="iso-8859-1"?>
<!-- Generator: Adobe Illustrator 16.0.0, SVG Export Plug-In . SVG Version: 6.00 Build 0)  -->
<!DOCTYPE svg PUBLIC "-//W3C//DTD SVG 1.1//EN" "http://www.w3.org/Graphics/SVG/1.1/DTD/svg11.dtd">
<svg xmlns="http://www.w3.org/2000/svg" xmlns:xlink="http://www.w3.org/1999/xlink" version="1.1" id="Capa_1" x="0px" y="0px" width="512px" height="512px" viewBox="0 0 940 940" style="enable-background:new 0 0 940 940;" xml:space="preserve">
<g>
	<path d="M900.199,0h-46.514c-11.046,0-20,8.954-20,20v24.89c0,11.045-8.954,20-20,20h-43.37c-11.046,0-20-8.955-20-20V20   c0-11.046-8.953-20-20-20H208.121c-11.046,0-20,8.954-20,20v24.89c0,11.045-8.954,20-20,20h-43.37c-11.046,0-20-8.955-20-20V20   c0-11.046-8.954-20-20-20h-44.95c-11.046,0-20,8.954-20,20v900c0,11.046,8.954,20,20,20h44.95c11.046,0,20-8.954,20-20v-18.285   c0-11.046,8.954-20,20-20h43.37c11.046,0,20,8.954,20,20V920c0,11.046,8.954,20,20,20h522.194c11.047,0,20-8.954,20-20v-18.285   c0-11.046,8.954-20,20-20h43.37c11.046,0,20,8.954,20,20V920c0,11.046,8.954,20,20,20h46.514c11.046,0,20-8.954,20-20V20   C920.199,8.955,911.245,0,900.199,0z M188.121,765.369c0,11.046-8.954,20-20,20h-43.37c-11.046,0-20-8.954-20-20v-43.37   c0-11.045,8.954-20,20-20h43.37c11.046,0,20,8.955,20,20V765.369z M188.121,585.653c0,11.045-8.954,20-20,20h-43.37   c-11.046,0-20-8.955-20-20v-43.371c0-11.045,8.954-20,20-20h43.37c11.046,0,20,8.955,20,20V585.653z M188.121,405.936   c0,11.047-8.954,20-20,20h-43.37c-11.046,0-20-8.953-20-20v-43.37c0-11.046,8.954-20,20-20h43.37c11.046,0,20,8.954,20,20V405.936z    M188.121,226.22c0,11.046-8.954,20-20,20h-43.37c-11.046,0-20-8.954-20-20v-43.37c0-11.045,8.954-20,20-20h43.37   c11.046,0,20,8.955,20,20V226.22z M663.836,834.267c0,11.047-8.954,20-20,20H296.164c-11.046,0-20-8.953-20-20V673.545   c0-11.046,8.954-20,20-20h347.672c11.046,0,20,8.954,20,20V834.267L663.836,834.267z M663.836,550.361c0,11.046-8.954,20-20,20   H296.164c-11.046,0-20-8.954-20-20V389.639c0-11.045,8.954-20,20-20h347.672c11.046,0,20,8.955,20,20V550.361L663.836,550.361z    M663.836,266.454c0,11.046-8.954,20-20,20H296.164c-11.046,0-20-8.954-20-20V105.732c0-11.045,8.954-20,20-20h347.672   c11.046,0,20,8.955,20,20V266.454L663.836,266.454z M833.686,765.369c0,11.046-8.954,20-20,20h-43.37c-11.046,0-20-8.954-20-20   v-43.37c0-11.045,8.954-20,20-20h43.37c11.046,0,20,8.955,20,20V765.369z M833.686,585.653c0,11.045-8.954,20-20,20h-43.37   c-11.046,0-20-8.955-20-20v-43.371c0-11.045,8.954-20,20-20h43.37c11.046,0,20,8.955,20,20V585.653z M833.686,405.936   c0,11.047-8.954,20-20,20h-43.37c-11.046,0-20-8.953-20-20v-43.37c0-11.046,8.954-20,20-20h43.37c11.046,0,20,8.954,20,20V405.936z    M833.686,226.22c0,11.046-8.954,20-20,20h-43.37c-11.046,0-20-8.954-20-20v-43.37c0-11.045,8.954-20,20-20h43.37   c11.046,0,20,8.955,20,20V226.22z" fill="#FFFFFF"/>
</g>
<g>
</g>
<g>
</g>
<g>
</g>
<g>
</g>
<g>
</g>
<g>
</g>
<g>
</g>
<g>
</g>
<g>
</g>
<g>
</g>
<g>
</g>
<g>
</g>
<g>
</g>
<g>
</g>
<g>
</g>
</svg>
