<?xml version="1.0" encoding="UTF-8" standalone="no"?>
<!-- Generator: Adobe Illustrator 16.0.0, SVG Export Plug-In . SVG Version: 6.00 Build 0)  -->

<svg
   xmlns:dc="http://purl.org/dc/elements/1.1/"
   xmlns:cc="http://creativecommons.org/ns#"
   xmlns:rdf="http://www.w3.org/1999/02/22-rdf-syntax-ns#"
   xmlns:svg="http://www.w3.org/2000/svg"
   xmlns="http://www.w3.org/2000/svg"
   xmlns:sodipodi="http://sodipodi.sourceforge.net/DTD/sodipodi-0.dtd"
   xmlns:inkscape="http://www.inkscape.org/namespaces/inkscape"
   version="1.1"
   id="Capa_1"
   x="0px"
   y="0px"
   width="512px"
   height="512px"
   viewBox="0 0 592.813 592.814"
   style="enable-background:new 0 0 592.813 592.814;"
   xml:space="preserve"
   inkscape:version="0.91 r13725"
   sodipodi:docname="slope_terrain.svg"><metadata
     id="metadata41"><rdf:RDF><cc:Work
         rdf:about=""><dc:format>image/svg+xml</dc:format><dc:type
           rdf:resource="http://purl.org/dc/dcmitype/StillImage" /><dc:title></dc:title></cc:Work></rdf:RDF></metadata><defs
     id="defs39" /><sodipodi:namedview
     pagecolor="#ffffff"
     bordercolor="#666666"
     borderopacity="1"
     objecttolerance="10"
     gridtolerance="10"
     guidetolerance="10"
     inkscape:pageopacity="0"
     inkscape:pageshadow="2"
     inkscape:window-width="1920"
     inkscape:window-height="1018"
     id="namedview37"
     showgrid="false"
     inkscape:zoom="0.4609375"
     inkscape:cx="234.5857"
     inkscape:cy="-31.708932"
     inkscape:window-x="1912"
     inkscape:window-y="-8"
     inkscape:window-maximized="1"
     inkscape:current-layer="g4179" /><g
     id="g7" /><g
     id="g9" /><g
     id="g11" /><g
     id="g13" /><g
     id="g15" /><g
     id="g17" /><g
     id="g19" /><g
     id="g21" /><g
     id="g23" /><g
     id="g25" /><g
     id="g27" /><g
     id="g29" /><g
     id="g31" /><g
     id="g33" /><g
     id="g35" /><g
     id="g4179"
     transform="matrix(21.089071,0,0,21.089071,-8020.5226,-11675.749)"><path
       style="color:#000000;font-style:normal;font-variant:normal;font-weight:normal;font-stretch:normal;font-size:medium;line-height:normal;font-family:sans-serif;text-indent:0;text-align:start;text-decoration:none;text-decoration-line:none;text-decoration-style:solid;text-decoration-color:#000000;letter-spacing:normal;word-spacing:normal;text-transform:none;direction:ltr;block-progression:tb;writing-mode:lr-tb;baseline-shift:baseline;text-anchor:start;white-space:normal;clip-rule:nonzero;display:inline;overflow:visible;visibility:visible;opacity:1;isolation:auto;mix-blend-mode:normal;color-interpolation:sRGB;color-interpolation-filters:linearRGB;solid-color:#000000;solid-opacity:1;fill:#f5f5f5;fill-opacity:1;fill-rule:evenodd;stroke:none;stroke-width:1px;stroke-linecap:butt;stroke-linejoin:miter;stroke-miterlimit:4;stroke-dasharray:none;stroke-dashoffset:0;stroke-opacity:1;color-rendering:auto;image-rendering:auto;shape-rendering:auto;text-rendering:auto;enable-background:accumulate"
       d="M 498.73438 71.664062 L 477.64648 71.875 L 477.81055 92.962891 L 498.89844 92.751953 L 498.73438 71.664062 z M 456.55664 71.958984 L 435.4668 72.169922 L 435.63086 93.259766 L 456.7207 93.046875 L 456.55664 71.958984 z M 414.37891 72.294922 L 393.28906 72.505859 L 393.45312 93.595703 L 414.54297 93.384766 L 414.37891 72.294922 z M 372.20117 72.632812 L 351.11133 72.884766 L 351.27539 93.974609 L 372.36523 93.720703 L 372.20117 72.632812 z M 330.02148 72.96875 L 308.93359 73.181641 L 309.09766 94.269531 L 330.18555 94.058594 L 330.02148 72.96875 z M 287.84375 73.306641 L 266.75586 73.517578 L 266.91992 94.607422 L 288.00781 94.394531 L 287.84375 73.306641 z M 245.66602 73.642578 L 224.57617 73.855469 L 224.74023 94.943359 L 245.83008 94.732422 L 245.66602 73.642578 z M 203.48828 73.980469 L 182.39844 74.191406 L 182.5625 95.28125 L 203.65234 95.070312 L 203.48828 73.980469 z M 161.31055 74.275391 L 140.2207 74.486328 L 140.38477 95.576172 L 161.47461 95.365234 L 161.31055 74.275391 z M 119.13281 74.654297 L 98.042969 74.865234 L 98.207031 95.955078 L 119.29492 95.744141 L 119.13281 74.654297 z M 76.953125 74.990234 L 55.865234 75.203125 L 56.029297 96.291016 L 77.117188 96.080078 L 76.953125 74.990234 z M 34.775391 75.287109 L 13.685547 75.498047 L 13.849609 96.585938 L 34.939453 96.375 L 34.775391 75.287109 z M 189.74023 101.67578 L 127.52344 207.78125 L 145.76953 218.32617 L 169.61914 177.05273 L 169.61914 336.08594 L 189.74023 336.08594 L 209.86133 336.08594 L 209.86133 177.05273 L 233.70898 218.32617 L 251.95703 207.78125 L 189.74023 101.67578 z M 470.89062 119.58398 L 470.89062 119.64648 C 459.58474 119.64648 444.07983 120.06938 427.23047 121.46094 C 393.53156 124.23003 354.49584 129.95199 330.02148 148.31641 C 300.32586 170.59687 291.0991 206.8796 282.36523 240.66211 C 273.63155 274.4448 265.26589 305.95654 243.85352 324.1543 C 221.2962 343.32433 188.39902 347.46823 152.9082 351.25586 C 117.41738 355.04568 79.383245 358.45617 50.056641 382.39648 C 37.960259 392.27038 30.149798 408.3147 23.902344 422.34961 C 18.493287 434.50318 15.356508 443.74698 14.46875 446.40625 L 25.671875 446.40625 L 37.123047 446.40625 L 40.417969 446.40625 L 38.443359 442.98438 C 39.516173 439.85263 40.257011 437.39219 43.138672 430.91797 C 43.971059 429.041 45.124653 427.2639 46.0625 425.35742 L 58.253906 446.40625 L 82.597656 446.40625 L 58.294922 404.34961 C 60.121255 401.94753 61.863926 399.96599 63.404297 398.70703 C 65.541545 396.95665 67.849924 395.47228 70.158203 393.9707 L 100.43359 446.40625 L 124.77539 446.40625 L 89.105469 384.62109 C 93.964094 382.82882 98.967692 381.21644 104.22266 379.92578 L 142.61133 446.40625 L 166.95312 446.40625 L 126.2168 375.8457 C 131.61037 375.04428 137.1811 374.30757 142.77539 373.66406 L 184.78906 446.40625 L 209.13281 446.40625 L 165.5957 371.02734 C 171.15484 370.41535 176.69981 369.84707 182.27734 369.04492 L 226.9668 446.40039 L 251.31055 446.40039 L 204.23047 364.84375 C 209.44336 363.64162 214.62336 362.39485 219.67578 360.72461 L 269.14453 446.40039 L 293.48828 446.40039 L 239.16016 352.36328 C 243.67126 349.95901 248.04707 347.20735 252.25781 344.08398 L 311.32422 446.40039 L 335.66602 446.40039 L 268.11523 329.41992 C 271.8169 325.05253 275.00717 320.38548 277.91797 315.53906 L 353.50195 446.40039 L 377.8457 446.40039 L 288.91602 292.39062 C 291.35325 286.00074 293.58572 279.49426 295.50586 272.9082 L 395.67969 446.40039 L 420.02344 446.40039 L 303.25 244.24023 C 305.11003 237.07424 307.03391 230.10376 309.05859 223.35742 L 437.85742 446.40039 L 462.20117 446.40039 L 318.49023 197.49023 C 321.06572 191.84057 323.92262 186.53795 327.22266 181.71484 L 478.30664 443.39258 L 478.30664 446.40039 L 480.03516 446.40039 L 488.84961 446.40039 L 499.39258 446.40039 L 499.39258 120.30078 L 489.30273 119.83789 C 489.30273 119.83789 482.19651 119.54209 470.89062 119.58398 z M 460.96484 140.98242 C 466.33073 140.98242 469.13058 140.98208 472.45703 141.19336 L 478.30469 151.32812 L 478.30469 182.13867 L 454.74414 141.31836 C 456.50545 141.31836 459.39132 141.04347 460.96484 141.02344 L 460.96484 140.98242 z M 431.01953 142.41602 L 478.30469 224.30078 L 478.30469 255.15234 L 414.25586 144.22852 C 419.19062 143.61652 424.16424 142.90058 428.96094 142.49805 C 429.82065 142.49805 430.18314 142.48129 431.01953 142.49805 L 431.01953 142.41602 z M 391.92969 147.77148 L 478.30469 297.33008 L 478.30469 328.22266 L 376.1543 151.31445 C 381.22512 149.96478 386.47746 148.83446 391.92969 147.77148 z M 355.68359 158.05859 L 355.68359 158.06836 L 478.30469 370.40039 L 478.30469 401.29297 L 342.25586 165.56445 C 342.40157 165.35317 342.52043 165.31122 342.66797 165.18555 C 346.1507 162.57273 350.66815 160.23081 355.68359 158.05859 z "
       transform="matrix(0.05490237,0,0,0.05490237,380.31652,553.6398)"
       id="path4383" /></g></svg>