<?xml version="1.0" encoding="iso-8859-1"?>
<!-- Generator: Adobe Illustrator 16.0.0, SVG Export Plug-In . SVG Version: 6.00 Build 0)  -->
<!DOCTYPE svg PUBLIC "-//W3C//DTD SVG 1.1//EN" "http://www.w3.org/Graphics/SVG/1.1/DTD/svg11.dtd">
<svg xmlns="http://www.w3.org/2000/svg" xmlns:xlink="http://www.w3.org/1999/xlink" version="1.1" id="Capa_1" x="0px" y="0px" width="512px" height="512px" viewBox="0 0 314.014 314.015" style="enable-background:new 0 0 314.014 314.015;" xml:space="preserve">
<g>
	<g id="_x34_28._Network">
		<g>
			<path d="M266.911,109.898c-20.498,0-37.894,13.125-44.354,31.408H116.406l51.734-51.732c6.147,2.936,13,4.631,20.27,4.631     c26.004,0,47.104-21.095,47.104-47.104C235.513,21.087,214.414,0,188.41,0c-26.005,0-47.104,21.087-47.104,47.102     c0,7.268,1.695,14.122,4.631,20.264l-61.278,61.288c-8.59-11.383-22.201-18.747-37.558-18.747     C21.093,109.906,0,130.991,0,157.007c0,26.004,21.093,47.103,47.101,47.103c15.365,0,28.968-7.361,37.558-18.755l61.278,61.286     c-2.936,6.151-4.631,13.004-4.631,20.27c0,26.004,21.099,47.104,47.104,47.104c26.004,0,47.104-21.1,47.104-47.104     c0-26.017-21.1-47.1-47.104-47.1c-7.27,0-14.122,1.691-20.27,4.629l-51.734-51.732h106.151     c6.468,18.286,23.855,31.402,44.354,31.402c26.009,0,47.104-21.099,47.104-47.103     C314.014,130.991,292.919,109.898,266.911,109.898z M188.41,31.402c8.664,0,15.701,7.025,15.701,15.699     c0,8.668-7.037,15.701-15.701,15.701s-15.701-7.033-15.701-15.701C172.708,38.428,179.746,31.402,188.41,31.402z M47.102,172.708     c-8.666,0-15.699-7.037-15.699-15.701c0-8.674,7.033-15.701,15.699-15.701c8.668,0,15.701,7.027,15.701,15.701     C62.803,165.671,55.77,172.708,47.102,172.708z M188.41,251.214c8.664,0,15.701,7.021,15.701,15.697     c0,8.664-7.037,15.701-15.701,15.701s-15.701-7.037-15.701-15.701C172.708,258.234,179.746,251.214,188.41,251.214z      M266.911,172.708c-8.66,0-15.697-7.037-15.697-15.701c0-8.674,7.037-15.701,15.697-15.701c8.664,0,15.701,7.027,15.701,15.701     C282.612,165.671,275.575,172.708,266.911,172.708z" fill="#FFFFFF"/>
		</g>
	</g>
</g>
<g>
</g>
<g>
</g>
<g>
</g>
<g>
</g>
<g>
</g>
<g>
</g>
<g>
</g>
<g>
</g>
<g>
</g>
<g>
</g>
<g>
</g>
<g>
</g>
<g>
</g>
<g>
</g>
<g>
</g>
</svg>
