<?xml version="1.0" encoding="iso-8859-1"?>
<!-- Generator: Adobe Illustrator 18.0.0, SVG Export Plug-In . SVG Version: 6.00 Build 0)  -->
<!DOCTYPE svg PUBLIC "-//W3C//DTD SVG 1.1//EN" "http://www.w3.org/Graphics/SVG/1.1/DTD/svg11.dtd">
<svg xmlns="http://www.w3.org/2000/svg" xmlns:xlink="http://www.w3.org/1999/xlink" version="1.1" id="Capa_1" x="0px" y="0px" viewBox="0 0 297 297" style="enable-background:new 0 0 297 297;" xml:space="preserve" width="512px" height="512px">
<g>
	<path d="M263.999,8.144c-18.223,0-32.998,14.786-32.998,33.024c0,18.242,14.775,33.026,32.998,33.026   C282.225,74.194,297,59.41,297,41.168C297,22.93,282.225,8.144,263.999,8.144z" fill="#FFFFFF"/>
	<ellipse cx="33" cy="255.832" rx="33" ry="33.025" fill="#FFFFFF"/>
	<path d="M178.701,95.883l48.232-24.133c-4.556-5.519-7.896-12.072-9.635-19.244l-48.232,24.133   C173.622,82.157,176.962,88.71,178.701,95.883z" fill="#FFFFFF"/>
	<path d="M159.23,251.188c-4.338-5.914-7.353-12.852-8.618-20.379l-71.381,11.905c1.184,4.173,1.832,8.569,1.832,13.116   c0,2.91-0.274,5.755-0.771,8.523L159.23,251.188z" fill="#FFFFFF"/>
	<path d="M185.499,176.379l-21.94-32.938c-5.424,4.737-11.912,8.278-19.059,10.205l21.94,32.936   C171.863,181.847,178.352,178.307,185.499,176.379z" fill="#FFFFFF"/>
	<path d="M197.998,189.783c-18.225,0-33,14.782-33,33.023c0,18.236,14.775,33.023,33,33.023c18.226,0,33.003-14.787,33.003-33.023   C231.001,204.565,216.224,189.783,197.998,189.783z" fill="#FFFFFF"/>
	<ellipse cx="131.999" cy="107.219" rx="32.999" ry="33.024" fill="#FFFFFF"/>
</g>
<g>
</g>
<g>
</g>
<g>
</g>
<g>
</g>
<g>
</g>
<g>
</g>
<g>
</g>
<g>
</g>
<g>
</g>
<g>
</g>
<g>
</g>
<g>
</g>
<g>
</g>
<g>
</g>
<g>
</g>
</svg>
