<?xml version="1.0" encoding="UTF-8" standalone="no"?>
<!-- Generator: Adobe Illustrator 16.0.0, SVG Export Plug-In . SVG Version: 6.00 Build 0)  -->

<svg
   xmlns:dc="http://purl.org/dc/elements/1.1/"
   xmlns:cc="http://creativecommons.org/ns#"
   xmlns:rdf="http://www.w3.org/1999/02/22-rdf-syntax-ns#"
   xmlns:svg="http://www.w3.org/2000/svg"
   xmlns="http://www.w3.org/2000/svg"
   xmlns:sodipodi="http://sodipodi.sourceforge.net/DTD/sodipodi-0.dtd"
   xmlns:inkscape="http://www.inkscape.org/namespaces/inkscape"
   version="1.1"
   id="Capa_1"
   x="0px"
   y="0px"
   width="512px"
   height="512px"
   viewBox="0 0 592.813 592.814"
   style="enable-background:new 0 0 592.813 592.814;"
   xml:space="preserve"
   inkscape:version="0.91 r13725"
   sodipodi:docname="paint_terrain.svg"><metadata
     id="metadata41"><rdf:RDF><cc:Work
         rdf:about=""><dc:format>image/svg+xml</dc:format><dc:type
           rdf:resource="http://purl.org/dc/dcmitype/StillImage" /><dc:title></dc:title></cc:Work></rdf:RDF></metadata><defs
     id="defs39" /><sodipodi:namedview
     pagecolor="#ffffff"
     bordercolor="#666666"
     borderopacity="1"
     objecttolerance="10"
     gridtolerance="10"
     guidetolerance="10"
     inkscape:pageopacity="0"
     inkscape:pageshadow="2"
     inkscape:window-width="1920"
     inkscape:window-height="1018"
     id="namedview37"
     showgrid="false"
     inkscape:zoom="0.65186406"
     inkscape:cx="70.885679"
     inkscape:cy="196.37843"
     inkscape:window-x="1912"
     inkscape:window-y="-8"
     inkscape:window-maximized="1"
     inkscape:current-layer="g4177" /><g
     id="g7" /><g
     id="g9" /><g
     id="g11" /><g
     id="g13" /><g
     id="g15" /><g
     id="g17" /><g
     id="g19" /><g
     id="g21" /><g
     id="g23" /><g
     id="g25" /><g
     id="g27" /><g
     id="g29" /><g
     id="g31" /><g
     id="g33" /><g
     id="g35" /><g
     id="g4177"
     transform="matrix(21.088084,0,0,21.088084,-8073.105,-11092.5)"><path
       id="path4857"
       d="m 396.23971,530.452 c -0.3241,0.0127 -0.64649,0.0417 -0.96562,0.0857 -0.63531,0.088 -1.25708,0.2384 -1.85661,0.44554 -0.60003,0.20702 -1.17791,0.47078 -1.72546,0.78698 -0.54763,0.31609 -1.0653,0.68533 -1.54454,1.10122 -0.47932,0.41613 -0.92126,0.8795 -1.31614,1.38628 -0.39491,0.50668 -0.74173,1.05607 -1.03572,1.64402 -0.29369,0.58749 -0.53361,1.21376 -0.71008,1.87246 -0.17629,0.65812 -0.28172,1.32063 -0.32113,1.97643 -0.0394,0.65615 -0.014,1.30628 0.0747,1.94263 0.0886,0.63611 0.24072,1.2588 0.44776,1.85879 0.20708,0.59988 0.47074,1.17799 0.78697,1.72553 0.31597,0.54743 0.68235,1.06498 1.09904,1.54456 0.41602,0.47888 0.87959,0.91886 1.38625,1.3138 0.50762,0.3954 1.05893,0.74345 1.64404,1.03801 0.58938,0.29663 1.21516,0.53399 1.87244,0.7101 0.657,0.17599 1.31949,0.28367 1.97873,0.32107 0.65324,0.0382 1.3028,0.0127 1.94028,-0.0764 0.63624,-0.0892 1.25887,-0.2384 1.85888,-0.44542 0.59975,-0.20737 1.17779,-0.47078 1.72546,-0.78699 0.54757,-0.31609 1.06527,-0.68532 1.54454,-1.10133 0.4793,-0.41602 0.91902,-0.87938 1.31388,-1.38629 0.39499,-0.50667 0.74406,-1.05618 1.03798,-1.64401 0.2938,-0.58772 0.5337,-1.21435 0.71008,-1.87246 0.17645,-0.65847 0.28175,-1.31855 0.32113,-1.97424 0.0395,-0.65614 0.0117,-1.30627 -0.0769,-1.9425 -0.0886,-0.63635 -0.23851,-1.25892 -0.44551,-1.85892 -0.20709,-0.59987 -0.47067,-1.17786 -0.78696,-1.72541 -0.31608,-0.54754 -0.68494,-1.06509 -1.1013,-1.54455 -0.41608,-0.47889 -0.8797,-0.92107 -1.38625,-1.31612 -0.50773,-0.39575 -1.0567,-0.74125 -1.64178,-1.03569 -0.58951,-0.29664 -1.21549,-0.53388 -1.87245,-0.7101 l -0.002,0 c -0.65691,-0.17599 -1.31715,-0.28367 -1.97648,-0.32119 -0.32702,-0.0185 -0.65283,-0.0232 -0.97693,-0.0116 z m 0.052,1.3365 c 0.27993,-0.0116 0.56362,-0.0116 0.84803,0.0116 0.56429,0.0324 1.13496,0.12482 1.70736,0.27812 0.57229,0.15353 1.11369,0.35858 1.61917,0.61284 0.50968,0.25646 0.9858,0.55739 1.42242,0.89779 0.43775,0.34133 0.83834,0.72284 1.19855,1.13746 0.35975,0.41428 0.67836,0.86236 0.95205,1.3365 0.27352,0.47355 0.50148,0.97351 0.68069,1.49257 0.17909,0.51906 0.30791,1.05583 0.38443,1.60558 0.0765,0.54962 0.0997,1.11106 0.0655,1.67794 -0.034,0.56664 -0.12516,1.13873 -0.27814,1.70966 -0.15301,0.57082 -0.35899,1.1113 -0.61285,1.61913 -0.25401,0.50806 -0.55443,0.98486 -0.89552,1.4224 -0.226,0.29016 -0.4754,0.55762 -0.73495,0.8142 0.0471,-0.28101 0.0821,-0.56132 0.10849,-0.84129 l -0.46132,0 0,1.18042 c -0.0171,0.015 -0.0325,0.0324 -0.0498,0.0475 -0.23247,0.20181 -0.47821,0.38787 -0.73043,0.56305 l -1.01085,0 0,0.5971 c -0.35218,0.179 -0.71275,0.34296 -1.08774,0.47263 -0.23063,0.0799 -0.466,0.14624 -0.70329,0.20575 l 0,-1.27548 -1.79104,0 0,1.5287 c -0.2623,0.0116 -0.52536,0.0116 -0.79149,-0.0116 -0.33059,-0.0185 -0.66495,-0.0637 -0.99954,-0.12435 l 0,-1.39531 -1.79104,0 0,0.86618 c -0.18108,-0.0753 -0.36278,-0.15029 -0.53595,-0.23747 -0.3679,-0.18526 -0.7118,-0.39981 -1.0425,-0.62871 l 1.57845,0 0,-1.79095 -1.79329,0 0,1.6395 c -0.0538,-0.0394 -0.11231,-0.0741 -0.16508,-0.11578 -0.43761,-0.34122 -0.83828,-0.72284 -1.19854,-1.13758 -0.10792,-0.12412 -0.20487,-0.25646 -0.30529,-0.3866 l 1.66891,0 0,-1.79106 -1.79103,0 0,1.63718 c -0.18839,-0.25611 -0.36578,-0.52068 -0.52465,-0.79601 -0.15704,-0.27186 -0.29426,-0.55345 -0.42062,-0.84117 l 0.94527,0 0,-1.79107 -1.50384,0 c -0.0308,-0.15561 -0.0662,-0.31053 -0.0882,-0.46811 -0.0604,-0.43419 -0.0782,-0.87695 -0.0702,-1.32295 l 1.66214,0 0,-1.79326 -1.43826,0 c 0.0212,-0.0903 0.0346,-0.18097 0.0588,-0.2714 0.14341,-0.53515 0.33978,-1.0402 0.57213,-1.51966 l 0.80733,0 0,-1.33198 c 0.0452,-0.0614 0.0844,-0.12771 0.13116,-0.18769 0.0735,-0.0949 0.15565,-0.18039 0.23292,-0.27128 l 1.42695,0 0,-0.55183 c -0.18161,0.015 -0.36532,0.0243 -0.545,0.0498 -0.18443,0.0255 -0.36276,0.0729 -0.54273,0.11578 0.18087,-0.18849 0.36888,-0.37004 0.56535,-0.54048 0.41455,-0.35985 0.86257,-0.67849 1.33649,-0.95209 0.47399,-0.27371 0.97376,-0.50169 1.49253,-0.68069 0.51866,-0.17912 1.05576,-0.31019 1.6056,-0.38672 l 0.002,0 c 0.27384,-0.0394 0.55,-0.0637 0.82994,-0.0741 z m -4.74443,3.02126 0,1.79095 1.7933,0 0,-1.79095 -1.7933,0 z m 1.7933,0 1.79103,0 0,-0.23979 -0.0136,0 c -0.59257,-0.15874 -1.18649,-0.25333 -1.77746,-0.3052 l 0,0.54499 z m 1.79103,0 0,1.79095 1.79103,0 0,-1.35907 c -0.33745,-0.16245 -0.68688,-0.30579 -1.04702,-0.43188 l -0.74401,0 z m 1.79103,1.79095 0,1.79106 1.79104,0 0,-1.79106 -1.79104,0 z m 1.79104,1.79106 0,1.79326 1.79103,0 0,-1.79326 -1.79103,0 z m 1.79103,1.79326 0,1.79107 1.79104,0 0,-0.59698 c -0.0176,-0.0533 -0.0291,-0.10884 -0.0475,-0.1628 -0.12157,-0.35221 -0.26714,-0.69505 -0.42515,-1.03129 l -1.3184,0 z m 1.79104,1.79107 0,1.79106 0.47489,0 c -0.0161,-0.20065 -0.0266,-0.40304 -0.0543,-0.60161 -0.0563,-0.40374 -0.14404,-0.79822 -0.2465,-1.18945 l -0.17412,0 z m 0,1.79106 -1.79104,0 0,1.79106 1.79104,0 0,-1.79106 z m -1.79104,1.79106 -1.79103,0 0,1.79095 1.79103,0 0,-1.79095 z m -1.79103,0 0,-1.79106 -1.79104,0 0,1.79106 1.79104,0 z m -1.79104,0 -1.79103,0 0,1.79095 1.79103,0 0,-1.79095 z m -1.79103,0 0,-1.79106 -1.79103,0 0,1.79106 1.79103,0 z m -1.79103,-1.79106 0,-1.79106 -1.7933,0 0,1.79106 1.7933,0 z m -1.7933,-1.79106 0,-1.79107 -1.79103,0 0,1.79107 1.79103,0 z m 0,-1.79107 1.7933,0 0,-1.79326 -1.7933,0 0,1.79326 z m 0,-1.79326 0,-1.79106 -1.79103,0 0,1.79106 1.79103,0 z m 1.7933,0 1.79103,0 0,-1.79106 -1.79103,0 0,1.79106 z m 1.79103,0 0,1.79326 1.79103,0 0,-1.79326 -1.79103,0 z m 1.79103,1.79326 0,1.79107 1.79104,0 0,-1.79107 -1.79104,0 z m 1.79104,1.79107 0,1.79106 1.79103,0 0,-1.79106 -1.79103,0 z m -1.79104,0 -1.79103,0 0,1.79106 1.79103,0 0,-1.79106 z m -1.79103,0 0,-1.79107 -1.79103,0 0,1.79107 1.79103,0 z"
       style="opacity:1;fill:#f5f5f5;fill-opacity:1;fill-rule:evenodd;stroke:none;stroke-width:0.1;stroke-linecap:square;stroke-linejoin:bevel;stroke-miterlimit:4;stroke-dasharray:none;stroke-dashoffset:0.9857378;stroke-opacity:1"
       inkscape:connector-curvature="0" /></g></svg>