<?xml version="1.0" encoding="iso-8859-1"?>
<!-- Generator: Adobe Illustrator 16.0.0, SVG Export Plug-In . SVG Version: 6.00 Build 0)  -->
<!DOCTYPE svg PUBLIC "-//W3C//DTD SVG 1.1//EN" "http://www.w3.org/Graphics/SVG/1.1/DTD/svg11.dtd">
<svg xmlns="http://www.w3.org/2000/svg" xmlns:xlink="http://www.w3.org/1999/xlink" version="1.1" id="Capa_1" x="0px" y="0px" width="512px" height="512px" viewBox="0 0 533.333 533.333" style="enable-background:new 0 0 533.333 533.333;" xml:space="preserve">
<g>
	<path d="M266.667,0C119.391,0,0,119.391,0,266.667c0,147.275,119.391,266.666,266.667,266.666   c147.275,0,266.667-119.391,266.667-266.666C533.333,119.391,413.942,0,266.667,0z M266.667,483.333   C147.005,483.333,50,386.328,50,266.667C50,147.005,147.005,50,266.667,50c119.661,0,216.667,97.005,216.667,216.667   C483.333,386.328,386.328,483.333,266.667,483.333z M166.667,166.667h66.667v200h-66.667V166.667z M300,166.667h66.667v200H300   V166.667z" fill="#FFFFFF"/>
</g>
<g>
</g>
<g>
</g>
<g>
</g>
<g>
</g>
<g>
</g>
<g>
</g>
<g>
</g>
<g>
</g>
<g>
</g>
<g>
</g>
<g>
</g>
<g>
</g>
<g>
</g>
<g>
</g>
<g>
</g>
</svg>
