<?xml version="1.0" encoding="iso-8859-1"?>
<!-- Generator: Adobe Illustrator 18.1.1, SVG Export Plug-In . SVG Version: 6.00 Build 0)  -->
<svg xmlns="http://www.w3.org/2000/svg" xmlns:xlink="http://www.w3.org/1999/xlink" version="1.1" id="Capa_1" x="0px" y="0px" viewBox="0 0 611.926 611.926" style="enable-background:new 0 0 611.926 611.926;" xml:space="preserve" width="512px" height="512px">
<g>
	<path d="M571.979,455.69c25.596-44.755,39.947-95.872,39.947-150.17s-14.351-106.229-39.947-150.17   c-0.814-1.627-1.627-2.367-2.367-3.181C516.867,61.918,418.628,1.184,305.963,1.184c-111.851,0-210.091,60.734-263.649,150.984   c-0.814,0.814-1.627,2.367-2.367,3.181C14.351,199.29,0,250.407,0,305.519l0,0l0,0l0,0c0,168.59,136.633,305.223,305.223,305.223   c111.851,0,210.091-60.734,263.649-150.984C570.352,458.057,571.165,457.243,571.979,455.69z M31.07,319.87h103.122   c1.627,39.947,9.617,79.08,22.341,115.846H63.027C44.681,400.504,33.511,361.371,31.07,319.87z M63.027,175.248h93.505   c-13.612,36.766-20.787,75.085-22.341,115.032H31.07C33.511,248.706,44.681,209.573,63.027,175.248z M581.596,290.28H480.102   c-1.627-39.947-9.617-78.266-22.341-115.032h91.878C567.985,209.573,579.155,248.706,581.596,290.28z M450.511,290.28H321.054   V175.248h104.675C440.155,211.2,448.958,249.52,450.511,290.28z M321.128,145.658V33.807   c38.319,31.144,69.537,68.723,91.064,111.037h-91.064V145.658z M291.538,35.434v109.484h-89.51   C223.628,103.344,254.032,66.578,291.538,35.434z M291.538,175.248V290.28h-127.83c1.627-39.947,10.357-79.08,24.782-115.032   H291.538z M163.708,319.87h127.83v115.846H188.49C174.139,398.95,165.335,359.817,163.708,319.87z M291.538,465.232v109.484   c-37.58-30.33-67.91-67.91-89.51-109.484H291.538z M321.128,576.27V465.232h91.064C389.851,507.62,359.447,545.126,321.128,576.27z    M321.128,435.716V319.87h129.457c-1.627,40.761-10.357,79.894-24.782,115.846L321.128,435.716L321.128,435.716z M480.102,319.87   h101.495c-2.367,41.574-13.612,81.521-32.771,115.846h-91.064C470.485,398.95,478.474,359.817,480.102,319.87z M531.219,145.658   h-86.256c-18.346-39.947-44.755-77.526-76.713-108.67C434.533,52.227,492.086,91.36,531.219,145.658z M246.783,36.248   c-32.771,31.957-58.293,68.723-77.526,109.484H81.447C120.58,90.546,178.873,50.599,246.783,36.248z M81.447,465.232h87.069   c19.16,40.761,44.755,77.526,77.526,109.484C178.873,559.551,120.58,519.605,81.447,465.232z M368.25,573.903   c31.957-31.957,58.293-68.723,76.713-108.67h85.516C492.086,518.791,434.533,558.738,368.25,573.903z" fill="#FFFFFF"/>
</g>
<g>
</g>
<g>
</g>
<g>
</g>
<g>
</g>
<g>
</g>
<g>
</g>
<g>
</g>
<g>
</g>
<g>
</g>
<g>
</g>
<g>
</g>
<g>
</g>
<g>
</g>
<g>
</g>
<g>
</g>
</svg>
