<?xml version="1.0" encoding="UTF-8" standalone="no"?>
<!-- Generator: Adobe Illustrator 16.0.0, SVG Export Plug-In . SVG Version: 6.00 Build 0)  -->

<svg
   xmlns:dc="http://purl.org/dc/elements/1.1/"
   xmlns:cc="http://creativecommons.org/ns#"
   xmlns:rdf="http://www.w3.org/1999/02/22-rdf-syntax-ns#"
   xmlns:svg="http://www.w3.org/2000/svg"
   xmlns="http://www.w3.org/2000/svg"
   xmlns:sodipodi="http://sodipodi.sourceforge.net/DTD/sodipodi-0.dtd"
   xmlns:inkscape="http://www.inkscape.org/namespaces/inkscape"
   version="1.1"
   id="Capa_1"
   x="0px"
   y="0px"
   width="512px"
   height="512px"
   viewBox="0 0 592.813 592.814"
   style="enable-background:new 0 0 592.813 592.814;"
   xml:space="preserve"
   inkscape:version="0.92.0 r15299"
   sodipodi:docname="raise_terrain.svg"><metadata
     id="metadata41"><rdf:RDF><cc:Work
         rdf:about=""><dc:format>image/svg+xml</dc:format><dc:type
           rdf:resource="http://purl.org/dc/dcmitype/StillImage" /><dc:title /></cc:Work></rdf:RDF></metadata><defs
     id="defs39" /><sodipodi:namedview
     pagecolor="#ffffff"
     bordercolor="#666666"
     borderopacity="1"
     objecttolerance="10"
     gridtolerance="10"
     guidetolerance="10"
     inkscape:pageopacity="0"
     inkscape:pageshadow="2"
     inkscape:window-width="1920"
     inkscape:window-height="1018"
     id="namedview37"
     showgrid="false"
     inkscape:zoom="0.64"
     inkscape:cx="-316.86817"
     inkscape:cy="270.19016"
     inkscape:window-x="1912"
     inkscape:window-y="-8"
     inkscape:window-maximized="1"
     inkscape:current-layer="g4181" /><g
     id="g7" /><g
     id="g9" /><g
     id="g11" /><g
     id="g13" /><g
     id="g15" /><g
     id="g17" /><g
     id="g19" /><g
     id="g21" /><g
     id="g23" /><g
     id="g25" /><g
     id="g27" /><g
     id="g29" /><g
     id="g31" /><g
     id="g33" /><g
     id="g35" /><g
     id="g4181"
     transform="matrix(21.091422,0,0,21.091422,-5477.5351,-6190.1019)"><path
       style="color:#000000;font-style:normal;font-variant:normal;font-weight:normal;font-stretch:normal;font-size:medium;line-height:normal;font-family:sans-serif;font-variant-ligatures:normal;font-variant-position:normal;font-variant-caps:normal;font-variant-numeric:normal;font-variant-alternates:normal;font-feature-settings:normal;text-indent:0;text-align:start;text-decoration:none;text-decoration-line:none;text-decoration-style:solid;text-decoration-color:#000000;letter-spacing:normal;word-spacing:normal;text-transform:none;writing-mode:lr-tb;direction:ltr;text-orientation:mixed;dominant-baseline:auto;baseline-shift:baseline;text-anchor:start;white-space:normal;shape-padding:0;clip-rule:nonzero;display:inline;overflow:visible;visibility:visible;opacity:1;isolation:auto;mix-blend-mode:normal;color-interpolation:sRGB;color-interpolation-filters:linearRGB;solid-color:#000000;solid-opacity:1;vector-effect:none;fill:#f5f5f5;fill-opacity:1;fill-rule:evenodd;stroke:none;stroke-width:21.09142303;stroke-linecap:square;stroke-linejoin:bevel;stroke-miterlimit:4;stroke-dasharray:none;stroke-dashoffset:0.9857378;stroke-opacity:1;color-rendering:auto;image-rendering:auto;shape-rendering:auto;text-rendering:auto;enable-background:accumulate"
       d="M 357.09766 80.199219 C 349.65104 80.133512 342.43539 80.768065 335.73047 81.816406 C 311.38618 85.622678 295.9968 93.642562 292.64648 95.300781 C 289.79583 94.665036 274.09161 91.090362 262.50977 90.283203 C 251.26273 89.499907 239.88607 89.793587 228.5332 91.208984 C 217.19327 92.615274 205.89834 95.12347 194.80469 98.822266 C 183.72087 102.51669 172.8616 107.38151 162.35742 113.44531 C 151.86053 119.50657 142.21166 126.50477 133.4668 134.25977 C 124.71957 142.01585 116.87532 150.54382 109.98633 159.66211 C 103.09915 168.77858 97.140591 178.50705 92.197266 188.6582 C 87.257766 198.80735 83.329046 209.38618 80.419922 220.25195 C 77.507701 231.11226 75.62147 242.24595 74.833984 253.51758 C 74.039759 264.77773 74.314545 276.15543 75.722656 287.49609 C 77.132589 298.85753 79.683178 310.11971 83.337891 321.1875 C 87.018835 332.32925 91.905747 343.22198 97.958984 353.70703 C 104.00621 364.17933 110.98474 373.85079 118.77344 382.59766 C 126.51787 391.32339 135.0227 399.18494 144.17578 406.07812 C 153.29207 412.96603 162.98411 418.88943 173.13672 423.83203 L 173.17383 423.83203 C 183.32644 428.77062 193.90126 432.73322 204.76758 435.64453 C 215.62369 438.55438 226.75866 440.4448 238.0332 441.23047 C 249.28024 442.01376 260.65762 441.75537 272.00977 440.3418 C 283.35153 438.93369 294.64699 436.38711 305.73828 432.69141 C 316.82465 428.9948 327.72431 424.13016 338.22266 418.06836 C 348.72647 412.00456 358.36774 405.01049 367.11133 397.25586 C 375.86311 389.49832 383.70603 381.00551 390.59375 371.88867 C 397.48402 362.77038 403.40488 353.04191 408.34766 342.89258 C 413.28752 332.7427 417.25176 322.1626 420.16016 311.29883 C 423.07201 300.43433 424.95137 289.26062 425.74414 277.99609 C 426.57298 266.20458 425.15767 249.20966 424.96094 246.75977 C 426.51113 243.8807 436.1276 226.61311 441.82617 200.36523 C 447.97577 172.04053 448.46959 135.18358 422.89844 107.50391 C 403.86667 86.902907 379.43751 80.396338 357.09766 80.199219 z M 356.70898 101.16797 C 374.67069 101.15815 392.94752 106.13849 407.42188 121.80664 C 426.52537 142.48529 426.63823 170.95511 421.22656 195.88086 C 415.81508 220.80661 405.14453 240.24609 405.14453 240.24609 L 403.86328 246.11719 C 403.86328 246.11719 405.31988 267.98151 404.71875 276.53711 C 404.02107 286.44416 402.33919 296.24557 399.77344 305.81836 C 397.2137 315.37985 393.73479 324.70267 389.38477 333.64062 C 385.03183 342.57876 379.82342 351.13381 373.76562 359.15039 C 367.70838 367.16788 360.82415 374.67327 353.12891 381.49414 C 345.44022 388.31337 336.92501 394.46558 327.65625 399.81641 C 318.39223 405.16522 308.83597 409.44427 299.08594 412.69531 C 289.32807 415.9469 279.38615 418.14734 269.41406 419.38477 C 259.45473 420.62529 249.42274 420.89534 239.49219 420.20312 C 229.5937 419.51273 219.78263 417.82338 210.21094 415.25781 C 200.64052 412.6937 191.33081 409.21898 182.38867 404.86914 C 173.45218 400.51875 164.89676 395.30797 156.87891 389.25 C 148.87526 383.22263 141.4083 376.31782 134.57031 368.61328 L 134.53516 368.57812 C 127.7132 360.92132 121.60688 352.41891 116.24805 343.13867 C 110.88957 333.85716 106.58325 324.30309 103.36719 314.56836 C 100.12835 304.76022 97.879771 294.85017 96.644531 284.89648 C 95.407652 274.93078 95.161827 264.93152 95.861328 255.01172 L 95.861328 254.97461 C 96.553543 245.07466 98.202325 235.26633 100.76953 225.69336 C 103.33109 216.12604 106.80964 206.80577 111.1582 197.87109 C 115.50987 188.93478 120.75703 180.37973 126.81445 172.36133 C 132.87097 164.34493 139.75525 156.87506 147.44922 150.05273 C 155.139 143.23332 163.62379 137.07947 172.88672 131.73047 C 182.15621 126.37965 191.74544 122.10042 201.49219 118.85156 C 211.24841 115.5987 221.15591 113.36456 231.12891 112.12695 L 231.16602 112.12695 C 241.12662 110.88643 251.122 110.65336 261.05273 111.34375 C 269.61653 111.94124 290.83203 116.35938 290.83203 116.35938 L 297.91211 115.43555 C 297.91211 115.43555 315.94586 106.23212 339.00391 102.62695 L 339.00391 102.62891 C 344.76842 101.72762 350.72175 101.17124 356.70898 101.16797 z M 384.01172 142.97656 L 264.97656 174.01367 L 270.42383 194.37695 L 316.47852 182.05273 L 204.01172 294.51953 L 218.24023 308.74805 L 232.46875 322.97852 L 344.93555 210.51172 L 332.61328 256.56445 L 352.97461 262.01172 L 384.01172 142.97656 z "
       transform="matrix(0.05489624,0,0,0.05489624,259.70438,293.48907)"
       id="path4863" /></g></svg>