<?xml version="1.0" encoding="iso-8859-1"?>
<!-- Generator: Adobe Illustrator 19.0.0, SVG Export Plug-In . SVG Version: 6.00 Build 0)  -->
<svg xmlns="http://www.w3.org/2000/svg" xmlns:xlink="http://www.w3.org/1999/xlink" version="1.1" id="Capa_1" x="0px" y="0px" viewBox="0 0 538.043 538.043" style="enable-background:new 0 0 538.043 538.043;" xml:space="preserve" width="512px" height="512px">
<g>
	<path d="M269.022,111.626C120.677,111.626,0,232.315,0,380.648v34.327c0,6.313,5.117,11.442,11.442,11.442h515.158   c6.325,0,11.442-5.129,11.442-11.442v-34.327C538.043,232.315,417.366,111.626,269.022,111.626z M194.795,369.193   c0.335-22.12,1.483-43.223,3.491-62.963h59.293v62.963H194.795z M109.127,369.193c0.67-21.809,3.025-42.972,7.162-62.963h59.113   c-2.069,20.673-3.276,41.884-3.599,62.963C171.803,369.193,109.127,369.193,109.127,369.193z M23.471,369.193   c1.005-21.809,4.651-42.972,10.976-62.963h58.587c-3.958,20.159-6.349,41.226-6.983,62.963H23.471z M82.632,220.383h39.385   c-9.733,19.178-17.719,40.353-23.698,62.963H43.044C53.003,260.305,66.466,239.166,82.632,220.383z M455.412,220.383   c16.177,18.784,29.64,39.911,39.6,62.963h-55.275c-5.978-22.61-13.965-43.785-23.686-62.963H455.412z M416.194,283.345h-56.208   c-2.965-22.167-6.983-43.39-11.98-62.963h42.41C400.926,239.166,409.702,260.305,416.194,283.345z M257.579,138.194v59.293h-36.922   C231.442,166.698,244.451,145.977,257.579,138.194z M317.386,197.486h-36.922v-59.293   C293.592,145.977,306.601,166.698,317.386,197.486z M257.579,220.383v62.963h-56.578c3.204-23.279,7.449-44.43,12.506-62.963   H257.579z M280.464,220.383h44.096c5.046,18.532,9.29,39.684,12.495,62.963h-56.566L280.464,220.383L280.464,220.383z    M341.466,197.486c-6.289-19.573-13.762-36.742-22.347-50.481c21.175,10.737,40.329,28.122,56.578,50.48L341.466,197.486   L341.466,197.486z M218.948,147.005c-8.585,13.738-16.057,30.907-22.347,50.481h-34.244   C178.606,175.127,197.773,157.742,218.948,147.005z M190.049,220.383c-4.986,19.573-9.015,40.807-11.981,62.963h-56.196   c6.492-23.052,15.244-44.179,25.778-62.963H190.049z M280.464,306.23h59.292c2.009,19.716,3.157,40.843,3.491,62.963h-62.784   V306.23z M366.24,369.193c-0.299-21.079-1.531-42.266-3.599-62.963h59.101c4.149,19.991,6.492,41.13,7.174,62.963H366.24z    M451.992,369.193c-0.634-21.737-3.025-42.804-6.983-62.963h58.587c6.325,19.991,9.972,41.13,10.976,62.963   C514.573,369.193,451.992,369.193,451.992,369.193z M432.838,197.486h-29.831c-9.792-15.448-20.804-29.222-32.844-40.963   C393.214,166.961,414.245,180.842,432.838,197.486z M135.037,197.486h-29.831c18.58-16.643,39.636-30.525,62.676-40.963   C155.841,168.264,144.829,182.038,135.037,197.486z M515.158,403.544H22.885v-11.442h492.274V403.544z" fill="#FFFFFF"/>
</g>
<g>
</g>
<g>
</g>
<g>
</g>
<g>
</g>
<g>
</g>
<g>
</g>
<g>
</g>
<g>
</g>
<g>
</g>
<g>
</g>
<g>
</g>
<g>
</g>
<g>
</g>
<g>
</g>
<g>
</g>
</svg>
