<?xml version="1.0" encoding="UTF-8" standalone="no"?>
<!-- Generator: Adobe Illustrator 16.0.0, SVG Export Plug-In . SVG Version: 6.00 Build 0)  -->

<svg
   xmlns:dc="http://purl.org/dc/elements/1.1/"
   xmlns:cc="http://creativecommons.org/ns#"
   xmlns:rdf="http://www.w3.org/1999/02/22-rdf-syntax-ns#"
   xmlns:svg="http://www.w3.org/2000/svg"
   xmlns="http://www.w3.org/2000/svg"
   xmlns:sodipodi="http://sodipodi.sourceforge.net/DTD/sodipodi-0.dtd"
   xmlns:inkscape="http://www.inkscape.org/namespaces/inkscape"
   version="1.1"
   id="Capa_1"
   x="0px"
   y="0px"
   width="512px"
   height="512px"
   viewBox="0 0 592.813 592.814"
   style="enable-background:new 0 0 592.813 592.814;"
   xml:space="preserve"
   sodipodi:docname="rough_terrain.svg"
   inkscape:version="0.92.0 r15299"><metadata
     id="metadata41"><rdf:RDF><cc:Work
         rdf:about=""><dc:format>image/svg+xml</dc:format><dc:type
           rdf:resource="http://purl.org/dc/dcmitype/StillImage" /><dc:title></dc:title></cc:Work></rdf:RDF></metadata><defs
     id="defs39" /><sodipodi:namedview
     pagecolor="#ffffff"
     bordercolor="#666666"
     borderopacity="1"
     objecttolerance="10"
     gridtolerance="10"
     guidetolerance="10"
     inkscape:pageopacity="0"
     inkscape:pageshadow="2"
     inkscape:window-width="1920"
     inkscape:window-height="1018"
     id="namedview37"
     showgrid="false"
     inkscape:zoom="0.4609375"
     inkscape:cx="885.11026"
     inkscape:cy="116.92599"
     inkscape:window-x="1912"
     inkscape:window-y="-8"
     inkscape:window-maximized="1"
     inkscape:current-layer="g4540" /><g
     id="g6" /><g
     id="g8" /><g
     id="g10" /><g
     id="g12" /><g
     id="g14" /><g
     id="g16" /><g
     id="g18" /><g
     id="g20" /><g
     id="g22" /><g
     id="g24" /><g
     id="g26" /><g
     id="g28" /><g
     id="g30" /><g
     id="g32" /><g
     id="g34" /><g
     id="g4528"
     transform="matrix(21.077225,0,0,21.077225,-6378.6992,-6296.2154)"><g
       id="g4540"
       transform="matrix(21.08878,0,0,21.08878,-6558.1052,-6494.5697)"><path
         id="path4442"
         d="m 325.99444,322.30147 c 0,0 -0.0244,0.0178 -0.0519,0.0361 -0.0138,0.009 -0.0283,0.0183 -0.0404,0.0251 -0.0121,0.007 -0.0245,0.0106 -0.0209,0.0101 -0.0298,0.004 -0.0588,0.0111 -0.0869,0.0208 -0.0281,0.01 -0.0552,0.022 -0.0808,0.0368 -0.0256,0.0148 -0.0498,0.032 -0.0722,0.0515 h -1.1e-4 c -0.0224,0.0195 -0.043,0.0412 -0.0615,0.0649 -0.0185,0.0237 -0.0349,0.0494 -0.0486,0.0769 -0.0138,0.0275 -0.0249,0.0568 -0.0332,0.0877 -0.008,0.0308 -0.0132,0.0618 -0.015,0.0925 -0.002,0.0307 -6e-4,0.0611 0.004,0.0909 0.004,0.0298 0.0111,0.0588 0.0208,0.0869 0.01,0.0281 0.0221,0.0552 0.0369,0.0808 0.0148,0.0256 0.0321,0.0498 0.0515,0.0722 0.0195,0.0225 0.0411,0.0431 0.0648,0.0616 0.0237,0.0185 0.0495,0.0349 0.077,0.0486 0.0275,0.0138 0.0567,0.0249 0.0876,0.0332 0.0308,0.008 0.0618,0.0132 0.0925,0.015 0.0307,0.002 0.0611,6.6e-4 0.0909,-0.004 0.0298,-0.004 0.0589,-0.0112 0.087,-0.0209 0.0281,-0.01 0.0551,-0.022 0.0807,-0.0368 0.0256,-0.0148 0.0499,-0.032 0.0723,-0.0515 0.0224,-0.0195 0.043,-0.0412 0.0615,-0.0649 0.0185,-0.0237 0.0349,-0.0494 0.0486,-0.0769 0.0138,-0.0275 0.0249,-0.0567 0.0331,-0.0875 4.9e-4,-0.002 0.006,-0.0147 0.0123,-0.0284 0.007,-0.0138 0.0151,-0.03 0.0234,-0.0454 0.0165,-0.0308 0.032,-0.0582 0.032,-0.0582 l -2.2e-4,-0.0307 c 0,0 -0.006,-0.0111 -0.0129,-0.0251 -0.006,-0.0141 -0.0113,-0.0326 -0.0113,-0.0349 1.1e-4,-0.005 0.007,-0.0261 0.0152,-0.0425 0.008,-0.0164 0.0165,-0.0293 0.0165,-0.0293 l -0.0111,-0.0433 c 0,0 -0.0109,-0.006 -0.0226,-0.0147 -0.0118,-0.009 -0.0225,-0.0223 -0.022,-0.0208 -0.002,-0.005 -9.6e-4,-0.0334 0.005,-0.0564 0.006,-0.0231 0.013,-0.0419 0.013,-0.0419 l -0.0317,-0.0415 c 0,0 -0.0212,0.002 -0.0461,10e-4 -0.0249,-8.8e-4 -0.053,-0.008 -0.0574,-0.0116 1.1e-4,0 -0.0107,-0.0175 -0.0155,-0.0344 -0.005,-0.0169 -0.007,-0.032 -0.007,-0.032 l -0.041,-0.0244 c 0,0 -0.0233,0.009 -0.0521,0.0157 -0.0289,0.007 -0.0644,0.0106 -0.0766,0.008 -0.005,-0.001 -0.0253,-0.0142 -0.0401,-0.0277 -0.0148,-0.0135 -0.0258,-0.0261 -0.0258,-0.0261 l -0.0412,-0.004 z m 0.0146,0.0645 c 0.005,0.005 0.005,0.005 0.0112,0.0113 0.0176,0.016 0.0378,0.0346 0.0663,0.0418 0.0359,0.009 0.0738,5.5e-4 0.10632,-0.008 0.014,-0.003 0.0152,-0.004 0.0252,-0.008 7e-4,0.003 3.3e-4,0.003 0.001,0.005 0.006,0.0214 0.0122,0.0469 0.0366,0.066 0.0288,0.0226 0.0635,0.0236 0.093,0.0247 h 0.01 c -9.6e-4,0.003 -10e-4,0.003 -0.002,0.007 -0.007,0.0274 -0.0148,0.0592 -0.003,0.0919 0.009,0.026 0.0281,0.0381 0.0435,0.0494 0.002,0.001 0.002,9.9e-4 0.003,0.002 -0.002,0.004 -0.002,0.004 -0.005,0.008 -0.01,0.0195 -0.0213,0.0419 -0.0218,0.069 -4.4e-4,0.0248 0.009,0.0443 0.0168,0.0615 0.004,0.008 0.005,0.009 0.008,0.0146 -0.005,0.009 -0.012,0.021 -0.0248,0.0448 -0.008,0.0158 -0.0172,0.0325 -0.0245,0.0475 -0.007,0.015 -0.0129,0.0269 -0.0163,0.0394 -0.007,0.0268 -0.0169,0.0522 -0.0289,0.0761 -0.0119,0.0239 -0.026,0.0461 -0.0421,0.0666 -0.016,0.0206 -0.0339,0.0394 -0.0533,0.0563 h -1.1e-4 c -0.0195,0.0169 -0.0404,0.0319 -0.0627,0.0447 -0.0222,0.0129 -0.0458,0.0236 -0.0702,0.032 -0.0244,0.008 -0.0496,0.0144 -0.0754,0.018 -0.0258,0.004 -0.0521,0.005 -0.0788,0.003 -0.0266,-0.002 -0.0534,-0.006 -0.0802,-0.013 -0.0268,-0.007 -0.0522,-0.0169 -0.0761,-0.0289 -0.0239,-0.0119 -0.0462,-0.026 -0.0667,-0.0421 -0.0206,-0.016 -0.0394,-0.034 -0.0562,-0.0534 -0.0169,-0.0195 -0.0319,-0.0404 -0.0447,-0.0627 -0.0128,-0.0223 -0.0236,-0.0457 -0.032,-0.0701 -0.008,-0.0244 -0.0145,-0.0496 -0.0181,-0.0754 -0.004,-0.0258 -0.005,-0.0521 -0.003,-0.0788 0.002,-0.0266 0.006,-0.0534 0.013,-0.0803 0.007,-0.0268 0.0169,-0.0522 0.0289,-0.0761 0.0119,-0.0239 0.026,-0.0462 0.0421,-0.0667 0.016,-0.0206 0.034,-0.0393 0.0534,-0.0562 0.0195,-0.0169 0.0404,-0.0319 0.0627,-0.0447 0.0223,-0.0129 0.0458,-0.0236 0.0702,-0.032 0.0244,-0.008 0.0496,-0.0145 0.0754,-0.0181 0.0175,-0.002 0.0279,-0.009 0.0423,-0.0173 0.0143,-0.008 0.0299,-0.0179 0.0444,-0.0275 0.0175,-0.0116 0.0226,-0.0154 0.0327,-0.0226 v -5.5e-4 z m -5.5e-4,0.0517 -0.007,0.0263 0.0593,0.0159 -0.19796,0.053 0.007,0.0251 0.007,0.025 0.19796,-0.053 -0.0435,0.0435 0.0192,0.0192 0.11137,-0.11287 z m 0.21469,0.14871 -0.15331,0.04 0.007,0.0262 0.0593,-0.0159 -0.14484,0.14495 0.0182,0.0183 0.0183,0.0182 0.14496,-0.14485 -0.0159,0.0593 0.0262,0.007 z m 0.10215,0.0584 -0.11277,0.11126 0.0192,0.0192 0.0435,-0.0434 -0.053,0.19785 0.025,0.007 0.025,0.007 0.0531,-0.19785 0.0159,0.0592 0.0262,-0.007 z"
         style="color:#000000;font-style:normal;font-variant:normal;font-weight:normal;font-stretch:normal;font-size:medium;line-height:normal;font-family:sans-serif;text-indent:0;text-align:start;text-decoration:none;text-decoration-line:none;text-decoration-style:solid;text-decoration-color:#000000;letter-spacing:normal;word-spacing:normal;text-transform:none;writing-mode:lr-tb;direction:ltr;baseline-shift:baseline;text-anchor:start;white-space:normal;clip-rule:nonzero;display:inline;overflow:visible;visibility:visible;opacity:1;isolation:auto;mix-blend-mode:normal;color-interpolation:sRGB;color-interpolation-filters:linearRGB;solid-color:#000000;solid-opacity:1;fill:#f5f5f5;fill-opacity:1;fill-rule:evenodd;stroke:none;stroke-width:0.06124986;stroke-linecap:round;stroke-linejoin:bevel;stroke-miterlimit:4;stroke-dasharray:none;stroke-dashoffset:0;stroke-opacity:1;color-rendering:auto;image-rendering:auto;shape-rendering:auto;text-rendering:auto;enable-background:accumulate"
         inkscape:connector-curvature="0" /></g></g></svg>