<?xml version="1.0" encoding="UTF-8" standalone="no"?>
<!-- Generator: Adobe Illustrator 16.0.0, SVG Export Plug-In . SVG Version: 6.00 Build 0)  -->

<svg
   xmlns:dc="http://purl.org/dc/elements/1.1/"
   xmlns:cc="http://creativecommons.org/ns#"
   xmlns:rdf="http://www.w3.org/1999/02/22-rdf-syntax-ns#"
   xmlns:svg="http://www.w3.org/2000/svg"
   xmlns="http://www.w3.org/2000/svg"
   xmlns:sodipodi="http://sodipodi.sourceforge.net/DTD/sodipodi-0.dtd"
   xmlns:inkscape="http://www.inkscape.org/namespaces/inkscape"
   version="1.1"
   id="Capa_1"
   x="0px"
   y="0px"
   width="512px"
   height="512px"
   viewBox="0 0 592.813 592.814"
   style="enable-background:new 0 0 592.813 592.814;"
   xml:space="preserve"
   sodipodi:docname="level_terrain.svg"
   inkscape:version="0.92.0 r15299"><metadata
     id="metadata41"><rdf:RDF><cc:Work
         rdf:about=""><dc:format>image/svg+xml</dc:format><dc:type
           rdf:resource="http://purl.org/dc/dcmitype/StillImage" /><dc:title></dc:title></cc:Work></rdf:RDF></metadata><defs
     id="defs39" /><sodipodi:namedview
     pagecolor="#ffffff"
     bordercolor="#666666"
     borderopacity="1"
     objecttolerance="10"
     gridtolerance="10"
     guidetolerance="10"
     inkscape:pageopacity="0"
     inkscape:pageshadow="2"
     inkscape:window-width="1920"
     inkscape:window-height="1018"
     id="namedview37"
     showgrid="false"
     inkscape:zoom="0.4609375"
     inkscape:cx="820.82572"
     inkscape:cy="-83.99356"
     inkscape:window-x="1912"
     inkscape:window-y="-8"
     inkscape:window-maximized="1"
     inkscape:current-layer="g4528" /><g
     id="g6" /><g
     id="g8" /><g
     id="g10" /><g
     id="g12" /><g
     id="g14" /><g
     id="g16" /><g
     id="g18" /><g
     id="g20" /><g
     id="g22" /><g
     id="g24" /><g
     id="g26" /><g
     id="g28" /><g
     id="g30" /><g
     id="g32" /><g
     id="g34" /><g
     id="g4528"
     transform="matrix(21.077225,0,0,21.077225,-6378.6992,-6296.2154)"><path
       style="opacity:1;fill:#f5f5f5;fill-opacity:1;fill-rule:evenodd;stroke:none;stroke-width:1.15783989;stroke-linecap:square;stroke-linejoin:bevel;stroke-miterlimit:4;stroke-dasharray:none;stroke-dashoffset:0.98573762;stroke-opacity:1"
       d="m 323.57526,305.36152 -16.93114,17.87195 h 0.79375 0.79828 0.24197 l -0.0904,-0.15839 0.60606,-0.64226 0.46133,0.80065 h 1.33875 l -0.96788,-1.67806 0.60832,-0.63993 1.33649,2.31799 h 1.33875 l -1.8453,-3.19541 0.60831,-0.64225 2.21392,3.83766 h 1.33875 l -2.72047,-4.71507 0.60606,-0.63994 3.09134,5.35501 h 1.33875 l -3.59789,-6.23254 0.60606,-0.64213 3.96876,6.87467 h 1.33875 l -4.47532,-7.7522 0.60832,-0.63994 4.84393,8.39214 h 1.33875 l -5.35275,-9.26955 0.60832,-0.64225 5.72136,9.9118 h 1.33875 l -6.22792,-10.78921 0.60606,-0.63994 6.59879,11.42915 h 1.12618 0.21257 0.94527 v -17.87195 h -4.37356 z m -5.81407,0.87069 -6.5332,1.70284 0.2985,1.11708 2.52826,-0.67618 -6.17365,6.17372 0.78019,0.78235 0.78019,0.78027 6.1759,-6.17372 -0.67842,2.52826 1.11938,0.29849 z m 6.53999,0.28715 h 0.97693 l 1.51288,2.61868 v 1.69381 z m 2.31568,0 h 0.17413 v 0.3008 z m -3.23381,0.72816 3.40794,5.90232 v 1.69149 l -4.014,-6.95387 z m -1.43826,1.51747 4.8462,8.39434 v 1.696 l -5.45452,-9.4482 z m -1.43826,1.51966 6.28446,10.88868 v 1.69148 l -6.89277,-11.93802 z"
       id="path4574"
       inkscape:connector-curvature="0" /></g></svg>