<?xml version="1.0" encoding="iso-8859-1"?>
<!-- Generator: Adobe Illustrator 19.0.0, SVG Export Plug-In . SVG Version: 6.00 Build 0)  -->
<svg xmlns="http://www.w3.org/2000/svg" xmlns:xlink="http://www.w3.org/1999/xlink" version="1.1" id="Layer_1" x="0px" y="0px" viewBox="0 0 469.333 469.333" style="enable-background:new 0 0 469.333 469.333;" xml:space="preserve" width="512px" height="512px">
<g>
	<g>
		<path d="M458.667,0h-448C4.771,0,0,4.771,0,10.667v448c0,5.896,4.771,10.667,10.667,10.667h448    c5.896,0,10.667-4.771,10.667-10.667v-448C469.333,4.771,464.563,0,458.667,0z M149.333,448h-128V320h128V448z M149.333,298.667    h-128v-128h128V298.667z M149.333,149.333h-128v-128h128V149.333z M298.667,448h-128V320h128V448z M298.667,298.667h-128v-128h128    V298.667z M298.667,149.333h-128v-128h128V149.333z M448,448H320V320h128V448z M448,298.667H320v-128h128V298.667z M448,149.333    H320v-128h128V149.333z" fill="#FFFFFF"/>
	</g>
</g>
<g>
</g>
<g>
</g>
<g>
</g>
<g>
</g>
<g>
</g>
<g>
</g>
<g>
</g>
<g>
</g>
<g>
</g>
<g>
</g>
<g>
</g>
<g>
</g>
<g>
</g>
<g>
</g>
<g>
</g>
</svg>
