<?xml version="1.0" encoding="iso-8859-1"?>
<!-- Generator: Adobe Illustrator 16.0.0, SVG Export Plug-In . SVG Version: 6.00 Build 0)  -->
<!DOCTYPE svg PUBLIC "-//W3C//DTD SVG 1.1//EN" "http://www.w3.org/Graphics/SVG/1.1/DTD/svg11.dtd">
<svg xmlns="http://www.w3.org/2000/svg" xmlns:xlink="http://www.w3.org/1999/xlink" version="1.1" id="Capa_1" x="0px" y="0px" width="512px" height="512px" viewBox="0 0 87.883 87.883" style="enable-background:new 0 0 87.883 87.883;" xml:space="preserve">
<g>
	<path d="M2.149,41.921L26.134,1.064C26.517,0.408,27.258,0,28.065,0s1.548,0.408,1.93,1.063l16.294,27.756l-2.253,1.174   L31.128,7.226c-0.467-0.793-1.365-1.229-2.276-1.1c-0.911,0.127-1.656,0.791-1.887,1.682l-8.917,36.109   c-0.174,0.599-0.094,1.243,0.221,1.78c0.315,0.539,0.837,0.925,1.445,1.068c2.873,0.672,5.839,1.014,8.814,1.014h0.001   c0.305,0,0.606-0.006,0.906-0.012l0.014,2.904c-0.641,0.023-1.287,0.039-1.944,0.039h-0.003c-8.638,0-16.882-2.029-24.507-6.033   c-0.518-0.273-0.888-0.717-1.04-1.254C1.808,42.916,1.878,42.382,2.149,41.921z M33.137,41.537   c0.002-0.414,0.235-0.793,0.605-0.979l25.186-13.129c0.289-0.145,0.625-0.156,0.923-0.031l25.48,12.34   c0.021,0.01,0.038,0.025,0.061,0.037c0.024,0.012,0.052,0.018,0.075,0.033c0.025,0.014,0.044,0.035,0.068,0.053   c0.037,0.025,0.071,0.051,0.104,0.082c0.041,0.037,0.077,0.076,0.111,0.119c0.027,0.033,0.054,0.066,0.078,0.104   c0.03,0.047,0.053,0.098,0.076,0.148c0.017,0.039,0.035,0.076,0.047,0.115c0.018,0.059,0.025,0.117,0.034,0.178   c0.004,0.031,0.016,0.061,0.017,0.092c0,0.008-0.002,0.016-0.002,0.023c0,0.01,0.003,0.02,0.003,0.029v32.621   c0,0.403-0.222,0.774-0.577,0.969L60.7,87.75c-0.163,0.088-0.343,0.133-0.523,0.133c-0.194,0-0.39-0.053-0.562-0.156   c-0.102-0.061-0.187-0.139-0.261-0.225c0,0-0.001,0-0.002,0c-0.18,0-0.358-0.045-0.521-0.131L33.787,74.257   c-0.354-0.188-0.576-0.562-0.579-0.963l-0.145-31.353c0-0.135,0.032-0.264,0.078-0.387C33.14,41.548,33.137,41.543,33.137,41.537z    M61.276,84.939l22.526-12.224V42.595L61.276,55.184V84.939z M60.164,53.285l22.197-12.412l-22.898-11.25l-22.804,11.93   L60.164,53.285z M47.608,12.025c0,0.4,0.156,0.777,0.438,1.061l3.667,3.667c0.566,0.566,1.556,0.566,2.121,0   c0.283-0.283,0.439-0.66,0.439-1.061s-0.156-0.777-0.439-1.061l-1.386-1.386c0.903-0.106,1.796-0.16,2.668-0.16   c13.504,0,19.396,12.754,19.454,12.883c0.241,0.539,0.779,0.888,1.37,0.888c0.213,0,0.419-0.044,0.611-0.131   c0.754-0.337,1.095-1.226,0.758-1.98c-0.066-0.148-6.776-14.652-22.19-14.652c-0.671,0-1.354,0.028-2.042,0.083l0.757-0.757   c0.283-0.283,0.439-0.66,0.439-1.061s-0.156-0.777-0.439-1.061c-0.565-0.566-1.555-0.566-2.121,0l-3.667,3.667   C47.765,11.248,47.608,11.625,47.608,12.025z" fill="#FFFFFF"/>
</g>
<g>
</g>
<g>
</g>
<g>
</g>
<g>
</g>
<g>
</g>
<g>
</g>
<g>
</g>
<g>
</g>
<g>
</g>
<g>
</g>
<g>
</g>
<g>
</g>
<g>
</g>
<g>
</g>
<g>
</g>
</svg>
