<?xml version="1.0" encoding="iso-8859-1"?>
<!-- Generator: Adobe Illustrator 19.0.0, SVG Export Plug-In . SVG Version: 6.00 Build 0)  -->
<svg xmlns="http://www.w3.org/2000/svg" xmlns:xlink="http://www.w3.org/1999/xlink" version="1.1" id="Layer_1" x="0px" y="0px" viewBox="0 0 512 512" style="enable-background:new 0 0 512 512;" xml:space="preserve" width="512px" height="512px">
<g>
	<g>
		<path d="M507.155,421.869L283.257,56.136c-5.982-9.775-16.389-15.606-27.847-15.606c-0.014,0-0.026,0-0.038,0    c-11.473,0.013-21.885,5.87-27.852,15.669L4.808,421.917c-6.003,9.857-6.408,21.883-1.083,32.165    c5.216,10.073,15.033,16.544,26.253,17.309c0.763,0.053,1.534,0.079,2.312,0.079h447.43c0.775,0,1.548-0.026,2.305-0.079    c11.238-0.765,21.058-7.245,26.268-17.334C513.612,443.757,513.186,431.725,507.155,421.869z M41.552,433.871L255.419,82.676    l214.997,351.195H41.552z" fill="#FFFFFF"/>
	</g>
</g>
<g>
	<g>
		<path d="M255.379,159.397c-10.382,0-18.8,8.416-18.8,18.8V334.86c0,10.382,8.417,18.8,18.8,18.8c10.382,0,18.8-8.417,18.8-18.8    V178.197C274.178,167.815,265.761,159.397,255.379,159.397z" fill="#FFFFFF"/>
	</g>
</g>
<g>
	<g>
		<circle cx="255.699" cy="387.697" r="18.8" fill="#FFFFFF"/>
	</g>
</g>
<g>
</g>
<g>
</g>
<g>
</g>
<g>
</g>
<g>
</g>
<g>
</g>
<g>
</g>
<g>
</g>
<g>
</g>
<g>
</g>
<g>
</g>
<g>
</g>
<g>
</g>
<g>
</g>
<g>
</g>
</svg>
