<?xml version="1.0" encoding="iso-8859-1"?>
<!-- Generator: Adobe Illustrator 16.0.0, SVG Export Plug-In . SVG Version: 6.00 Build 0)  -->
<!DOCTYPE svg PUBLIC "-//W3C//DTD SVG 1.1//EN" "http://www.w3.org/Graphics/SVG/1.1/DTD/svg11.dtd">
<svg xmlns="http://www.w3.org/2000/svg" xmlns:xlink="http://www.w3.org/1999/xlink" version="1.1" id="Capa_1" x="0px" y="0px" width="512px" height="512px" viewBox="0 0 47 47" style="enable-background:new 0 0 47 47;" xml:space="preserve">
<g>
	<g id="Layer_1_133_">
		<g>
			<path d="M11.355,22.761v7.406c0,1.638,1.327,2.963,2.964,2.963c1.637,0,2.961-1.325,2.961-2.963v-7.406     c0-1.637-1.324-2.963-2.961-2.963C12.682,19.798,11.355,21.124,11.355,22.761z" fill="#FFFFFF"/>
			<path d="M18.763,19.797v10.37c0,1.638,1.326,2.963,2.963,2.963c1.637,0,2.963-1.325,2.963-2.963v-10.37     c0-1.637-1.327-2.963-2.963-2.963C20.089,16.834,18.763,18.16,18.763,19.797z" fill="#FFFFFF"/>
			<path d="M26.169,16.833v13.333c0,1.638,1.326,2.963,2.963,2.963c1.638,0,2.964-1.325,2.964-2.963V16.833     c0-1.637-1.326-2.962-2.964-2.962C27.495,13.871,26.169,15.196,26.169,16.833z" fill="#FFFFFF"/>
			<path d="M46.906,20.119c-0.163-0.348-0.512-0.569-0.893-0.569h-2.93C41.223,9.451,32.355,1.774,21.726,1.774     C9.746,1.774,0,11.521,0,23.5c0,11.979,9.746,21.726,21.726,21.726c7.73,0,14.941-4.161,18.816-10.858     c0.547-0.943,0.224-2.152-0.72-2.699c-0.946-0.545-2.153-0.224-2.699,0.722c-3.172,5.479-9.071,8.887-15.397,8.887     C11.924,41.275,3.95,33.303,3.95,23.5c0-9.802,7.974-17.775,17.775-17.775c8.443,0,15.515,5.921,17.317,13.825h-2.905     c-0.383,0-0.73,0.222-0.895,0.569c-0.163,0.347-0.107,0.756,0.136,1.051l4.938,5.926c0.188,0.225,0.467,0.354,0.759,0.354     c0.293,0,0.569-0.13,0.758-0.354l4.938-5.926C47.016,20.875,47.07,20.466,46.906,20.119z" fill="#FFFFFF"/>
		</g>
	</g>
</g>
<g>
</g>
<g>
</g>
<g>
</g>
<g>
</g>
<g>
</g>
<g>
</g>
<g>
</g>
<g>
</g>
<g>
</g>
<g>
</g>
<g>
</g>
<g>
</g>
<g>
</g>
<g>
</g>
<g>
</g>
</svg>
