<?xml version="1.0" encoding="iso-8859-1"?>
<!-- Generator: Adobe Illustrator 19.0.0, SVG Export Plug-In . SVG Version: 6.00 Build 0)  -->
<svg xmlns="http://www.w3.org/2000/svg" xmlns:xlink="http://www.w3.org/1999/xlink" version="1.1" id="Layer_1" x="0px" y="0px" viewBox="0 0 512.001 512.001" style="enable-background:new 0 0 512.001 512.001;" xml:space="preserve" width="512px" height="512px">
<g>
	<g>
		<path d="M148.845,92.276c14.37-23.323,11.474-54.351-8.723-74.546c-23.601-23.602-62.001-23.601-85.602,0    c-6.432,6.432-11.261,14.104-14.245,22.546c-8.443,2.984-16.115,7.814-22.546,14.246C6.296,65.954,0,81.154,0,97.323    c0,16.168,6.296,31.368,17.729,42.8c11.433,11.433,26.633,17.729,42.801,17.729c11.397,0,22.307-3.142,31.761-8.993l85.929,85.929    l56.567-56.569L148.845,92.276z" fill="#FFFFFF"/>
	</g>
</g>
<g>
	<g>
		<path d="M494.272,371.878c-11.433-11.432-26.633-17.728-42.8-17.728c-11.397,0-22.307,3.142-31.762,8.993l-85.929-85.929    l-56.568,56.569l85.942,85.942c-14.37,23.323-11.474,54.351,8.723,74.547C383.31,505.705,398.51,512,414.678,512    c16.168,0,31.368-6.296,42.802-17.729c6.432-6.432,11.261-14.104,14.245-22.547c8.443-2.984,16.115-7.814,22.547-14.246    C517.873,433.878,517.873,395.478,494.272,371.878z" fill="#FFFFFF"/>
	</g>
</g>
<g>
	<g>
		<path d="M494.272,54.521c-6.433-6.432-14.104-11.262-22.547-14.246c-2.984-8.443-7.814-16.115-14.246-22.546    C446.046,6.297,430.846,0,414.678,0c-0.574,0-1.144,0.026-1.715,0.042c-15.524,0.43-30.059,6.66-41.085,17.688    c-11.026,11.025-17.257,25.56-17.687,41.084c-0.017,0.572-0.042,1.142-0.042,1.716c0,11.397,3.142,22.306,8.992,31.761    L92.29,363.142c-9.454-5.851-20.363-8.993-31.761-8.993c-0.574,0-1.144,0.026-1.715,0.042    c-15.524,0.43-30.059,6.661-41.086,17.687C6.701,382.904,0.471,397.439,0.042,412.964C0.025,413.535,0,414.104,0,414.678    c0,16.168,6.296,31.368,17.729,42.801c6.433,6.432,14.104,11.262,22.547,14.246c2.984,8.443,7.814,16.115,14.246,22.547    c11.802,11.802,27.299,17.702,42.801,17.7c0.581,0,1.162-0.025,1.744-0.042c14.911-0.427,29.699-6.302,41.056-17.658    c11.358-11.357,17.233-26.143,17.659-41.057c0.331-11.607-2.648-23.284-8.937-33.491L419.71,148.858    c9.455,5.852,20.364,8.993,31.762,8.993c0.573,0,1.143-0.026,1.714-0.042c15.523-0.429,30.059-6.66,41.086-17.687    c11.027-11.027,17.258-25.562,17.687-41.086c0.016-0.571,0.042-1.14,0.042-1.714C512.001,81.154,505.705,65.954,494.272,54.521z" fill="#FFFFFF"/>
	</g>
</g>
<g>
</g>
<g>
</g>
<g>
</g>
<g>
</g>
<g>
</g>
<g>
</g>
<g>
</g>
<g>
</g>
<g>
</g>
<g>
</g>
<g>
</g>
<g>
</g>
<g>
</g>
<g>
</g>
<g>
</g>
</svg>
