<?xml version="1.0" encoding="iso-8859-1"?>
<!-- Generator: Adobe Illustrator 19.0.0, SVG Export Plug-In . SVG Version: 6.00 Build 0)  -->
<svg xmlns="http://www.w3.org/2000/svg" xmlns:xlink="http://www.w3.org/1999/xlink" version="1.1" id="Capa_1" x="0px" y="0px" viewBox="0 0 512 512" style="enable-background:new 0 0 512 512;" xml:space="preserve" width="512px" height="512px">
<g>
	<g>
		<g>
			<path d="M245.333,192h21.333c5.896,0,10.667-4.771,10.667-10.667v-64c0-5.896-4.771-10.667-10.667-10.667h-21.333     c-5.896,0-10.667,4.771-10.667,10.667v64C234.667,187.229,239.438,192,245.333,192z" fill="#FFFFFF"/>
			<path d="M501.333,341.333h-64c-5.896,0-10.667,4.771-10.667,10.667v21.333c0,5.896,4.771,10.667,10.667,10.667h64     c5.896,0,10.667-4.771,10.667-10.667V352C512,346.104,507.229,341.333,501.333,341.333z" fill="#FFFFFF"/>
			<path d="M74.667,341.333h-64C4.771,341.333,0,346.104,0,352v21.333C0,379.229,4.771,384,10.667,384h64     c5.896,0,10.667-4.771,10.667-10.667V352C85.333,346.104,80.563,341.333,74.667,341.333z" fill="#FFFFFF"/>
			<path d="M444.563,189.188l-15.083-15.083c-4-4-11.083-4-15.083,0l-45.25,45.26c-4.167,4.167-4.167,10.917,0,15.083l15.083,15.083     c2,2,4.708,3.125,7.542,3.125c2.833,0,5.542-1.125,7.542-3.125l45.25-45.26C448.729,200.104,448.729,193.354,444.563,189.188z" fill="#FFFFFF"/>
			<path d="M142.854,219.365l-45.25-45.26c-2-2-4.708-3.125-7.542-3.125s-5.542,1.125-7.542,3.125l-15.083,15.083     c-4.167,4.167-4.167,10.917,0,15.083l45.25,45.26c2,2,4.708,3.125,7.542,3.125c2.833,0,5.542-1.125,7.542-3.125l15.083-15.083     C147.021,230.281,147.021,223.531,142.854,219.365z" fill="#FFFFFF"/>
			<path d="M373.333,362.667H138.667c-5.896,0-10.667,4.771-10.667,10.667v21.333c0,5.896,4.771,10.667,10.667,10.667h234.667     c5.896,0,10.667-4.771,10.667-10.667v-21.333C384,367.438,379.229,362.667,373.333,362.667z" fill="#FFFFFF"/>
		</g>
	</g>
</g>
<g>
</g>
<g>
</g>
<g>
</g>
<g>
</g>
<g>
</g>
<g>
</g>
<g>
</g>
<g>
</g>
<g>
</g>
<g>
</g>
<g>
</g>
<g>
</g>
<g>
</g>
<g>
</g>
<g>
</g>
</svg>
