<?xml version="1.0" encoding="iso-8859-1"?>
<!-- Generator: Adobe Illustrator 16.0.0, SVG Export Plug-In . SVG Version: 6.00 Build 0)  -->
<!DOCTYPE svg PUBLIC "-//W3C//DTD SVG 1.1//EN" "http://www.w3.org/Graphics/SVG/1.1/DTD/svg11.dtd">
<svg xmlns="http://www.w3.org/2000/svg" xmlns:xlink="http://www.w3.org/1999/xlink" version="1.1" id="Capa_1" x="0px" y="0px" width="512px" height="512px" viewBox="0 0 143.528 143.527" style="enable-background:new 0 0 143.528 143.527;" xml:space="preserve">
<g>
	<g>
		<path d="M129.475,114.35L77.469,3.503C76.465,1.366,74.317,0,71.955,0h-0.38c-2.363,0-4.512,1.367-5.515,3.503L14.053,114.35    c-0.475,1.019-0.663,2.148-0.539,3.265c0.292,2.614,4.373,25.396,56.915,25.721c0.497,0.127,1.009,0.192,1.525,0.192    c53.63,0,57.765-23.266,58.059-25.918C130.137,116.494,129.953,115.366,129.475,114.35z M73.068,131.344    c-0.485-0.125-0.987-0.188-1.495-0.188c-34.902,0-43.492-10.184-45.45-13.855l1.652-3.52c0.299-0.34,0.478-0.744,0.555-1.182    l43.434-92.577l40.916,87.206c-1.218-0.43-2.582,0.156-3.069,1.377c-0.499,1.25,0.11,2.666,1.359,3.166    c1.803,0.722,3.418,1.514,4.938,2.336l1.506,3.209C115.491,120.979,107.102,131.125,73.068,131.344z" fill="#FFFFFF"/>
		<path d="M56.413,101.532c-2.777,0.263-5.499,0.612-8.09,1.034c-1.328,0.218-2.229,1.472-2.012,2.798    c0.195,1.192,1.23,2.043,2.402,2.043c0.132,0,0.261-0.011,0.395-0.031c2.487-0.405,5.099-0.743,7.767-0.995    c1.34-0.128,2.321-1.316,2.192-2.656C58.941,102.383,57.774,101.357,56.413,101.532z" fill="#FFFFFF"/>
		<path d="M40.292,104.205c-2.792,0.697-5.447,1.508-7.893,2.407c-1.262,0.463-1.907,1.866-1.445,3.128    c0.361,0.984,1.294,1.594,2.285,1.594c0.28,0,0.563-0.049,0.843-0.15c2.282-0.842,4.767-1.597,7.389-2.252    c1.306-0.326,2.097-1.648,1.776-2.955C42.918,104.678,41.595,103.889,40.292,104.205z" fill="#FFFFFF"/>
		<path d="M104.924,104.643c-2.536-0.684-5.229-1.285-8.006-1.78c-1.332-0.249-2.589,0.646-2.828,1.968    c-0.238,1.325,0.646,2.59,1.969,2.829c2.641,0.474,5.196,1.042,7.596,1.688c0.212,0.058,0.427,0.084,0.64,0.084    c1.07,0,2.056-0.715,2.351-1.801C106.992,106.33,106.225,104.996,104.924,104.643z" fill="#FFFFFF"/>
		<path d="M88.836,101.706c-2.629-0.282-5.355-0.499-8.105-0.646c-1.322-0.094-2.486,0.965-2.561,2.307    c-0.068,1.343,0.965,2.488,2.307,2.561c2.658,0.139,5.295,0.35,7.835,0.621c0.091,0.01,0.179,0.016,0.263,0.016    c1.23,0,2.285-0.926,2.421-2.176C91.141,103.051,90.173,101.854,88.836,101.706z" fill="#FFFFFF"/>
		<path d="M72.633,99.879h-0.872c-2.523,0-4.936,0.256-7.242,0.352c-1.345,0.054-2.388,1.394-2.334,2.736    c0.054,1.311,1.133,1.785,2.431,1.785c0.034,0,0.068,0,0.103,0c2.244,0,4.589,0,7.045,0h0.828c0.008,0,0.015,0,0.021,0    c1.338,0,2.425-1.078,2.438-2.415C75.063,100.991,73.978,99.879,72.633,99.879z" fill="#FFFFFF"/>
	</g>
</g>
<g>
</g>
<g>
</g>
<g>
</g>
<g>
</g>
<g>
</g>
<g>
</g>
<g>
</g>
<g>
</g>
<g>
</g>
<g>
</g>
<g>
</g>
<g>
</g>
<g>
</g>
<g>
</g>
<g>
</g>
</svg>
