<?xml version="1.0" encoding="iso-8859-1"?>
<!-- Generator: Adobe Illustrator 19.0.0, SVG Export Plug-In . SVG Version: 6.00 Build 0)  -->
<svg xmlns="http://www.w3.org/2000/svg" xmlns:xlink="http://www.w3.org/1999/xlink" version="1.1" id="Layer_1" x="0px" y="0px" viewBox="0 0 512 512" style="enable-background:new 0 0 512 512;" xml:space="preserve" width="512px" height="512px">
<g>
	<g>
		<g>
			<path d="M279.419,341.788c-7.31-0.285-14.691-0.437-22.123-0.453c-11.782-0.025-21.354,9.506-21.379,21.288     c-0.025,11.782,9.506,21.354,21.288,21.379c6.907,0.015,13.763,0.156,20.548,0.421c11.773,0.46,21.69-8.712,22.15-20.485     S291.193,342.247,279.419,341.788z" fill="#FFFFFF"/>
			<path d="M169.084,347.96c-7.601,1.226-14.975,2.612-22.085,4.152c-11.515,2.494-18.828,13.851-16.334,25.366     c2.494,11.515,13.851,18.828,25.366,16.334c6.356-1.377,12.985-2.623,19.845-3.729c11.632-1.876,19.541-12.826,17.665-24.458     C191.666,353.993,180.716,346.085,169.084,347.96z" fill="#FFFFFF"/>
			<path d="M390.11,358.521c-6.988-2.085-14.358-4.001-22.063-5.736c-11.494-2.589-22.911,4.631-25.499,16.125     s4.631,22.911,16.125,25.499c6.774,1.526,13.204,3.197,19.238,4.997c11.29,3.369,23.174-3.053,26.542-14.343     C407.822,373.773,401.401,361.89,390.11,358.521z" fill="#FFFFFF"/>
			<path d="M469.293,83.889C467.584,31.282,372.708,0,256,0S44.416,31.282,42.707,83.889c-0.025,0.474-0.04,0.954-0.04,1.444     v341.333C42.667,480.147,138.225,512,256,512s213.333-31.853,213.333-85.333V85.333     C469.333,84.843,469.318,84.363,469.293,83.889z M256,42.667c94.321,0,170.667,25.449,170.667,42.667     C426.667,102.551,350.321,128,256,128S85.333,102.551,85.333,85.333C85.333,68.115,161.679,42.667,256,42.667z M426.667,426.667     c0,17.218-76.346,42.667-170.667,42.667S85.333,443.885,85.333,426.667c0-0.687,0.687-2.158,3.069-4.663     c8.119-8.538,7.78-22.041-0.757-30.16c-0.732-0.697-1.513-1.308-2.312-1.88V139.26c0.228,0.118,0.466,0.232,0.696,0.35     c0.871,0.447,1.749,0.891,2.643,1.33c0.415,0.204,0.839,0.404,1.259,0.606c0.771,0.37,1.548,0.738,2.335,1.102     c0.461,0.213,0.925,0.424,1.391,0.635c0.78,0.352,1.568,0.701,2.362,1.047c0.466,0.203,0.931,0.406,1.402,0.607     c0.866,0.369,1.744,0.732,2.627,1.093c0.405,0.166,0.804,0.333,1.212,0.497c1.293,0.52,2.601,1.033,3.93,1.537     c0.08,0.03,0.162,0.059,0.242,0.09c1.253,0.474,2.523,0.94,3.806,1.399c0.446,0.16,0.9,0.315,1.35,0.474     c0.932,0.328,1.869,0.653,2.817,0.973c0.526,0.178,1.057,0.353,1.587,0.528c0.9,0.297,1.806,0.592,2.719,0.882     c0.545,0.174,1.092,0.347,1.642,0.518c0.949,0.296,1.907,0.586,2.869,0.875c0.513,0.154,1.023,0.309,1.539,0.461     c1.174,0.345,2.361,0.683,3.555,1.017c0.309,0.087,0.613,0.176,0.923,0.262c1.504,0.416,3.024,0.823,4.558,1.223     c0.431,0.112,0.869,0.22,1.302,0.331c1.119,0.287,2.243,0.571,3.377,0.849c0.571,0.14,1.147,0.276,1.721,0.414     c1.018,0.244,2.039,0.485,3.069,0.721c0.613,0.141,1.228,0.281,1.846,0.419c1.031,0.231,2.069,0.458,3.111,0.683     c0.6,0.129,1.198,0.259,1.802,0.386c1.16,0.244,2.33,0.481,3.504,0.716c0.486,0.097,0.968,0.198,1.456,0.294     c1.662,0.326,3.335,0.645,5.023,0.955c0.273,0.05,0.55,0.097,0.824,0.146c1.422,0.258,2.851,0.51,4.291,0.756     c0.588,0.1,1.181,0.196,1.772,0.295c1.145,0.19,2.293,0.378,3.449,0.561c0.659,0.104,1.321,0.206,1.983,0.308     c1.115,0.171,2.236,0.339,3.361,0.503c0.67,0.098,1.339,0.195,2.012,0.29c1.184,0.167,2.376,0.33,3.57,0.489     c0.604,0.081,1.204,0.164,1.81,0.242c1.577,0.205,3.163,0.402,4.757,0.594c0.224,0.027,0.444,0.056,0.668,0.082     c1.82,0.216,3.652,0.421,5.494,0.62c0.557,0.06,1.12,0.115,1.679,0.174c1.293,0.135,2.589,0.267,3.892,0.393     c0.694,0.067,1.391,0.131,2.087,0.196c1.195,0.111,2.394,0.219,3.597,0.323c0.723,0.062,1.446,0.123,2.172,0.183     c1.219,0.1,2.444,0.195,3.671,0.288c0.692,0.052,1.383,0.106,2.078,0.156c1.411,0.101,2.83,0.196,4.251,0.287     c0.504,0.032,1.004,0.068,1.509,0.099c1.928,0.119,3.865,0.229,5.811,0.33c0.424,0.022,0.852,0.04,1.277,0.061     c1.525,0.076,3.054,0.147,4.59,0.212c0.694,0.029,1.392,0.054,2.088,0.081c1.286,0.049,2.574,0.096,3.867,0.138     c0.755,0.024,1.513,0.047,2.27,0.068c1.267,0.036,2.538,0.068,3.811,0.096c0.747,0.017,1.493,0.034,2.242,0.048     c1.36,0.026,2.725,0.045,4.092,0.062c0.654,0.008,1.306,0.019,1.962,0.025c2.012,0.019,4.03,0.03,6.055,0.03     c2.026,0,4.043-0.012,6.055-0.03c0.656-0.006,1.308-0.017,1.962-0.025c1.367-0.017,2.732-0.036,4.092-0.062     c0.749-0.014,1.495-0.031,2.242-0.048c1.273-0.028,2.544-0.06,3.811-0.096c0.758-0.022,1.515-0.044,2.27-0.068     c1.293-0.042,2.581-0.088,3.867-0.138c0.696-0.027,1.393-0.052,2.087-0.081c1.536-0.064,3.065-0.136,4.591-0.212     c0.425-0.021,0.852-0.039,1.276-0.061c1.946-0.101,3.883-0.211,5.811-0.33c0.505-0.031,1.005-0.067,1.509-0.099     c1.421-0.091,2.84-0.186,4.251-0.287c0.695-0.05,1.386-0.103,2.078-0.156c1.227-0.093,2.452-0.188,3.671-0.288     c0.725-0.06,1.449-0.121,2.172-0.183c1.203-0.104,2.402-0.212,3.597-0.323c0.696-0.065,1.393-0.129,2.087-0.196     c1.303-0.126,2.599-0.259,3.892-0.393c0.559-0.058,1.121-0.114,1.679-0.174c1.841-0.198,3.674-0.404,5.494-0.62     c0.224-0.027,0.444-0.056,0.667-0.082c1.595-0.191,3.181-0.389,4.759-0.594c0.605-0.079,1.205-0.161,1.808-0.242     c1.195-0.16,2.387-0.322,3.572-0.49c0.673-0.095,1.342-0.193,2.012-0.29c1.125-0.164,2.246-0.332,3.361-0.503     c0.662-0.102,1.324-0.204,1.983-0.308c1.156-0.183,2.304-0.371,3.449-0.561c0.591-0.098,1.184-0.194,1.772-0.295     c1.44-0.246,2.869-0.498,4.291-0.756c0.273-0.05,0.551-0.096,0.824-0.146c1.688-0.309,3.361-0.628,5.023-0.955     c0.488-0.096,0.97-0.196,1.456-0.294c1.174-0.235,2.344-0.473,3.504-0.716c0.604-0.127,1.202-0.257,1.801-0.386     c1.043-0.225,2.082-0.452,3.113-0.683c0.616-0.138,1.231-0.278,1.843-0.418c1.031-0.237,2.054-0.478,3.073-0.722     c0.573-0.137,1.148-0.273,1.717-0.413c1.137-0.278,2.262-0.563,3.384-0.85c0.431-0.11,0.867-0.218,1.296-0.329     c1.534-0.4,3.055-0.807,4.559-1.223c0.31-0.086,0.614-0.175,0.923-0.262c1.194-0.334,2.381-0.672,3.555-1.017     c0.517-0.152,1.026-0.307,1.539-0.461c0.963-0.289,1.922-0.58,2.872-0.875c0.549-0.171,1.094-0.344,1.638-0.517     c0.915-0.291,1.822-0.586,2.723-0.884c0.529-0.175,1.059-0.35,1.583-0.527c0.949-0.32,1.886-0.646,2.819-0.974     c0.449-0.158,0.903-0.314,1.349-0.473c1.284-0.459,2.553-0.925,3.806-1.399c0.08-0.03,0.162-0.059,0.242-0.09     c1.329-0.504,2.636-1.017,3.93-1.537c0.408-0.164,0.807-0.332,1.212-0.497c0.883-0.361,1.761-0.725,2.627-1.093     c0.471-0.201,0.936-0.404,1.401-0.606c0.795-0.346,1.584-0.695,2.365-1.048c0.465-0.21,0.928-0.421,1.388-0.633     c0.788-0.364,1.565-0.732,2.337-1.103c0.42-0.202,0.843-0.402,1.259-0.606c0.894-0.438,1.772-0.882,2.643-1.33     c0.229-0.118,0.468-0.232,0.696-0.35V426.667z" fill="#FFFFFF"/>
		</g>
	</g>
</g>
<g>
</g>
<g>
</g>
<g>
</g>
<g>
</g>
<g>
</g>
<g>
</g>
<g>
</g>
<g>
</g>
<g>
</g>
<g>
</g>
<g>
</g>
<g>
</g>
<g>
</g>
<g>
</g>
<g>
</g>
</svg>
