<?xml version="1.0" encoding="iso-8859-1"?>
<!-- Generator: Adobe Illustrator 18.1.1, SVG Export Plug-In . SVG Version: 6.00 Build 0)  -->
<svg xmlns="http://www.w3.org/2000/svg" xmlns:xlink="http://www.w3.org/1999/xlink" version="1.1" id="Capa_1" x="0px" y="0px" viewBox="0 0 431.661 431.661" style="enable-background:new 0 0 431.661 431.661;" xml:space="preserve" width="512px" height="512px">
<g>
	<path d="M180.355,213.668l40.079,40.085L42.526,431.661L2.446,391.576L180.355,213.668z M228.877,245.316   l-40.079-40.085l68.905-68.911l40.091,40.079L228.877,245.316z" fill="#FFFFFF"/>
	<polygon points="380.066,218.525 391.999,218.519 391.999,181.309 429.215,181.309 429.215,169.376    391.999,169.376 391.999,132.166 380.066,132.166 380.066,169.376 342.862,169.376 342.862,181.309 380.066,181.309  " fill="#FFFFFF"/>
	<polygon points="393.282,260.424 393.282,248.49 356.073,248.49 356.073,211.281 344.145,211.281    344.145,248.49 306.93,248.49 306.93,260.424 344.145,260.424 344.145,297.633 356.073,297.633 356.073,260.424  " fill="#FFFFFF"/>
	<polygon points="302.956,37.209 265.741,37.209 265.741,0 253.807,0 253.807,37.209 216.603,37.209    216.603,49.143 253.807,49.143 253.807,86.353 265.741,86.353 265.741,49.143 302.956,49.143  " fill="#FFFFFF"/>
	<polygon points="223.853,73.148 186.638,73.148 186.638,35.932 174.71,35.932 174.71,73.148 137.495,73.148    137.495,85.076 174.71,85.076 174.71,122.291 186.638,122.291 186.638,85.076 223.853,85.076  " fill="#FFFFFF"/>
</g>
<g>
</g>
<g>
</g>
<g>
</g>
<g>
</g>
<g>
</g>
<g>
</g>
<g>
</g>
<g>
</g>
<g>
</g>
<g>
</g>
<g>
</g>
<g>
</g>
<g>
</g>
<g>
</g>
<g>
</g>
</svg>
