<?xml version="1.0" encoding="iso-8859-1"?>
<!-- Generator: Adobe Illustrator 16.0.0, SVG Export Plug-In . SVG Version: 6.00 Build 0)  -->
<!DOCTYPE svg PUBLIC "-//W3C//DTD SVG 1.1//EN" "http://www.w3.org/Graphics/SVG/1.1/DTD/svg11.dtd">
<svg xmlns="http://www.w3.org/2000/svg" xmlns:xlink="http://www.w3.org/1999/xlink" version="1.1" id="Capa_1" x="0px" y="0px" width="512px" height="512px" viewBox="0 0 37.519 37.519" style="enable-background:new 0 0 37.519 37.519;" xml:space="preserve">
<g>
	<path d="M37.087,17.705c-0.334-0.338-8.284-8.276-18.327-8.276S0.766,17.367,0.433,17.705c-0.577,0.584-0.577,1.523,0,2.107   c0.333,0.34,8.284,8.277,18.327,8.277s17.993-7.938,18.327-8.275C37.662,19.23,37.662,18.29,37.087,17.705z M18.76,25.089   c-6.721,0-12.604-4.291-15.022-6.332c2.411-2.04,8.281-6.328,15.022-6.328c6.72,0,12.604,4.292,15.021,6.332   C31.369,20.802,25.501,25.089,18.76,25.089z M18.76,13.009c3.176,0,5.75,2.574,5.75,5.75c0,3.175-2.574,5.75-5.75,5.75   c-3.177,0-5.75-2.574-5.75-5.75C13.01,15.584,15.583,13.009,18.76,13.009z" fill="#FFFFFF"/>
</g>
<g>
</g>
<g>
</g>
<g>
</g>
<g>
</g>
<g>
</g>
<g>
</g>
<g>
</g>
<g>
</g>
<g>
</g>
<g>
</g>
<g>
</g>
<g>
</g>
<g>
</g>
<g>
</g>
<g>
</g>
</svg>
