<?xml version="1.0" encoding="iso-8859-1"?>
<!-- Generator: Adobe Illustrator 19.0.0, SVG Export Plug-In . SVG Version: 6.00 Build 0)  -->
<svg xmlns="http://www.w3.org/2000/svg" xmlns:xlink="http://www.w3.org/1999/xlink" version="1.1" id="Layer_1" x="0px" y="0px" viewBox="0 0 511.999 511.999" style="enable-background:new 0 0 511.999 511.999;" xml:space="preserve" width="512px" height="512px">
<g>
	<g>
		<path d="M510.599,437.069l-17.617-30.516c4.579-1.11,7.98-5.235,7.98-10.155c0-2.131-0.637-4.113-1.732-5.765l-18.916-32.762    c4.864-0.892,8.549-5.154,8.549-10.276c0-2.13-0.636-4.113-1.731-5.765L428.75,240.708c-1.866-3.233-5.315-5.224-9.049-5.224    c-3.732,0-7.183,1.992-9.049,5.224l-13.751,23.817l-50.043-86.089c-1.87-3.218-5.311-5.198-9.034-5.198    c-3.723,0-7.163,1.98-9.034,5.198l-13.888,23.891l-49.685-85.476c-1.87-3.218-5.311-5.198-9.033-5.198    c-3.722,0-7.163,1.98-9.034,5.198l-49.884,85.817l-14.087-24.233c-1.87-3.218-5.311-5.198-9.033-5.198    c-3.722,0-7.163,1.98-9.034,5.198l-50.029,86.068l-13.738-23.796c-1.866-3.233-5.316-5.224-9.049-5.224    c-3.732,0-7.183,1.992-9.049,5.224L24.554,342.37c-1.866,3.233-1.866,7.216,0,10.449c1.542,2.671,4.163,4.494,7.132,5.048    l-19.229,33.306c-1.866,3.233-1.866,7.216,0,10.449c1.443,2.498,3.829,4.255,6.563,4.925L1.4,437.068    c-1.866,3.233-1.866,7.216,0,10.449c1.866,3.233,5.316,5.224,9.049,5.224H81.85v38.205H69.151c-5.77,0-10.449,4.679-10.449,10.449    c0,5.771,4.679,10.449,10.449,10.449H443.22c5.771,0,10.449-4.678,10.449-10.449c0-5.77-4.678-10.448-10.449-10.448h-13.07    v-38.205h71.401c3.732,0,7.182-1.992,9.049-5.224C512.465,444.285,512.465,440.302,510.599,437.069z M256.185,142.894    l46.633,80.225l-24.044,41.363l-13.727-23.775c-1.866-3.233-5.315-5.224-9.049-5.224c-3.732,0-7.183,1.992-9.049,5.224    l-13.739,23.796l-23.858-41.042L256.185,142.894z M289.565,352.817l19.301,33.43c-2.732,0.67-5.12,2.426-6.562,4.925    c-1.866,3.233-1.866,7.216,0,10.449l17.449,30.222H192.247l17.449-30.222c1.866-3.231,1.866-7.215,0-10.448    c-1.443-2.499-3.831-4.255-6.564-4.925l19.302-33.43c1.866-3.233,1.866-7.216,0-10.449c-1.542-2.671-4.163-4.494-7.133-5.048    l40.7-70.492l13.438,23.277c0.158,0.311,0.333,0.613,0.525,0.908l26.733,46.307c-2.969,0.553-5.59,2.376-7.131,5.047    C287.699,345.601,287.699,349.584,289.565,352.817z M28.546,431.844l17.449-30.222c1.866-3.233,1.866-7.216,0-10.449    c-1.442-2.498-3.831-4.255-6.563-4.925l19.301-33.43c1.866-3.233,1.866-7.216,0-10.449c-1.542-2.671-4.163-4.494-7.132-5.048    l40.698-70.492l40.698,70.492c-2.97,0.554-5.591,2.377-7.132,5.048c-1.866,3.233-1.866,7.216,0,10.449l19.302,33.43    c-2.733,0.67-5.121,2.426-6.563,4.925c-1.866,3.233-1.866,7.216,0,10.449l17.449,30.222H28.546z M163.7,490.947h-60.952v-38.205    H163.7V490.947z M174.149,421.396l-8.569-14.842c4.58-1.109,7.981-5.236,7.981-10.156c0-2.131-0.636-4.113-1.731-5.765    l-18.917-32.762c4.864-0.892,8.55-5.154,8.55-10.276c0-2.13-0.637-4.113-1.732-5.765l-32.598-56.464l47.016-80.888l47.019,80.888    l-32.912,57.004c-1.866,3.233-1.866,7.216,0,10.449c1.542,2.671,4.163,4.494,7.132,5.048l-19.23,33.307    c-1.866,3.233-1.866,7.216,0,10.449c1.443,2.499,3.831,4.256,6.564,4.926L174.149,421.396z M245.552,490.947h-60.954v-38.205    h60.954V490.947z M327.378,490.947h-60.928v-38.205h60.928V490.947z M337.851,421.396l-8.569-14.843    c4.58-1.11,7.98-5.235,7.98-10.155c0-2.13-0.637-4.113-1.732-5.765l-18.916-32.762c4.863-0.892,8.549-5.154,8.549-10.276    c0-2.131-0.636-4.113-1.731-5.765l-32.61-56.484l47.004-80.867l47.03,80.909l-32.899,56.983c-1.866,3.233-1.866,7.216,0,10.449    c1.541,2.671,4.163,4.494,7.132,5.048l-19.23,33.307c-1.866,3.233-1.866,7.216,0,10.449c1.443,2.499,3.831,4.256,6.564,4.926    L337.851,421.396z M409.253,490.948h-60.977v-38.205h60.977V490.948z M355.948,431.844l17.449-30.222    c1.866-3.233,1.866-7.216,0-10.449c-1.443-2.499-3.831-4.255-6.564-4.925l19.302-33.43c1.866-3.233,1.866-7.216,0-10.449    c-1.542-2.671-4.163-4.494-7.133-5.048l40.7-70.492l40.697,70.493c-2.97,0.553-5.59,2.376-7.131,5.047    c-1.866,3.233-1.866,7.216,0,10.449l19.301,33.43c-2.732,0.67-5.12,2.426-6.562,4.925c-1.866,3.233-1.866,7.216,0,10.449    l17.448,30.222H355.948z" fill="#FFFFFF"/>
	</g>
</g>
<g>
	<g>
		<path d="M33.625,490.948H10.637c-5.77,0-10.449,4.679-10.449,10.449c0,5.771,4.678,10.449,10.449,10.449h22.987    c5.771,0,10.449-4.678,10.449-10.449C44.074,495.626,39.396,490.948,33.625,490.948z" fill="#FFFFFF"/>
	</g>
</g>
<g>
	<g>
		<path d="M500.718,490.948h-21.971c-5.77,0-10.449,4.679-10.449,10.449c0,5.771,4.679,10.449,10.449,10.449h21.971    c5.77,0,10.449-4.678,10.449-10.449C511.167,495.626,506.488,490.948,500.718,490.948z" fill="#FFFFFF"/>
	</g>
</g>
<g>
	<g>
		<path d="M182.066,37.639c-11.758-22.695-35.636-37.485-61.602-37.485s-49.841,14.79-61.598,37.485    c-32.48,0.806-58.654,27.47-58.654,60.13c0,5.77,4.678,10.449,10.449,10.449h219.608c5.771,0,10.449-4.679,10.449-10.449    C240.718,65.109,214.547,38.445,182.066,37.639z M22.522,87.319c4.589-16.585,19.824-28.801,37.859-28.801    c1.318,0,2.686,0.07,4.072,0.21c4.687,0.471,9.121-2.256,10.807-6.659c7.104-18.553,25.271-31.018,45.205-31.018    c19.935,0,38.104,12.465,45.209,31.018c1.686,4.404,6.096,7.13,10.808,6.659c1.382-0.14,2.752-0.21,4.068-0.21    c18.036,0,33.27,12.215,37.858,28.801H22.522z" fill="#FFFFFF"/>
	</g>
</g>
<g>
</g>
<g>
</g>
<g>
</g>
<g>
</g>
<g>
</g>
<g>
</g>
<g>
</g>
<g>
</g>
<g>
</g>
<g>
</g>
<g>
</g>
<g>
</g>
<g>
</g>
<g>
</g>
<g>
</g>
</svg>
