<?xml version="1.0" encoding="iso-8859-1"?>
<!-- Generator: Adobe Illustrator 19.0.0, SVG Export Plug-In . SVG Version: 6.00 Build 0)  -->
<svg xmlns="http://www.w3.org/2000/svg" xmlns:xlink="http://www.w3.org/1999/xlink" version="1.1" id="Layer_1" x="0px" y="0px" viewBox="0 0 512 512" style="enable-background:new 0 0 512 512;" xml:space="preserve" width="512px" height="512px">
<g>
	<g>
		<path d="M312.461,332.734H199.539c-8.511,0-15.434,6.923-15.434,15.434v34.634c0,8.511,6.923,15.435,15.434,15.435h112.923    c8.511,0,15.435-6.923,15.435-15.435v-34.634C327.895,339.658,320.972,332.734,312.461,332.734z M308.051,378.393H203.948v-25.814    h104.103V378.393z" fill="#FFFFFF"/>
	</g>
</g>
<g>
	<g>
		<path d="M506.976,246.958l0.159-0.08L432.73,99.774c-6.015-11.89-18.025-19.275-31.346-19.275h-14.141V66.824    c0-5.48-4.442-9.922-9.922-9.922H134.68c-5.48,0-9.922,4.442-9.922,9.922v13.675h-14.141c-13.321,0-25.331,7.385-31.346,19.275    L4.865,246.878l0.159,0.08C1.837,252.207,0,258.363,0,264.939v155.409c0,19.162,15.59,34.751,34.752,34.751h442.497    c19.162,0,34.751-15.59,34.751-34.751V264.939C512,258.363,510.163,252.207,506.976,246.958z M387.242,102.548h14.141    c4.959,0,9.43,2.751,11.671,7.179l60.93,120.462h-41.431v-37.066c0-5.48-4.442-9.922-9.922-9.922h-12.275v-53.227    c0-5.48-4.442-9.922-9.922-9.922h-13.192V102.548z M412.71,203.044v27.144h-52.359c-8.984,0-17.174,5.293-20.865,13.482    l-14.296,31.71c-0.136,0.299-0.435,0.493-0.764,0.493H187.575c-0.329,0-0.628-0.194-0.764-0.494l-14.295-31.708    c-3.692-8.19-11.882-13.483-20.866-13.483H99.291v-27.144H412.71z M144.602,76.746h222.796v43.305H144.602V76.746z     M390.512,139.895v43.305H121.488v-43.305H390.512z M98.946,109.727c2.24-4.429,6.712-7.179,11.671-7.179h14.141v17.503h-13.192    c-5.48,0-9.922,4.442-9.922,9.922v53.227H89.369c-5.48,0-9.922,4.442-9.922,9.922v37.066H38.016L98.946,109.727z M477.249,433.049    H34.752c-7.004,0-12.703-5.699-12.703-12.701V264.939c0-7.003,5.698-12.701,12.703-12.701H151.65c0.328,0,0.629,0.194,0.765,0.495    l14.295,31.708c3.692,8.19,11.881,13.481,20.865,13.481h136.85c8.984,0,17.174-5.292,20.865-13.48l14.296-31.709v-0.001    c0.136-0.3,0.435-0.494,0.764-0.494h116.898c7.004,0,12.701,5.699,12.701,12.701v155.409h0.001    C489.951,427.352,484.253,433.049,477.249,433.049z" fill="#FFFFFF"/>
	</g>
</g>
<g>
</g>
<g>
</g>
<g>
</g>
<g>
</g>
<g>
</g>
<g>
</g>
<g>
</g>
<g>
</g>
<g>
</g>
<g>
</g>
<g>
</g>
<g>
</g>
<g>
</g>
<g>
</g>
<g>
</g>
</svg>
