<?xml version="1.0" encoding="iso-8859-1"?>
<!-- Generator: Adobe Illustrator 19.0.0, SVG Export Plug-In . SVG Version: 6.00 Build 0)  -->
<svg xmlns="http://www.w3.org/2000/svg" xmlns:xlink="http://www.w3.org/1999/xlink" version="1.1" id="Layer_1" x="0px" y="0px" viewBox="0 0 478.191 478.191" style="enable-background:new 0 0 478.191 478.191;" xml:space="preserve" width="512px" height="512px">
<g>
	<g>
		<path d="M472.723,105.131L242.323,0.598c-1.032-0.408-2.133-0.611-3.243-0.597c-1.228-0.009-2.445,0.223-3.584,0.683    L5.097,105.046c-4.312,1.901-6.267,6.939-4.365,11.251c0.859,1.949,2.416,3.506,4.365,4.365l230.4,111.957    c2.225,1,4.772,1,6.997,0l230.4-111.872c3.082-1.425,5.025-4.542,4.949-7.936C477.788,109.47,475.787,106.468,472.723,105.131z" fill="#FFFFFF"/>
	</g>
</g>
<g>
	<g>
		<path d="M473.065,233.131l-99.669-45.397l-123.477,59.733c-6.868,3.209-14.806,3.209-21.675,0l-123.477-59.733L5.438,233.046    c-4.312,1.901-6.267,6.939-4.365,11.251c0.859,1.949,2.416,3.506,4.365,4.365l230.4,111.957c2.225,1,4.772,1,6.997,0    l230.4-111.872c3.082-1.425,5.025-4.542,4.949-7.936C478.129,237.47,476.128,234.468,473.065,233.131z" fill="#FFFFFF"/>
	</g>
</g>
<g>
	<g>
		<path d="M473.065,350.038l-87.467-40.021l-135.68,65.963c-6.868,3.209-14.806,3.209-21.675,0l-135.68-65.963L5.438,349.867    c-4.312,1.901-6.267,6.939-4.365,11.251c0.859,1.949,2.416,3.506,4.365,4.365l230.4,111.957c2.225,1,4.772,1,6.997,0    l230.4-111.787c3.082-1.425,5.025-4.542,4.949-7.936C478.129,354.376,476.128,351.374,473.065,350.038z" fill="#FFFFFF"/>
	</g>
</g>
<g>
</g>
<g>
</g>
<g>
</g>
<g>
</g>
<g>
</g>
<g>
</g>
<g>
</g>
<g>
</g>
<g>
</g>
<g>
</g>
<g>
</g>
<g>
</g>
<g>
</g>
<g>
</g>
<g>
</g>
</svg>
