<?xml version="1.0" encoding="iso-8859-1"?>
<!-- Generator: Adobe Illustrator 19.0.0, SVG Export Plug-In . SVG Version: 6.00 Build 0)  -->
<svg xmlns="http://www.w3.org/2000/svg" xmlns:xlink="http://www.w3.org/1999/xlink" version="1.1" id="Capa_1" x="0px" y="0px" viewBox="0 0 420.8 420.8" style="enable-background:new 0 0 420.8 420.8;" xml:space="preserve" width="512px" height="512px">
<g>
	<path d="M402.45,0h-73.3c-9.8,0-17.9,8-17.9,17.9c0,9.8,8,17.9,17.9,17.9h32.1l-88.8,88l-49.6-49.6c-7.1-6.3-18.8-6.3-25,0   L73.65,198.3c-7.1,7.1-7.1,17.9,0,25l49.6,49.6L36.15,360v-30.4c0-9.8-8-17.9-17.9-17.9c-9.8,0-17.9,8-17.9,17.9v73.3   c0,9.8,8,17.9,17.9,17.9h73.3c8.9,0,17.9-8,17.9-17.9c0-9.8-8-17.9-17.9-17.9h-31.2l87.9-87.1l49.6,49.6c7.6,7.6,18.4,6.6,25,0   l124.2-124.1c6.9-6.9,7.6-17.5,0-25l-49.5-49.5l87.1-86.4v28.7c0,9.8,8,17.9,17.9,17.9c9.8,0,17.9-8,17.9-17.9V17.9   C420.25,8.1,412.25,0,402.45,0z M210.35,310l-99.2-99.2l99.2-99.2l99.2,99.2L210.35,310z" fill="#FFFFFF"/>
</g>
<g>
</g>
<g>
</g>
<g>
</g>
<g>
</g>
<g>
</g>
<g>
</g>
<g>
</g>
<g>
</g>
<g>
</g>
<g>
</g>
<g>
</g>
<g>
</g>
<g>
</g>
<g>
</g>
<g>
</g>
</svg>
