<?xml version="1.0" encoding="UTF-8" standalone="no"?>
<!-- Generator: Adobe Illustrator 16.0.0, SVG Export Plug-In . SVG Version: 6.00 Build 0)  -->

<svg
   xmlns:dc="http://purl.org/dc/elements/1.1/"
   xmlns:cc="http://creativecommons.org/ns#"
   xmlns:rdf="http://www.w3.org/1999/02/22-rdf-syntax-ns#"
   xmlns:svg="http://www.w3.org/2000/svg"
   xmlns="http://www.w3.org/2000/svg"
   xmlns:sodipodi="http://sodipodi.sourceforge.net/DTD/sodipodi-0.dtd"
   xmlns:inkscape="http://www.inkscape.org/namespaces/inkscape"
   version="1.1"
   id="Capa_1"
   x="0px"
   y="0px"
   width="512px"
   height="512px"
   viewBox="0 0 592.813 592.814"
   style="enable-background:new 0 0 592.813 592.814;"
   xml:space="preserve"
   inkscape:version="0.92.0 r15299"
   sodipodi:docname="smooth_terrain.svg"><metadata
     id="metadata41"><rdf:RDF><cc:Work
         rdf:about=""><dc:format>image/svg+xml</dc:format><dc:type
           rdf:resource="http://purl.org/dc/dcmitype/StillImage" /><dc:title /></cc:Work></rdf:RDF></metadata><defs
     id="defs39" /><sodipodi:namedview
     pagecolor="#ffffff"
     bordercolor="#666666"
     borderopacity="1"
     objecttolerance="10"
     gridtolerance="10"
     guidetolerance="10"
     inkscape:pageopacity="0"
     inkscape:pageshadow="2"
     inkscape:window-width="1920"
     inkscape:window-height="1018"
     id="namedview37"
     showgrid="false"
     inkscape:zoom="0.64"
     inkscape:cx="-225.81749"
     inkscape:cy="118.7176"
     inkscape:window-x="1912"
     inkscape:window-y="-8"
     inkscape:window-maximized="1"
     inkscape:current-layer="g4976" /><g
     id="g7" /><g
     id="g9" /><g
     id="g11" /><g
     id="g13" /><g
     id="g15" /><g
     id="g17" /><g
     id="g19" /><g
     id="g21" /><g
     id="g23" /><g
     id="g25" /><g
     id="g27" /><g
     id="g29" /><g
     id="g31" /><g
     id="g33" /><g
     id="g35" /><g
     id="g4181"
     transform="matrix(21.091422,0,0,21.091422,-5477.5351,-6190.1019)"><g
       id="g4976"
       transform="matrix(21.085478,0,0,21.085478,-5466.291,-6372.1793)"><path
         style="opacity:1;fill:#f5f5f5;fill-opacity:1;fill-rule:evenodd;stroke:none;stroke-width:384.09692383;stroke-linecap:square;stroke-linejoin:bevel;stroke-miterlimit:4;stroke-dasharray:none;stroke-dashoffset:0.98573762;stroke-opacity:1"
         d="M 277.30273 10.875 L 277.30273 42.064453 L 265.51172 21.667969 L 256.48438 26.853516 L 287.25 79.320312 L 318.01758 26.853516 L 308.99023 21.667969 L 297.16016 42.064453 L 297.16016 10.875 L 287.25 10.875 L 277.30273 10.875 z M 483.37109 27.298828 L 427.79102 82.878906 L 433.89062 60.125 L 433.88086 60.123047 L 433.88281 60.117188 L 423.78125 57.427734 L 408.45703 116.2793 L 408.4668 116.27734 L 408.46484 116.28711 L 467.31641 100.92383 L 464.62695 90.820312 L 464.62109 90.822266 L 464.61914 90.8125 L 441.86328 96.914062 L 497.44336 41.333984 L 497.43555 41.326172 L 490.41602 34.304688 L 490.4082 34.296875 L 483.38672 27.314453 L 483.37891 27.306641 L 483.37109 27.298828 z M 238.68945 67.771484 L 238.4668 68.117188 C 238.4668 68.117188 229.13232 74.991858 218.53125 81.982422 C 213.23071 85.439294 207.62414 88.974078 202.97656 91.585938 C 198.32899 94.274616 193.56647 95.656892 194.94922 95.464844 C 183.54154 97.001231 172.36344 99.727385 161.57031 103.45312 C 150.77719 107.29409 140.44616 111.94232 130.61328 117.62695 C 120.7804 123.31159 111.48398 129.91831 102.8418 137.4082 C 94.238026 144.89809 86.288086 153.19378 79.220703 162.29688 C 72.11491 171.39997 65.892334 181.31038 60.591797 191.87305 C 55.329669 202.43571 51.026548 213.65224 47.876953 225.48242 C 44.804178 237.31261 42.769499 249.21929 42.078125 260.97266 C 41.309931 272.76443 41.848389 284.43998 43.615234 295.84766 C 45.151622 307.29374 47.916838 318.4725 51.642578 329.26562 C 55.483547 340.05875 60.092709 350.38978 65.777344 360.22266 C 71.461978 370.05554 78.068704 379.38842 85.558594 387.99219 C 93.048484 396.63437 101.38323 404.50879 110.48633 411.57617 C 119.58943 418.68196 129.46077 424.9436 140.02344 430.24414 C 150.5861 435.50627 161.83974 439.80744 173.66992 442.95703 C 185.50011 446.02981 197.36838 448.06644 209.16016 448.75781 C 220.91352 449.52601 232.59102 448.96834 244.03711 447.2207 C 255.44479 445.68432 266.62029 442.95816 277.375 439.23242 C 288.16812 435.39145 298.54017 430.74323 308.37305 425.05859 C 318.20593 419.37396 327.46133 412.76723 336.10352 405.27734 C 344.70729 397.78745 352.65788 389.49177 359.76367 380.38867 C 366.86946 371.28557 373.09204 361.37517 378.39258 350.8125 C 383.65471 340.24983 387.99494 329.03331 391.14453 317.20312 C 391.33274 316.43493 393.45063 311.59546 395.83203 306.29492 C 398.52071 300.99438 401.66876 294.77317 404.81836 288.89648 C 411.11755 277.10471 417.10938 266.61914 417.10938 266.61914 L 417.02539 254.78906 C 417.02539 254.78906 414.33778 250.60131 412.0332 245.18555 C 409.72862 239.80819 407.69141 232.66467 407.69141 231.78125 C 407.73366 229.86077 410.38035 221.75557 413.56836 215.41797 C 416.64113 209.11878 419.90625 204.16406 419.90625 204.16406 L 415.64258 187.5332 C 415.64258 187.5332 411.41776 185.22901 406.92383 181.92578 C 402.39148 178.46891 398.28256 173.32034 398.47461 173.89648 C 397.70642 171.976 398.14372 161.14608 400.39453 152.27344 C 402.69911 143.4008 405.34961 136.17969 405.34961 136.17969 L 393.25 120.20117 C 393.25 120.20117 385.06987 120.96808 375.50586 120.58398 C 365.94185 120.24598 355.18612 117.51296 353.49609 116.0918 C 353.53834 116.0918 349.38533 109.36819 347.58008 102.87695 C 345.65959 96.385715 344.89258 90.664062 344.89258 90.664062 L 329.2207 81.253906 C 329.2207 81.253906 320.27098 84.709754 309.20898 87.283203 C 298.10858 89.971882 284.47309 91.39253 279.78711 90.355469 C 277.86662 89.971372 270.0694 84.863043 264.38477 79.677734 C 258.70013 74.492426 254.47656 69.691406 254.47656 69.691406 L 238.68945 67.771484 z M 243.71289 92.642578 L 244.03711 92.853516 C 245.95759 94.774 245.95649 94.773549 248.33789 97.193359 C 255.098 103.33891 262.85793 110.48255 273.80469 113.24805 C 287.59377 116.70492 302.15005 113.46048 314.65625 110.56055 C 320.03361 109.40826 320.45656 109.02272 324.33594 107.48633 C 324.60865 108.63862 324.46141 108.64001 324.71875 109.4082 C 327.02333 117.62788 329.36632 127.42091 338.73828 134.71875 C 349.80027 143.39934 363.12878 143.78452 374.49805 144.20703 L 377.95508 144.20703 C 377.59019 145.35932 377.5716 145.35814 377.1875 146.89453 C 374.49882 157.41879 371.54122 169.63339 376.03516 182.19336 C 379.49203 192.17988 386.8284 196.86608 392.70508 201.16797 C 393.47327 201.55207 393.47332 201.50536 393.85742 201.93555 C 393.08923 203.47193 393.08979 203.47338 391.9375 205.00977 C 388.09653 212.49966 383.75455 221.10204 383.5625 231.47266 C 383.3935 240.95985 387.02097 248.45017 389.97852 255.05664 C 391.5149 258.12942 391.89849 258.51312 393.05078 260.66406 C 391.1303 264.12093 388.44183 268.73154 383.52539 277.87305 C 380.45262 283.94178 376.91784 290.3948 374.15234 296.15625 C 371.46367 301.9177 369.19851 306.41168 367.89258 311.21289 L 367.84961 311.21289 C 365.16093 321.50669 361.39693 331.26279 356.82617 340.4043 C 352.25542 349.5458 346.83891 358.14945 340.69336 366.02344 C 334.54781 373.89742 327.67348 381.11814 320.18359 387.60938 C 312.6937 394.10061 304.62656 399.8609 296.09961 404.77734 C 287.57266 409.69378 278.54645 413.84195 269.21289 417.06836 C 259.87934 420.14113 250.16165 422.63874 240.25195 424.02148 C 230.34225 425.55787 220.24237 425.94202 210.02539 425.17383 C 199.80841 424.40563 189.47544 422.86967 179.18164 420.14258 C 168.88784 417.4539 159.13174 413.65083 149.99023 409.08008 C 140.84873 404.50932 132.32255 399.09282 124.41016 392.94727 C 116.49776 386.80171 109.3135 379.9645 102.82227 372.47461 C 96.331028 364.98472 90.570737 356.91953 85.654297 348.39258 C 80.699447 339.86563 76.589695 330.83941 73.363281 321.50586 C 70.290506 312.13389 67.792905 302.45462 66.410156 292.54492 C 64.873769 282.63522 64.489619 272.53338 65.257812 262.31641 C 66.026006 252.09943 67.561974 241.80552 70.289062 231.51172 C 72.977741 221.21792 76.780809 211.46182 81.351562 202.32031 C 85.922316 193.17881 91.338824 184.57516 97.484375 176.70117 C 103.62993 168.82719 110.46714 161.60647 117.95703 155.11523 C 125.40851 148.624 133.51211 142.86175 142.03906 137.94531 C 150.56601 133.02887 159.59223 128.88071 168.92578 125.6543 C 178.25934 122.58152 187.97702 120.08587 197.88672 118.70312 L 197.92969 118.70312 C 204.65138 117.93493 208.64609 115.2453 214.13867 112.0957 C 219.63126 109.02293 225.54648 105.2596 231.1543 101.57227 C 237.83758 97.155151 239.83351 95.619013 243.71289 92.853516 L 243.71289 92.642578 z M 213.72656 120.75391 L 213.63477 120.83008 L 213.25 120.83008 L 203.87891 121.59961 L 198.57812 121.98242 L 199.3457 132.62305 L 204.64648 132.23828 L 213.51953 131.4707 L 213.60352 131.4707 L 214.75586 131.4707 L 220.0957 131.4707 L 220.17969 120.75391 L 214.87891 120.75391 L 213.72656 120.75391 z M 253.40039 124.0293 L 253.74609 124.41406 L 250.28906 134.59375 L 250.7207 134.72266 L 250.63477 134.97656 L 255.74414 136.51367 L 265.92188 139.58594 L 271.03125 141.12305 L 274.10352 130.94336 L 273.68164 130.81445 L 273.75781 130.56055 L 268.6875 129.02344 L 258.4707 125.56641 L 253.40039 124.0293 z M 165.90234 130.7168 L 160.94922 132.63867 L 157.10742 134.17383 L 156.72266 134.38477 L 150.88477 137.45898 L 146.12305 139.76367 L 151.03906 149.28906 L 155.80078 146.98438 L 161.17969 144.29492 L 161.42773 144.29492 L 161.64062 144.08789 L 165.0957 142.93555 L 170.08984 141.01562 L 166.0957 131.10547 L 165.90234 130.7168 z M 303.99023 146.61523 L 303.7832 146.85742 L 303.57422 147.09961 L 297.42969 155.74023 L 301.80859 158.81445 L 305.26562 161.11914 L 305.43359 161.33008 L 309.8125 165.16992 L 313.8457 168.62695 L 320.83594 160.52344 L 320.83398 160.52344 L 321.04297 160.28125 L 317.01172 156.82422 L 312.20898 152.71484 L 311.82617 152.37695 L 308.36914 149.6875 L 303.99023 146.61523 z M 118.80469 159.11328 L 118.74805 159.50195 L 114.90625 162.95898 L 110.2207 167.45312 L 109.84766 167.83203 L 107.16016 170.90625 L 103.70312 174.9375 L 111.76953 181.92969 L 115.22461 177.85742 L 117.91406 174.78516 L 117.99805 174.78516 L 122.33984 170.67578 L 126.21875 166.83398 L 118.80469 159.11328 z M 343.07227 185.57031 L 334.08398 191.33203 L 337.15625 195.82617 L 340.61328 201.20312 L 342.5332 204.66016 L 344.83789 209.42188 L 354.36328 204.50586 L 352.06055 199.74414 L 350.13867 196.28711 L 349.89258 195.90234 L 346.05273 190.10156 L 343.36328 185.60938 L 343.07227 185.57031 z M 474.0293 201.71289 L 421.56641 232.48047 L 474.0293 263.24609 L 479.21484 254.2207 L 458.82031 242.38867 L 492.88867 242.38867 L 492.88867 232.48047 L 492.88867 222.53125 L 458.82031 222.53125 L 479.21484 210.74023 L 474.0293 201.71289 z M 85.039062 202.86523 L 85.019531 203.28125 L 82.714844 208.08203 L 78.605469 217.45312 L 78.4375 217.83789 L 78.267578 218.22266 L 76.730469 223.33008 L 86.910156 226.4043 L 88.445312 221.33398 L 88.53125 220.99609 L 88.572266 220.99609 L 92.490234 212.08398 L 94.794922 207.16797 L 85.039062 202.86523 z M 365.8457 235.89453 L 355.32031 237.81445 L 356.47266 243.07617 L 358.00977 251.79688 L 358.00977 252.00781 L 358.13672 253.16016 L 358.51953 258.46094 L 369.16016 257.69141 L 368.77539 252.35352 L 368.64844 251.20117 L 368.56445 250.81641 L 366.64453 241.52148 L 365.49219 236.29688 L 365.8457 235.89453 z M 69.779297 255.54883 L 69.740234 255.70312 L 68.972656 261.08008 L 68.849609 262.23242 L 68.849609 262.61523 L 68.722656 272.17969 L 68.679688 277.51953 L 79.396484 277.51953 L 79.439453 272.21875 L 79.523438 263.1543 L 79.650391 262.00195 L 80.417969 256.70117 L 69.779297 255.54883 z M 358.55469 288.81445 L 358.40039 288.92969 L 358.52344 288.95703 L 358.55469 288.81445 z M 358.52344 288.95703 L 357.40234 294.1543 L 355.09766 304.60156 L 354.33008 307.67383 L 352.79297 312.74414 L 362.97266 316.20117 L 364.125 312.36133 L 364.29297 312.36133 L 364.58203 310.82422 L 364.62305 310.61328 L 366.16016 305.6582 L 365.77539 305.44727 L 367.69531 296.45898 L 368.84766 291.23438 L 358.52344 288.95703 z M 84.179688 307.62891 L 84.255859 307.88281 L 84.402344 307.83984 L 84.179688 307.62891 z M 84.255859 307.88281 L 74.146484 310.91211 L 75.683594 316.05859 L 76.835938 320.20703 L 77.003906 320.5918 L 79.308594 326.46875 L 81.228516 331.46094 L 91.177734 327.4668 L 89.255859 322.51172 L 86.951172 316.82812 L 86.867188 316.61719 L 85.714844 312.77539 L 84.255859 307.88281 z M 340.64062 340.95312 L 337.95117 345.59961 L 337.56836 346.36914 L 332.26758 353.93555 L 329.19336 358.31445 L 337.91406 364.49805 L 340.98633 360.08008 L 346.63281 352.0918 L 346.91992 351.70703 L 347.30469 350.93945 L 349.99414 346.29102 L 340.69727 341.0293 L 340.64062 340.95312 z M 106.41797 353.89258 L 106.47656 354.00781 L 98.064453 360.57617 L 101.52148 364.76367 L 105.63086 369.98633 L 106 370.37109 L 108.6875 373.05859 L 112.5293 376.93945 L 120.28711 369.52539 L 116.44727 365.64648 L 113.75781 362.95703 L 113.7168 362.95703 L 109.875 358.08008 L 106.41797 353.89258 z M 307.46289 379.53906 L 307.57031 379.99219 L 303.38281 383.06445 L 300.69531 384.98633 L 300.44531 385.19336 L 300.2793 385.4043 L 294.82617 388.86133 L 290.29297 391.93359 L 296.09375 400.92188 L 300.58594 397.84961 L 306.46289 394.00781 L 306.84766 393.71289 L 309.91992 391.4082 L 314.10742 387.95117 L 307.46289 379.53906 z M 143.58398 389.17578 L 143.46094 389.20312 L 143.54297 389.25 L 143.58398 389.17578 z M 143.54297 389.25 L 138.35938 398.43359 L 143.00781 401.12109 L 151.64844 406 L 152.0332 406.25391 L 152.80078 406.5918 L 157.71875 408.89648 L 162.05859 399.10156 L 157.14258 396.79688 L 156.37305 396.5 L 156.28906 396.5 L 148.14648 391.89258 L 143.54297 389.25 z M 262.43359 403.88672 L 262.55664 404.29688 L 262.72266 404.24805 L 262.43359 403.88672 z M 262.72266 404.24805 L 262.74023 404.30859 L 263.00977 404.22852 L 262.72266 404.24805 z M 262.74023 404.30859 L 262.57422 404.35742 L 262.55664 404.29688 L 257.57617 405.78516 L 252.28711 407.30469 L 252.20508 407.32031 L 252.02539 407.32031 L 247.68555 408.08984 L 242.46094 409.24219 L 244.38281 419.72656 L 244.66211 419.66602 L 244.66992 419.70703 L 249.93164 418.55469 L 254.42578 417.78711 L 254.81055 417.57617 L 260.6875 416.03906 L 265.79492 414.50391 L 262.74023 404.30859 z M 191.30273 408.41602 L 191.27539 408.54102 L 191.1875 408.56836 L 191.26562 408.58594 L 188.99805 418.70898 L 189.14258 418.74023 L 189.13281 418.78516 L 194.35742 419.9375 L 195.125 420.15039 L 195.50977 420.36133 L 205.3418 421.51367 L 210.64258 421.89648 L 210.65234 421.80273 L 210.89258 421.82031 L 212.04492 411.18164 L 206.74414 410.79688 L 196.91211 409.64453 L 196.66211 409.64453 L 191.4375 408.49219 L 191.30273 408.41602 z "
         transform="matrix(0.00260351,0,0,0.00260351,271.56109,316.12603)"
         id="path4451" /></g></g></svg>