<?xml version="1.0" encoding="iso-8859-1"?>
<!-- Generator: Adobe Illustrator 16.0.0, SVG Export Plug-In . SVG Version: 6.00 Build 0)  -->
<!DOCTYPE svg PUBLIC "-//W3C//DTD SVG 1.1//EN" "http://www.w3.org/Graphics/SVG/1.1/DTD/svg11.dtd">
<svg xmlns="http://www.w3.org/2000/svg" xmlns:xlink="http://www.w3.org/1999/xlink" version="1.1" id="Capa_1" x="0px" y="0px" width="512px" height="512px" viewBox="0 0 26.762 26.762" style="enable-background:new 0 0 26.762 26.762;" xml:space="preserve">
<g>
	<g>
		<path d="M26.727,12.677c-0.134-2.512-0.945-4.845-2.279-6.805C22.62,3.188,19.839,1.214,16.6,0.41    c-1.035-0.257-2.107-0.409-3.219-0.409c-1.438,0-2.822,0.235-4.121,0.657C6.12,1.678,3.495,3.83,1.851,6.629    c-0.909,1.542-1.517,3.276-1.742,5.132C0.045,12.293,0,12.832,0,13.381c0,2.961,0.979,5.688,2.613,7.908    c1.617,2.196,3.881,3.881,6.517,4.769c1.338,0.449,2.764,0.703,4.251,0.703c2.01,0,3.909-0.458,5.621-1.255    c1.859-0.866,3.491-2.138,4.77-3.713c1.865-2.3,2.99-5.228,2.99-8.412C26.762,13.144,26.736,12.911,26.727,12.677z M24.01,12.677    l-2.751,4.764l1.813,3.14c-1.221,1.637-2.84,2.956-4.715,3.808l-1.383-2.391h-5.5l-1.691,2.928    c-2.627-0.82-4.872-2.517-6.393-4.744l2.112-3.656l-2.75-4.764H1.413c0.253-1.88,0.928-3.628,1.943-5.132h3.849l2.75-4.765    L9.921,1.802c1.097-0.33,2.257-0.511,3.46-0.511c0.874,0,1.727,0.099,2.549,0.276l-0.172,0.297l2.75,4.765h4.896    c1.18,1.745,1.9,3.819,2.031,6.048H24.01z" fill="#FFFFFF"/>
		<polygon points="10.631,8.456 7.88,13.22 10.631,17.983 16.131,17.983 18.882,13.22 16.131,8.456   " fill="#FFFFFF"/>
	</g>
</g>
<g>
</g>
<g>
</g>
<g>
</g>
<g>
</g>
<g>
</g>
<g>
</g>
<g>
</g>
<g>
</g>
<g>
</g>
<g>
</g>
<g>
</g>
<g>
</g>
<g>
</g>
<g>
</g>
<g>
</g>
</svg>
