<?xml version="1.0" encoding="iso-8859-1"?>
<!-- Generator: Adobe Illustrator 17.1.0, SVG Export Plug-In . SVG Version: 6.00 Build 0)  -->
<!DOCTYPE svg PUBLIC "-//W3C//DTD SVG 1.1//EN" "http://www.w3.org/Graphics/SVG/1.1/DTD/svg11.dtd">
<svg xmlns="http://www.w3.org/2000/svg" xmlns:xlink="http://www.w3.org/1999/xlink" version="1.1" id="Capa_1" x="0px" y="0px" viewBox="0 0 295.982 295.982" style="enable-background:new 0 0 295.982 295.982;" xml:space="preserve" width="512px" height="512px">
<g>
	<path d="M293.677,142.372l-31.175-31.59l6.655-43.89c0.657-4.329-2.289-8.382-6.61-9.093l-43.807-7.207l-20.374-39.445   c-2.012-3.896-6.785-5.443-10.7-3.477l-39.675,19.944L108.315,7.671c-3.916-1.968-8.688-0.421-10.701,3.477L77.242,50.592   l-43.807,7.207c-4.321,0.711-7.267,4.764-6.61,9.093l6.655,43.89l-31.175,31.59c-3.074,3.115-3.074,8.123,0,11.238l31.175,31.59   l-6.655,43.89c-0.657,4.329,2.289,8.382,6.61,9.093l43.807,7.207l20.374,39.445c1.42,2.75,4.215,4.331,7.113,4.331   c1.209,0,2.435-0.275,3.587-0.855l39.675-19.944l39.676,19.944c3.914,1.966,8.686,0.42,10.701-3.477l20.372-39.445l43.807-7.207   c4.321-0.711,7.268-4.764,6.61-9.093l-6.655-43.89l31.175-31.59C296.751,150.495,296.751,145.487,293.677,142.372z    M147.991,246.491c-54.314,0-98.5-44.186-98.5-98.5s44.186-98.5,98.5-98.5s98.5,44.187,98.5,98.5S202.305,246.491,147.991,246.491z   " fill="#FFFFFF"/>
	<circle cx="147.991" cy="147.991" r="82.5" fill="#FFFFFF"/>
</g>
<g>
</g>
<g>
</g>
<g>
</g>
<g>
</g>
<g>
</g>
<g>
</g>
<g>
</g>
<g>
</g>
<g>
</g>
<g>
</g>
<g>
</g>
<g>
</g>
<g>
</g>
<g>
</g>
<g>
</g>
</svg>
