<?xml version="1.0" encoding="iso-8859-1"?>
<!-- Generator: Adobe Illustrator 19.0.0, SVG Export Plug-In . SVG Version: 6.00 Build 0)  -->
<svg version="1.1" id="Layer_1" xmlns="http://www.w3.org/2000/svg" xmlns:xlink="http://www.w3.org/1999/xlink" x="0px" y="0px"
	 viewBox="0 0 512 512" style="enable-background:new 0 0 512 512;" xml:space="preserve">
<path style="fill:#9E5A23;" d="M211.862,88.276L291.31,0H125.352L204.8,88.276H211.862z"/>
<path style="fill:#844414;" d="M208.331,282.483L45.903,120.055l50.317-49.434l162.428,162.428L208.331,282.483z"/>
<g>
	<path style="fill:#9E5A23;" d="M208.331,182.731L370.759,20.303l49.434,50.317L257.766,233.048L208.331,182.731z"/>
	<path style="fill:#9E5A23;" d="M208.331,382.234L45.903,219.807l50.317-50.317l162.428,162.428L208.331,382.234z"/>
</g>
<g>
	<path style="fill:#CE8D5B;" d="M208.331,282.483l162.428-162.428l50.317,50.317L257.766,332.8L208.331,282.483z"/>
	<path style="fill:#CE8D5B;" d="M208.331,481.986L45.903,319.559l50.317-50.317l161.545,163.31L208.331,481.986z"/>
</g>
<path style="fill:#9E5A23;" d="M208.331,382.234l162.428-162.428l50.317,50.317l-163.31,162.428L208.331,382.234z"/>
<path style="fill:#CE8D5B;" d="M96.221,469.628L53.848,512h83.862L96.221,469.628z"/>
<path style="fill:#844414;" d="M96.221,369.876l-50.317,50.317L137.71,512h99.752L96.221,369.876z"/>
<path style="fill:#CE8D5B;" d="M278.069,512h99.752l42.372-42.372l-49.434-49.435L278.069,512z"/>
<g>
	<path style="fill:#844414;" d="M462.566,512l-42.372-42.372L377.821,512H462.566z"/>
	<path style="fill:#844414;" d="M208.331,82.979l50.317,50.317L391.945,0H291.31L208.331,82.979z"/>
</g>
<path style="fill:#CE8D5B;" d="M45.903,20.303l162.428,162.428l50.317-50.317L126.234,0H66.207L45.903,20.303z"/>
<g>
	<path style="fill:#844414;" d="M208.331,481.986L237.462,512h41.49l142.124-142.124l-50.317-49.435L208.331,481.986z"/>
	<path style="fill:#844414;" d="M45.903,20.303L66.207,0H0v66.207L45.903,20.303z"/>
</g>
<path style="fill:#9E5A23;" d="M0,165.959l96.221-95.338L45.903,20.303L0,66.207V165.959z"/>
<path style="fill:#CE8D5B;" d="M0,265.71l96.221-96.221l-50.317-50.317L0,165.959V265.71z"/>
<path style="fill:#844414;" d="M0,365.462l96.221-96.221l-50.317-50.317L0,265.71V365.462z"/>
<path style="fill:#9E5A23;" d="M0,466.097l96.221-96.221l-50.317-50.317L0,365.462V466.097z"/>
<path style="fill:#844414;" d="M45.903,420.193L0,466.097V512h53.848l42.372-42.372L45.903,420.193z"/>
<path style="fill:#CE8D5B;" d="M512,61.793L450.207,0h-59.145l-20.303,21.186L512,162.428V61.793z"/>
<path style="fill:#844414;" d="M512,162.428l-91.807-91.807l-49.434,49.434L512,261.297V162.428z"/>
<path style="fill:#9E5A23;" d="M512,261.297l-90.924-91.807l-50.317,50.317L512,361.048V261.297z"/>
<path style="fill:#CE8D5B;" d="M512,361.048l-90.924-90.924l-50.317,50.317L512,461.683V361.048z"/>
<g>
	<path style="fill:#9E5A23;" d="M420.193,369.876l-49.434,50.317L462.566,512H512v-50.317L420.193,369.876z"/>
	<path style="fill:#9E5A23;" d="M450.207,0L512,61.793V0H450.207z"/>
</g>
<g>
</g>
<g>
</g>
<g>
</g>
<g>
</g>
<g>
</g>
<g>
</g>
<g>
</g>
<g>
</g>
<g>
</g>
<g>
</g>
<g>
</g>
<g>
</g>
<g>
</g>
<g>
</g>
<g>
</g>
</svg>
