<?xml version="1.0" encoding="iso-8859-1"?>
<!-- Generator: Adobe Illustrator 19.0.0, SVG Export Plug-In . SVG Version: 6.00 Build 0)  -->
<svg version="1.1" id="Layer_1" xmlns="http://www.w3.org/2000/svg" xmlns:xlink="http://www.w3.org/1999/xlink" x="0px" y="0px"
	 viewBox="0 0 512 512" style="enable-background:new 0 0 512 512;" xml:space="preserve">
<g>
	<path style="fill:#507C5C;" d="M438.617,115.777H73.383c-7.742,0-14.018-6.277-14.018-14.018s6.276-14.018,14.018-14.018h365.235
		c7.741,0,14.018,6.277,14.018,14.018S446.358,115.777,438.617,115.777z"/>
	<path style="fill:#507C5C;" d="M299.749,459.249c-1.484,0-2.993-0.238-4.476-0.737c-7.336-2.471-11.28-10.422-8.809-17.758
		c3.479-10.334,20.239-59.289,32.035-79.461c-11.91-12.633-46.196-50.378-62.332-82.669c-15.121,29.188-49.329,67.96-62.585,82.489
		c12.697,20.574,28.339,68.615,31.817,79.552c0.492,1.431,0.76,2.965,0.76,4.563c0,7.741-6.276,14.018-14.018,14.018
		c-6.178,0-11.631-4.047-13.421-9.958c-0.013-0.041-0.025-0.083-0.036-0.123c-8.219-25.836-23.002-66.121-30.359-75.403
		c-6.049-7.631-4.302-18.101-0.967-24.749c0.594-1.185,1.354-2.281,2.255-3.251c25.818-27.821,63.337-74.291,65.914-90.503
		c0.742-4.665,4.128-12.601,18.485-13.328c15.617-0.827,20.73,5.981,22.273,11.802c7.122,26.856,50.009,75.377,65.932,91.806
		c0.994,1.025,1.828,2.198,2.467,3.475c3.224,6.429,4.985,16.662-0.66,24.341c-7.092,9.649-22.772,51.951-30.991,76.347
		C311.06,455.554,305.6,459.248,299.749,459.249z"/>
	<path style="fill:#507C5C;" d="M256,366.719c-7.742,0-14.018-6.277-14.018-14.018v-95.866c0-7.741,6.276-14.018,14.018-14.018
		c7.741,0,14.018,6.277,14.018,14.018v95.866C270.018,360.444,263.741,366.719,256,366.719z"/>
	<path style="fill:#507C5C;" d="M458.313,353.792c-7.741,0-14.018-6.277-14.018-14.018v-35.702
		c0-103.825-84.469-188.295-188.295-188.295S67.705,200.245,67.705,304.072v35.702c0,7.741-6.276,14.018-14.018,14.018
		s-14.018-6.277-14.018-14.018v-35.702c0-57.561,22.563-111.824,63.535-152.796S198.439,87.741,256,87.741
		s111.824,22.565,152.796,63.535s63.535,95.235,63.535,152.796v35.702C472.331,347.515,466.053,353.792,458.313,353.792z"/>
</g>
<path style="fill:#CFF09E;" d="M275.041,141.428h-38.083c-11.392,0-20.627-9.235-20.627-20.627V82.717
	c0-11.392,9.235-20.627,20.627-20.627h38.083c11.392,0,20.627,9.235,20.627,20.627V120.8
	C295.668,132.192,286.433,141.428,275.041,141.428z"/>
<path style="fill:#507C5C;" d="M275.041,155.445h-38.083c-19.104,0-34.645-15.542-34.645-34.645V82.719
	c0-19.104,15.542-34.647,34.645-34.647h38.083c19.104,0,34.647,15.543,34.647,34.647v38.083
	C309.686,139.903,294.143,155.445,275.041,155.445z M236.958,76.108c-3.645,0-6.609,2.965-6.609,6.611v38.083
	c0,3.645,2.965,6.609,6.609,6.609h38.083c3.646,0,6.611-2.965,6.611-6.609V82.719c0-3.646-2.965-6.611-6.611-6.611H236.958z"/>
<path style="fill:#CFF09E;" d="M477.353,392.371H439.27c-11.392,0-20.627-9.235-20.627-20.627v-38.083
	c0-11.392,9.235-20.627,20.627-20.627h38.083c11.392,0,20.627,9.235,20.627,20.627v38.083
	C497.981,383.134,488.746,392.371,477.353,392.371z"/>
<path style="fill:#507C5C;" d="M477.353,406.389H439.27c-19.104,0-34.645-15.543-34.645-34.647v-38.083
	c0-19.104,15.542-34.645,34.645-34.645h38.083c19.104,0,34.647,15.542,34.647,34.645v38.083
	C512,390.846,496.457,406.389,477.353,406.389z M439.271,327.05c-3.645,0-6.609,2.965-6.609,6.609v38.083
	c0,3.646,2.965,6.611,6.609,6.611h38.083c3.646,0,6.611-2.965,6.611-6.611v-38.083c0-3.645-2.965-6.609-6.611-6.609H439.271
	L439.271,327.05z"/>
<path style="fill:#CFF09E;" d="M72.728,392.371H34.645c-11.392,0-20.627-9.235-20.627-20.627v-38.083
	c0-11.392,9.235-20.627,20.627-20.627h38.083c11.392,0,20.627,9.235,20.627,20.627v38.083
	C93.355,383.134,84.12,392.371,72.728,392.371z"/>
<g>
	<path style="fill:#507C5C;" d="M72.728,406.389H34.645C15.542,406.389,0,390.846,0,371.742v-38.083
		c0-19.104,15.542-34.645,34.645-34.645h38.083c19.104,0,34.645,15.542,34.645,34.645v38.083
		C107.375,390.846,91.832,406.389,72.728,406.389z M34.645,327.05c-3.645,0-6.609,2.965-6.609,6.609v38.083
		c0,3.646,2.965,6.611,6.609,6.611h38.083c3.645,0,6.609-2.965,6.609-6.611v-38.083c0-3.645-2.965-6.609-6.609-6.609H34.645
		L34.645,327.05z"/>
	<path style="fill:#507C5C;" d="M327.257,463.928H184.741c-7.742,0-14.018-6.277-14.018-14.018s6.276-14.018,14.018-14.018h142.516
		c7.741,0,14.018,6.277,14.018,14.018S334.998,463.928,327.257,463.928z"/>
</g>
<g>
</g>
<g>
</g>
<g>
</g>
<g>
</g>
<g>
</g>
<g>
</g>
<g>
</g>
<g>
</g>
<g>
</g>
<g>
</g>
<g>
</g>
<g>
</g>
<g>
</g>
<g>
</g>
<g>
</g>
</svg>
