<?xml version="1.0" encoding="iso-8859-1"?>
<!-- Generator: Adobe Illustrator 16.0.0, SVG Export Plug-In . SVG Version: 6.00 Build 0)  -->
<!DOCTYPE svg PUBLIC "-//W3C//DTD SVG 1.1//EN" "http://www.w3.org/Graphics/SVG/1.1/DTD/svg11.dtd">
<svg xmlns="http://www.w3.org/2000/svg" xmlns:xlink="http://www.w3.org/1999/xlink" version="1.1" id="Capa_1" x="0px" y="0px" width="512px" height="512px" viewBox="0 0 83.618 83.618" style="enable-background:new 0 0 83.618 83.618;" xml:space="preserve">
<g>
	<path d="M12.713,72.139h27.678v2.723H12.713c-1.752,0-3.178-1.426-3.178-3.178V8.143c0-1.752,1.426-3.177,3.178-3.177h10.171   l-0.367,1.656c-0.031,0.139-0.046,0.266-0.046,0.386v7.262c0,1.001,0.814,1.815,1.815,1.815h24.962   c1.001,0,1.816-0.814,1.816-1.815V7.008c0-0.121-0.017-0.247-0.047-0.386l-0.367-1.656h10.172C62.575,4.966,64,6.391,64,8.143   v29.163l-0.354-0.308h-2.369V8.143c0-0.25-0.202-0.454-0.452-0.454h-7.035v6.581c0,2.502-2.036,4.539-4.539,4.539H24.288   c-2.503,0-4.539-2.036-4.539-4.539V7.689h-7.034c-0.25,0-0.454,0.204-0.454,0.454v63.541C12.26,71.934,12.463,72.139,12.713,72.139   z M25.784,14.38h21.97c0.884,0,1.599-0.715,1.599-1.598V6.391c0-0.883-0.715-1.598-1.599-1.598h-5.991   C41.763,2.146,39.514,0,36.742,0c-2.774,0-5.022,2.146-5.022,4.793h-5.935c-0.883,0-1.597,0.715-1.597,1.598v6.391   C24.187,13.664,24.9,14.38,25.784,14.38z M74.083,46.426v34.825c0,1.306-1.062,2.367-2.365,2.367H44.385   c-1.305,0-2.366-1.062-2.366-2.367V41.135c0-1.306,1.062-2.367,2.366-2.367h20.889L74.083,46.426z M65.815,45.811h4.935   l-4.935-4.289V45.811z M72.358,47.536h-8.269v-7.044H44.385c-0.354,0-0.642,0.288-0.642,0.643v40.116   c0,0.354,0.287,0.644,0.642,0.644h27.332c0.354,0,0.641-0.289,0.641-0.644V47.536z M46.623,55.73c0,0.713,0.581,1.293,1.293,1.293   h20.271c0.713,0,1.293-0.58,1.293-1.293c0-0.715-0.58-1.295-1.293-1.295H47.916C47.205,54.436,46.623,55.016,46.623,55.73z    M68.186,62.055H47.916c-0.712,0-1.293,0.58-1.293,1.295c0,0.713,0.581,1.293,1.293,1.293h20.271c0.713,0,1.293-0.58,1.293-1.293   C69.479,62.635,68.899,62.055,68.186,62.055z M68.186,69.282H47.916c-0.712,0-1.293,0.579-1.293,1.294   c0,0.714,0.581,1.293,1.293,1.293h20.271c0.713,0,1.293-0.579,1.293-1.293C69.479,69.861,68.899,69.282,68.186,69.282z" fill="#FFFFFF"/>
</g>
<g>
</g>
<g>
</g>
<g>
</g>
<g>
</g>
<g>
</g>
<g>
</g>
<g>
</g>
<g>
</g>
<g>
</g>
<g>
</g>
<g>
</g>
<g>
</g>
<g>
</g>
<g>
</g>
<g>
</g>
</svg>
