<?xml version="1.0" encoding="iso-8859-1"?>
<!-- Generator: Adobe Illustrator 19.0.0, SVG Export Plug-In . SVG Version: 6.00 Build 0)  -->
<svg xmlns="http://www.w3.org/2000/svg" xmlns:xlink="http://www.w3.org/1999/xlink" version="1.1" id="Capa_1" x="0px" y="0px" viewBox="0 0 480 480" style="enable-background:new 0 0 480 480;" xml:space="preserve" width="512px" height="512px">
<path id="XMLID_307_" d="M231.739,50.001c0,5.522-4.477,10-10,10H220c-5.523,0-10-4.478-10-10s4.477-10,10-10h1.739  C227.262,40.001,231.739,44.479,231.739,50.001z M260,40.001h-1.739c-5.522,0-10,4.478-10,10s4.478,10,10,10H260  c5.522,0,10-4.478,10-10S265.522,40.001,260,40.001z M380,200.001c0-3.002,0.448-5.9,1.273-8.637  c-27.422-22.998-59.764-38.783-94.314-46.308c4.601,6.862,7.683,14.701,8.944,22.985l23.164,152.218  c3.253,21.381-10.912,41.302-32.247,45.351c-2.66,0.505-5.337,0.951-8.02,1.37c25.954,28.881,58.866,50.156,96.228,62.099  c5.453-5.595,13.062-9.079,21.473-9.079c16.542,0,30,13.458,30,30c0,16.542-13.458,30-30,30s-30-13.458-30-30  c0-0.888,0.046-1.765,0.122-2.634c-44.316-14.65-82.789-41.401-111.844-77.817c-4.92,0.289-9.85,0.451-14.779,0.451  s-9.859-0.162-14.78-0.451c-29.055,36.416-67.528,63.167-111.844,77.817c0.076,0.869,0.122,1.746,0.122,2.634  c0,16.542-13.458,30-30,30s-30-13.458-30-30c0-16.542,13.458-30,30-30c8.411,0,16.02,3.484,21.473,9.079  c37.361-11.942,70.274-33.218,96.228-62.099c-2.683-0.418-5.359-0.864-8.02-1.37c-21.336-4.05-35.501-23.971-32.248-45.35  l23.164-152.219c1.26-8.284,4.343-16.123,8.944-22.985c-34.551,7.525-66.892,23.31-94.313,46.308  c0.824,2.737,1.273,5.634,1.273,8.636c0,16.542-13.458,30-30,30s-30-13.458-30-30s13.458-30,30-30  c6.248,0,12.054,1.922,16.863,5.203c31.523-26.153,68.926-43.627,108.782-51.092c-13.759-11.299-23.14-27.733-25.204-46.343  L105.3,118.481c-1.648,1.029-3.48,1.521-5.291,1.521c-3.333,0-6.592-1.666-8.489-4.701c-2.927-4.684-1.503-10.853,3.18-13.78  l50.431-31.519H60c-5.523,0-10-4.478-10-10s4.477-10,10-10h85.131L94.7,18.482c-4.684-2.928-6.107-9.097-3.18-13.78  c2.927-4.685,9.098-6.106,13.78-3.181l69.379,43.362C184.798,18.661,210.253,0.001,240,0.001c29.746,0,55.202,18.66,65.321,44.882  L374.7,1.521c4.683-2.925,10.853-1.502,13.78,3.181c2.927,4.684,1.503,10.853-3.181,13.78l-50.431,31.519H420  c5.522,0,10,4.478,10,10s-4.478,10-10,10h-85.131l50.431,31.519c4.684,2.928,6.107,9.097,3.181,13.78  c-1.897,3.035-5.156,4.701-8.49,4.701c-1.81,0-3.642-0.491-5.29-1.521l-65.141-40.713c-2.065,18.61-11.445,35.044-25.205,46.343  c39.856,7.465,77.259,24.939,108.782,51.093c4.809-3.281,10.615-5.203,16.863-5.203c16.542,0,30,13.458,30,30s-13.458,30-30,30  S380,216.543,380,200.001z M93.499,450c0-5.514-4.486-10-10-10s-10,4.486-10,10c0,5.514,4.486,10,10,10S93.499,455.514,93.499,450z   M386.501,450c0,5.514,4.486,10,10,10s10-4.486,10-10c0-5.514-4.486-10-10-10S386.501,444.486,386.501,450z M410,190.001  c-5.458,0-10,3.801-10,10c0,5.514,4.486,10,10,10s10-4.486,10-10S415.514,190.001,410,190.001z M240,120.001c27.57,0,50-22.43,50-50  s-22.43-50-50-50s-50,22.43-50,50S212.43,120.001,240,120.001z M80,200.001c0-2.449-1.5-10-10-10c-5.514,0-10,4.486-10,10  s4.486,10,10,10S80,205.514,80,200.001z M299.295,323.268l-11.678-76.742l-40.546,40.546c-1.953,1.952-4.512,2.929-7.071,2.929  c-2.559,0-5.119-0.977-7.071-2.929l-40.546-40.546l-11.678,76.743c-1.627,10.691,5.491,20.659,16.206,22.693  c28.228,5.359,57.951,5.359,86.18,0C293.804,343.928,300.922,333.96,299.295,323.268z M205.457,231.314L240,265.858l34.544-34.544  c3.75-3.75,3.75-9.851,0-13.601c-3.751-3.751-9.852-3.749-13.601,0l-13.872,13.872c-1.875,1.875-4.419,2.929-7.071,2.929  s-5.196-1.054-7.071-2.929l-13.872-13.872c-1.875-1.875-4.338-2.813-6.8-2.813c-2.463,0-4.925,0.938-6.8,2.813  C201.707,221.464,201.707,227.564,205.457,231.314z M240,140.001c-18.198,0-33.394,13.058-36.131,31.049l-4.045,26.582  c10.948-5.049,24.366-3.07,33.376,5.939l6.8,6.801l6.801-6.801c9.01-9.009,22.428-10.988,33.376-5.939l-4.045-26.581  C273.394,153.06,258.198,140.001,240,140.001z" fill="#FFFFFF"/>
<g>
</g>
<g>
</g>
<g>
</g>
<g>
</g>
<g>
</g>
<g>
</g>
<g>
</g>
<g>
</g>
<g>
</g>
<g>
</g>
<g>
</g>
<g>
</g>
<g>
</g>
<g>
</g>
<g>
</g>
</svg>
