<?xml version="1.0" encoding="iso-8859-1"?>
<!-- Generator: Adobe Illustrator 16.0.0, SVG Export Plug-In . SVG Version: 6.00 Build 0)  -->
<!DOCTYPE svg PUBLIC "-//W3C//DTD SVG 1.1//EN" "http://www.w3.org/Graphics/SVG/1.1/DTD/svg11.dtd">
<svg xmlns="http://www.w3.org/2000/svg" xmlns:xlink="http://www.w3.org/1999/xlink" version="1.1" id="Capa_1" x="0px" y="0px" width="512px" height="512px" viewBox="0 0 371 371" style="enable-background:new 0 0 371 371;" xml:space="preserve">
<g>
	<path d="M360.007,0.255l-254.65-0.16c-0.002,0-0.004,0-0.007,0c-2.914,0-5.708,1.156-7.771,3.215L3.229,97.475   C1.161,99.539,0,102.339,0,105.261v254.643c0,6.074,4.925,11,11,11h254.592c2.917,0,5.715-1.16,7.778-3.223l94.408-94.412   c2.062-2.064,3.222-4.861,3.222-7.779V11.255C371,5.184,366.08,0.259,360.007,0.255z M317.373,273.328l-43.947,43.944v-43.944   H317.373z M133.177,97.479V35.502h177.169l-61.971,61.977H133.177z M273.425,237.725V122.772l61.975-61.971v176.922   L273.425,237.725L273.425,237.725z M133.177,237.725V133.082h104.646v104.643H133.177z M60.791,335.303l61.974-61.975h115.059   v61.975H60.791z M53.765,97.479l43.81-43.813v43.813H53.765z M97.575,133.082v115.086l-61.974,61.973V133.082H97.575z" fill="#FFFFFF"/>
</g>
<g>
</g>
<g>
</g>
<g>
</g>
<g>
</g>
<g>
</g>
<g>
</g>
<g>
</g>
<g>
</g>
<g>
</g>
<g>
</g>
<g>
</g>
<g>
</g>
<g>
</g>
<g>
</g>
<g>
</g>
</svg>
