<?xml version="1.0" encoding="iso-8859-1"?>
<!-- Generator: Adobe Illustrator 16.0.0, SVG Export Plug-In . SVG Version: 6.00 Build 0)  -->
<!DOCTYPE svg PUBLIC "-//W3C//DTD SVG 1.1//EN" "http://www.w3.org/Graphics/SVG/1.1/DTD/svg11.dtd">
<svg xmlns="http://www.w3.org/2000/svg" xmlns:xlink="http://www.w3.org/1999/xlink" version="1.1" id="Capa_1" x="0px" y="0px" width="512px" height="512px" viewBox="0 0 95.255 95.255" style="enable-background:new 0 0 95.255 95.255;" xml:space="preserve">
<g>
	<g>
		<path d="M89.316,27.085c-0.242-0.238-0.442-0.63-0.468-0.965c-0.148-2.004-0.872-3.665-2.493-4.951    c-0.303-0.241-0.292-0.97-0.299-1.475c-0.025-1.956-0.017-3.912-0.014-6.122c0.001-0.552-0.288-0.659-0.645-0.237    c-0.369,0.439-0.726,0.86-1.088,1.289c-0.355,0.422-0.759,0.331-0.9-0.203c-0.03-0.115-0.062-0.229-0.092-0.346    c-0.141-0.534-0.347-0.718-0.459-0.41c-0.111,0.308-0.469,0.303-0.796-0.009c-0.328-0.312-0.534-0.276-0.465,0.08    c0.071,0.356,0.068,0.667-0.005,0.695c-0.073,0.028-0.254-0.26-0.401-0.643c-0.089-0.234-0.168-0.47-0.209-0.712    c-0.158-0.941-0.583-0.988-1.252-0.472c-0.123,0.095-0.229,0.209-0.348,0.311c-0.819,0.712-1.571,1.191-2.859,0.951    c-1.56-0.29-3.178-0.272-4.785-0.309c-0.553-0.013-1.02,0.1-1.043,0.264c-0.024,0.165,0.244,0.38,0.6,0.482    c0.355,0.101,0.644,0.452,0.644,0.532c0,0.08-0.446,0.348-0.999,0.348c-0.094,0-0.188,0-0.28,0c-0.553,0-0.944-0.16-0.878-0.096    c0.036,0.036,0.077-0.024,0.115,0.02c0.068,0.078,0.13,0.111,0.194,0.201c0.102,0.143-0.069,0.47-0.383,0.762    c-0.314,0.292-0.251,0.542,0.141,0.575c0.393,0.033,0.716,0.144,0.725,0.256c0.008,0.112-0.433,0.227-0.983,0.261    c-1.2,0.074-2.4,0.146-3.6,0.221c-0.552,0.034-1,0.123-1.001,0.199c-0.001,0.076,0.436,0.231,0.976,0.346    c0.302,0.064,0.605,0.129,0.907,0.193c0.541,0.115,0.973,0.309,0.968,0.433c-0.006,0.124-0.46,0.223-1.004,0.318    c-1.113,0.193-2.232,0.633-3.378,0.821c-0.545,0.089-0.767,0.47-0.452,0.925c0.074,0.108,0.15,0.219,0.224,0.328    c0.309,0.458,0.05,0.927-0.499,0.858c-0.626-0.078-1.405-0.226-2.046-0.285c-0.55-0.051-0.58,0.239-0.2,0.64    c1.874,1.979,1.266,6.401-2.523,6.401c-4.25,0-5.25,2.5-4.375,1.875c0.419-0.299,0.876-0.102,1.239,0.186    c0.433,0.343,0.391,1.087-0.071,1.388c-4.902,3.198-21.49-1.18-25.666-2.356c-0.532-0.15-1.408-0.288-1.959-0.262    c-2.406,0.114-4.635,0.805-6.58,2.313c-0.894,0.693-1.53,0.809-2.333-0.061c-0.215-0.233-0.481-0.421-0.774-0.608    c-0.459-0.294-0.811-0.435-0.785-0.313c0.024,0.121-0.409,0.139-0.958,0.088c-2.011-0.184-4.07-0.375-6.131-0.539    c-0.146-0.012-0.297,0.029-0.45,0.083c-0.24,0.085-0.274,0.306-0.075,0.491c0.198,0.185-0.081,0.413-0.625,0.51    c-1.2,0.213-2.422,0.43-3.649,0.648c-0.544,0.097-0.979,0.225-0.971,0.288c0.007,0.062,0.352,0.113,0.77,0.113    s0.367,0.22-0.114,0.492c-0.924,0.523-1.766,0.999-2.586,1.463c-0.481,0.272-0.764,0.555-0.631,0.632    c0.133,0.077,0.096,0.562-0.083,1.085c-0.303,0.888-0.606,1.776-0.91,2.664c-0.179,0.523-0.283,0.965-0.232,0.986    c0.051,0.021,0.289-0.324,0.532-0.772c0.244-0.448,0.335-0.374,0.274,0.175c-0.352,3.159,1.149,5.688,3.126,7.924    c0.905,1.023,2.586,1.323,3.685,2.23c0.556,0.459,0.634,1.528,0.851,2.342c0.039,0.146-0.262,0.456-0.471,0.583    c-1.017,0.62-2.045,1.222-3.043,1.808c-0.477,0.278-0.426,0.606,0.112,0.732c0.574,0.135,1.159,0.271,1.748,0.408    c0.538,0.126,0.963,0.303,0.951,0.396c-0.013,0.093-0.396,0.226-0.855,0.297c-0.46,0.07-0.411,0.281,0.106,0.473    c3.287,1.222,5.251,1.878,9.015-4.016c0.297-0.466,0.432-0.413,0.313,0.127c-0.052,0.234-0.099,0.451-0.144,0.655    c-0.119,0.538-0.139,0.995-0.045,1.021c0.094,0.024,0.268-0.392,0.39-0.931c0.142-0.626,0.285-1.262,0.436-1.924    c0.122-0.539,0.481-0.612,0.805-0.165c1.102,1.521,2.194,2.996,3.212,4.521c0.848,1.271,0.637,2.657,0.198,4.049    c-0.774,2.454-0.632,2.931,1.476,4.409c2.32,1.629,4.724,3.139,7.028,4.789c0.63,0.451,1.147,1.157,1.521,1.851    c1.043,1.944,1.929,3.974,2.98,5.914c1.196,2.21,4.19,2.615,5.896,1.11c0.414-0.365,0.681-0.315,0.779,0.228    c0.602,3.361,2.478,4.819,5.704,4.447c1.506-0.174,1.859-0.701,1.185-2.057c-1.303-2.615-2.797-5.086-5.424-6.648    c-2.46-1.463-4.098-3.597-5.014-6.319c-0.722-2.148,0.31-3.952,1.051-5.808c0.081-0.201,0.711-0.298,1.064-0.255    c3.39,0.414,6.776,0.863,10.161,1.323c0.276,0.038,0.597,0.161,0.791,0.351c2.885,2.835,5.772,5.656,9.077,8.026    c0.896,0.642,1.685,1.435,2.521,2.238c0.398,0.382,0.344,0.915-0.146,1.171c-1.93,1.012-2.627,0.807-4.404-0.634    c-1.545-1.253-5.522-0.5-6.39,1.303c-0.181,0.375,0.081,1.334,0.417,1.521c1.387,0.772,2.873,1.369,4.339,1.992    c0.566,0.241,1.213,0.309,1.762,0.579c2.221,1.096,3.009,0.982,4.894-0.599c0.698-0.585,1.488-1.196,2.338-1.437    c2.388-0.674,3.449-2.811,2.074-4.864c-1.523-2.276-3.274-4.4-4.919-6.598c-0.37-0.494-0.726-0.999-1.176-1.634    c-0.319-0.451-0.131-0.807,0.419-0.85c1.591-0.121,2.929-0.467,4.276,0.407c0.525,0.341,1.265,0.407,1.92,0.485    c1.946,0.231,3.896,0.434,5.852,0.595c1.492,0.123,2.991,0.227,4.487,0.228c1.638,0.001,2.133,0.301,2.057,1.948    c-0.093,1.994-0.31,3.996-0.661,5.961c-0.363,2.034-1.802,3.007-3.799,3.309c-2.612,0.394-4.155,4.513-2.41,6.531    c0.271,0.312,1.183,0.396,1.61,0.191c1.95-0.927,3.964-1.793,5.188-3.772c0.27-0.435,0.866-0.823,1.373-0.921    c1.39-0.269,1.862-1.162,1.979-2.411c0.134-1.445,0.203-2.901,0.425-4.333c0.214-1.372,0.462-2.764,0.92-4.067    c0.959-2.733,0.402-4.6-2.117-6.039c-0.982-0.562-2.11-0.866-3.111-1.402c-1.492-0.8-2.926-1.706-4.391-2.558    c-1.102-0.641-1.114-1.591-0.542-2.501c0.981-1.555,0.777-3.25,0.921-4.946c0.332-3.914,0.828-7.814,1.344-11.71    c0.052-0.397,0.206-0.781,0.372-1.133c0.235-0.499,0.865-0.777,1.4-0.642c1.421,0.358,2.75,0.631,3.944,1.191    c1.779,0.834,3.669,1.756,5.009,3.13c2.177,2.233,3.78,2.161,5.993,0.183c2.55-2.279,2.477-2.663,0.828-5.703    C92.58,32.463,91.65,29.369,89.316,27.085z M16.333,35.815c-0.625,1.062-1.174,1.993-1.728,2.934    c-0.28,0.476-0.767,0.485-0.927-0.044c-0.365-1.207-0.004-2.46,1.06-3.385c0.242-0.211,0.635-0.25,1.107-0.279    C16.397,35.007,16.613,35.339,16.333,35.815z M30.877,64.705c-0.32,0.45-0.982,0.469-1.398,0.104    c-0.322-0.282-0.648-0.563-0.986-0.83c-2.07-1.635-2.858-3.438-1.307-5.965c0.567-0.925,0.812-2.047,1.127-3.215    c0.144-0.533,0.663-0.724,1.08-0.361C32.358,57,32.964,61.763,30.877,64.705z" fill="#FFFFFF"/>
	</g>
</g>
<g>
</g>
<g>
</g>
<g>
</g>
<g>
</g>
<g>
</g>
<g>
</g>
<g>
</g>
<g>
</g>
<g>
</g>
<g>
</g>
<g>
</g>
<g>
</g>
<g>
</g>
<g>
</g>
<g>
</g>
</svg>
