<?xml version="1.0" encoding="iso-8859-1"?>
<!-- Generator: Adobe Illustrator 16.0.0, SVG Export Plug-In . SVG Version: 6.00 Build 0)  -->
<!DOCTYPE svg PUBLIC "-//W3C//DTD SVG 1.1//EN" "http://www.w3.org/Graphics/SVG/1.1/DTD/svg11.dtd">
<svg xmlns="http://www.w3.org/2000/svg" xmlns:xlink="http://www.w3.org/1999/xlink" version="1.1" id="Capa_1" x="0px" y="0px" width="512px" height="512px" viewBox="0 0 574.399 574.4" style="enable-background:new 0 0 574.399 574.4;" xml:space="preserve">
<g>
	<g id="Layer_1_61_">
		<g>
			<path d="M299.625,110.612c-20.4,3.825-38.25,17.85-48.45,36.975l-21.675,40.8H71.4c-39.525,0-71.4,31.875-71.4,70.125v57.375     c0,39.525,31.875,71.4,71.4,71.4h159.375l21.675,40.8c10.2,19.125,28.05,31.875,48.45,35.7V110.612H299.625z" fill="#FFFFFF"/>
			<path d="M320.025,109.337v355.725c54.824-2.55,98.175-47.175,98.175-103.274V212.612     C418.2,157.788,374.85,111.887,320.025,109.337z" fill="#FFFFFF"/>
			<path d="M554.625,268.712h-89.25c-10.2,0-19.125,8.925-19.125,19.125s7.65,19.125,19.125,19.125h89.25     c10.2,0,19.125-8.925,19.125-19.125S566.1,268.712,554.625,268.712z" fill="#FFFFFF"/>
			<path d="M561,393.663l-91.8-26.775c-10.2-2.55-20.4,2.55-22.95,12.75s2.55,20.4,12.75,22.95l91.8,28.05     c1.275,0,3.825,1.275,5.101,1.275c7.649,0,15.3-5.101,17.85-12.75C576.3,406.413,569.925,396.212,561,393.663z" fill="#FFFFFF"/>
			<path d="M464.1,210.062c1.275,0,3.825,0,5.101-1.275l91.8-28.05c10.2-2.55,15.3-12.75,12.75-22.95     c-2.55-10.2-12.75-15.3-22.95-12.75L459,174.362c-10.2,2.55-15.3,12.75-12.75,22.95C448.8,204.962,456.45,210.062,464.1,210.062z     " fill="#FFFFFF"/>
			<path d="M123.675,124.637h-12.75c-20.4,0-36.975,16.575-36.975,36.975h86.7C160.65,142.487,144.075,124.637,123.675,124.637z" fill="#FFFFFF"/>
		</g>
	</g>
</g>
<g>
</g>
<g>
</g>
<g>
</g>
<g>
</g>
<g>
</g>
<g>
</g>
<g>
</g>
<g>
</g>
<g>
</g>
<g>
</g>
<g>
</g>
<g>
</g>
<g>
</g>
<g>
</g>
<g>
</g>
</svg>
