<?xml version="1.0" encoding="utf-8"?>
<!DOCTYPE svg PUBLIC "-//W3C//DTD SVG 1.1//EN" "http://www.w3.org/Graphics/SVG/1.1/DTD/svg11.dtd">
<svg xmlns="http://www.w3.org/2000/svg" xmlns:xlink="http://www.w3.org/1999/xlink" version="1.1" viewBox="0 0 512 512" enable-background="new 0 0 512 512" width="512px" height="512px">
  <g>
    <path d="m432.7,11c-37.6,0-68.3,30.6-68.3,68.1 0,7.1 1.1,14 3.2,20.5l-65.3,53.5c-15.9-11.6-35.5-18.4-56.7-18.4-20.4,0-39.3,6.3-54.9,17.1l-49.1-42.3c3.8-8.5 6-17.9 6-27.8 0-37.6-30.6-68.1-68.3-68.1-37.7-0.1-68.3,30.4-68.3,68 0,37.6 30.6,68.1 68.3,68.1 12.9,0 24.9-3.6 35.2-9.8l48.3,41.7c-8.4,14.1-13.2,30.5-13.2,48 0,44.2 30.6,81.4 71.9,92l-1.5,46c-28,8.5-48.4,34.5-48.4,65.2 0,37.6 30.6,68.1 68.3,68.1 37.6,0 68.3-30.6 68.3-68.1 0-30.3-19.9-56-47.3-64.9l1.5-44.7c44.9-7.9 79.2-46.8 79.2-93.6 0-16.7-4.4-32.4-12.1-46.1l61.7-50.5c11.5,8.9 26,14.2 41.6,14.2 37.6,0 68.3-30.6 68.3-68.1-0.1-37.5-30.7-68.1-68.4-68.1zm-380.7,70.6c0-15 12.2-27.2 27.3-27.2 15,0 27.3,12.2 27.3,27.2 0,6.5-2.3,12.5-6.2,17.2-0.4,0.4-0.7,0.7-1.1,1.1-0.2,0.2-0.3,0.4-0.5,0.6-5,5.1-11.9,8.3-19.6,8.3-15,1.42109e-14-27.2-12.2-27.2-27.2zm187.9,378.5c-15,0-27.3-12.2-27.3-27.2 0-15 12.2-27.2 27.3-27.2 15,0 27.3,12.2 27.3,27.2-0.1,15-12.3,27.2-27.3,27.2zm5.7-176.1c-30.4,0-55.1-24.3-55.1-54.3s24.7-54.3 55.1-54.3c30.4,0 55.1,24.3 55.1,54.3s-24.8,54.3-55.1,54.3zm187.1-177.6c-15,0-27.3-12.2-27.3-27.2 0-15 12.2-27.2 27.3-27.2s27.3,12.1 27.3,27.1c0,15.1-12.2,27.3-27.3,27.3z" fill="#FFFFFF"/>
  </g>
</svg>
