<?xml version="1.0" encoding="iso-8859-1"?>
<!-- Generator: Adobe Illustrator 19.0.0, SVG Export Plug-In . SVG Version: 6.00 Build 0)  -->
<svg xmlns="http://www.w3.org/2000/svg" xmlns:xlink="http://www.w3.org/1999/xlink" version="1.1" id="Layer_1" x="0px" y="0px" viewBox="0 0 314.998 314.998" style="enable-background:new 0 0 314.998 314.998;" xml:space="preserve" width="512px" height="512px">
<g transform="translate(0 -562.36)">
	<g>
		<g>
			<polygon points="128.6,656.912 128.6,656.912 128.6,656.912    " fill="#FFFFFF"/>
			<path d="M115.5,671.112v97.7c0,10.5,10.5,17.3,19.9,12.6l98.2-48.8c10-5.3,10-20,0-25.2l-98.2-48.8c-2.1-1.1-4.2-1.7-6.8-1.7     C121.3,657.412,115.5,663.212,115.5,671.112z M143.3,693.712l52.5,26.3l-52.5,26.3V693.712z" fill="#FFFFFF"/>
			<path d="M237.8,590.812c-23.6-12.6-49.3-18.4-74.5-17.9l0,0c-3.7,0-7.4,0.6-11.1,1.1c-28.3,2.6-55.6,14.2-78.7,33.1     c-7.3-6.3-17.3-10-27.8-10c-25.2,0-45.7,20.5-45.7,45.7c0,24.7,20.5,45.2,45.7,45.2c24.6,0,45.1-20.5,45.1-45.2     c0-4.2-0.6-8.4-1.6-12.6c0.6,0,1.1-0.6,1.6-1.1c37.3-31.6,90.3-37.3,133.9-13.7c43,23.1,67.7,70.4,61.4,119.2     s-41.5,88.7-88.7,100.8c-47.8,12.1-98.2-6.3-126.5-46.2c-11.1-15.2-33.6,1.1-22.6,15.8c35.2,49.3,97.1,72.4,155.9,57.2     c58.3-14.7,102.4-64,109.7-124.4C321.3,678.012,290.8,619.212,237.8,590.812z M45.7,660.112c-9.9,0-17.8-7.8-17.8-17.3     c0-10,7.8-17.9,17.8-17.9c9.4,0,17.3,7.9,17.3,17.9C63,652.212,55.1,660.112,45.7,660.112z" fill="#FFFFFF"/>
		</g>
	</g>
</g>
<g>
</g>
<g>
</g>
<g>
</g>
<g>
</g>
<g>
</g>
<g>
</g>
<g>
</g>
<g>
</g>
<g>
</g>
<g>
</g>
<g>
</g>
<g>
</g>
<g>
</g>
<g>
</g>
<g>
</g>
</svg>
