<?xml version="1.0" encoding="iso-8859-1"?>
<!-- Generator: Adobe Illustrator 16.0.0, SVG Export Plug-In . SVG Version: 6.00 Build 0)  -->
<!DOCTYPE svg PUBLIC "-//W3C//DTD SVG 1.1//EN" "http://www.w3.org/Graphics/SVG/1.1/DTD/svg11.dtd">
<svg xmlns="http://www.w3.org/2000/svg" xmlns:xlink="http://www.w3.org/1999/xlink" version="1.1" id="Capa_1" x="0px" y="0px" width="512px" height="512px" viewBox="0 0 95.636 95.636" style="enable-background:new 0 0 95.636 95.636;" xml:space="preserve">
<g>
	<path d="M94.308,93.201L78.171,1.714C77.996,0.723,77.136,0,76.128,0H54.585c-0.56,0-1.094,0.226-1.484,0.626   s-0.604,0.94-0.588,1.499l0.541,21.966H42.583l0.541-21.966c0.015-0.559-0.198-1.099-0.588-1.499C42.144,0.226,41.61,0,41.051,0   H19.507C18.5,0,17.64,0.723,17.464,1.714L1.328,93.201c-0.106,0.604,0.061,1.224,0.454,1.693c0.394,0.469,0.976,0.741,1.589,0.741   h35.424c1.125,0,2.046-0.897,2.073-2.022l0.544-22.068h12.813l0.544,22.068c0.027,1.125,0.947,2.022,2.072,2.022h35.425   c0.612,0,1.194-0.271,1.589-0.741C94.248,94.425,94.414,93.805,94.308,93.201z M41.592,64.263l0.811-32.891h10.83l0.812,32.891   H41.592z" fill="#FFFFFF"/>
</g>
<g>
</g>
<g>
</g>
<g>
</g>
<g>
</g>
<g>
</g>
<g>
</g>
<g>
</g>
<g>
</g>
<g>
</g>
<g>
</g>
<g>
</g>
<g>
</g>
<g>
</g>
<g>
</g>
<g>
</g>
</svg>
